<?xml version="1.0" encoding="iso-8859-1"?>
<!-- Generator: Adobe Illustrator 19.0.0, SVG Export Plug-In . SVG Version: 6.00 Build 0)  -->
<svg version="1.1" id="Layer_1" xmlns="http://www.w3.org/2000/svg" xmlns:xlink="http://www.w3.org/1999/xlink" x="0px" y="0px"
	 viewBox="0 0 512 512" style="enable-background:new 0 0 512 512;" xml:space="preserve">
<path style="fill:#174461;" d="M11.584,108.887C5.187,108.887,0,114.074,0,120.471c0,6.397,5.187,11.584,11.584,11.584h488.833
	v-23.167H11.584z"/>
<path style="fill:#3B8BC0;" d="M500.416,192.29c-6.397,0-11.584-5.187-11.584-11.584V60.235c0-6.397,5.187-11.584,11.584-11.584
	c6.397,0,11.584,5.187,11.584,11.584v120.471C512,187.102,506.813,192.29,500.416,192.29z"/>
<polygon style="fill:#FF755C;" points="391.529,183.023 368.362,323.186 391.529,463.348 437.864,463.348 437.864,183.023 "/>
<g>
	<path style="fill:#3B8BC0;" d="M59.656,97.303c-6.397,0-11.584,5.187-11.584,11.584v97.303H71.24v-97.303
		C71.24,102.49,66.053,97.303,59.656,97.303z"/>
	<path style="fill:#3B8BC0;" d="M343.457,97.303c-6.397,0-11.584,5.187-11.584,11.584v97.303h23.167v-97.303
		C355.041,102.49,349.854,97.303,343.457,97.303z"/>
</g>
<rect x="11.584" y="183.023" style="fill:#FFB14E;" width="379.946" height="280.326"/>
<g>
	<path style="fill:#FF4181;" d="M331.873,305.81H71.24c-6.397,0-11.584-5.187-11.584-11.584s5.187-11.584,11.584-11.584h260.633
		c6.397,0,11.584,5.187,11.584,11.584S338.27,305.81,331.873,305.81z"/>
	<path style="fill:#FF4181;" d="M282.643,363.729H120.471c-6.397,0-11.584-5.187-11.584-11.584c0-6.397,5.187-11.584,11.584-11.584
		h162.172c6.397,0,11.584,5.187,11.584,11.584C294.226,358.541,289.039,363.729,282.643,363.729z"/>
</g>
<g>
</g>
<g>
</g>
<g>
</g>
<g>
</g>
<g>
</g>
<g>
</g>
<g>
</g>
<g>
</g>
<g>
</g>
<g>
</g>
<g>
</g>
<g>
</g>
<g>
</g>
<g>
</g>
<g>
</g>
</svg>
