<?xml version="1.0" encoding="iso-8859-1"?>
<!-- Generator: Adobe Illustrator 19.0.0, SVG Export Plug-In . SVG Version: 6.00 Build 0)  -->
<svg version="1.1" id="Layer_1" xmlns="http://www.w3.org/2000/svg" xmlns:xlink="http://www.w3.org/1999/xlink" x="0px" y="0px"
	 viewBox="0 0 512 512" style="enable-background:new 0 0 512 512;" xml:space="preserve">
<path style="fill:#FF755C;" d="M414.948,116.199H261.335v24.265h153.611c6.7,0,12.133-5.433,12.133-12.133
	C427.079,121.632,421.647,116.199,414.948,116.199z"/>
<polygon style="fill:#FFD86C;" points="369.821,235.713 164.919,235.713 151.6,304.697 383.14,304.697 "/>
<path style="fill:#FFB14E;" d="M455.628,293.034H90.585v43.907H455.63c12.124,0,21.954-9.829,21.954-21.954
	C477.583,302.863,467.754,293.034,455.628,293.034z"/>
<g>
	<rect x="202.725" style="fill:#FF755C;" width="70.734" height="483.561"/>
	<rect x="58.807" y="210.878" style="fill:#FF755C;" width="43.908" height="272.67"/>
</g>
<path style="fill:#FFB14E;" d="M319.923,471.427H34.416V512h326.08C360.496,489.592,342.331,471.427,319.923,471.427z"/>
<g>
</g>
<g>
</g>
<g>
</g>
<g>
</g>
<g>
</g>
<g>
</g>
<g>
</g>
<g>
</g>
<g>
</g>
<g>
</g>
<g>
</g>
<g>
</g>
<g>
</g>
<g>
</g>
<g>
</g>
</svg>
