<?xml version="1.0" encoding="iso-8859-1"?>
<!-- Generator: Adobe Illustrator 19.0.0, SVG Export Plug-In . SVG Version: 6.00 Build 0)  -->
<svg version="1.1" id="Layer_1" xmlns="http://www.w3.org/2000/svg" xmlns:xlink="http://www.w3.org/1999/xlink" x="0px" y="0px"
	 viewBox="0 0 512 512" style="enable-background:new 0 0 512 512;" xml:space="preserve">
<polygon style="fill:#4EB9FF;" points="205.878,343.394 139.689,277.207 84.415,332.482 85.481,397.604 116.368,432.904 "/>
<polygon style="fill:#9AD7FF;" points="84.415,332.482 17.21,399.687 49.162,500.109 116.368,432.904 "/>
<path style="fill:#174461;" d="M464.344,109.225c24.986-24.986,24.986-65.497,0-90.485c-24.986-24.986-65.497-24.986-90.485,0
	l-10.053,10.053l28.486,61.999l61.999,28.486L464.344,109.225z"/>
<polygon style="fill:#FF755C;" points="363.806,28.793 110.785,281.815 132.568,350.516 201.27,372.299 454.291,119.278 "/>
<path style="fill:#9AD7FF;" d="M379.037,132.533c7.866-7.866,7.866-20.62,0-28.486c-7.866-7.866-20.62-7.866-28.486,0
	l-43.567,43.567l-7.261,26.252l-26.252,7.261l-93.836,93.836c-7.866,7.866-7.866,20.62,0,28.486c7.866,7.866,20.62,7.866,28.486,0
	l93.836-93.836l7.261-26.252l26.252-7.261L379.037,132.533z"/>
<rect x="280.773" y="158.477" transform="matrix(-0.7071 0.7071 -0.7071 -0.7071 646.0659 89.6284)" style="fill:#174461;" width="47.394" height="40.285"/>
<g>
	<path style="fill:#9AD7FF;" d="M143.073,512h-33.442c-6.544,0-11.849-5.306-11.849-11.849c0-6.543,5.305-11.849,11.849-11.849
		h33.442c6.544,0,11.849,5.306,11.849,11.849C154.922,506.694,149.617,512,143.073,512z"/>
	<path style="fill:#9AD7FF;" d="M228.04,512h-33.442c-6.544,0-11.849-5.306-11.849-11.849c0-6.543,5.305-11.849,11.849-11.849
		h33.442c6.544,0,11.849,5.306,11.849,11.849C239.889,506.694,234.584,512,228.04,512z"/>
	<path style="fill:#9AD7FF;" d="M313.007,512h-33.443c-6.544,0-11.849-5.306-11.849-11.849c0-6.543,5.305-11.849,11.849-11.849
		h33.443c6.544,0,11.849,5.306,11.849,11.849C324.856,506.694,319.551,512,313.007,512z"/>
	<path style="fill:#9AD7FF;" d="M397.974,512h-33.442c-6.544,0-11.849-5.306-11.849-11.849c0-6.543,5.305-11.849,11.849-11.849
		h33.442c6.544,0,11.849,5.306,11.849,11.849C409.823,506.694,404.518,512,397.974,512z"/>
	<path style="fill:#9AD7FF;" d="M482.941,512h-33.442c-6.544,0-11.849-5.306-11.849-11.849c0-6.543,5.305-11.849,11.849-11.849
		h33.442c6.544,0,11.849,5.306,11.849,11.849C494.79,506.694,489.485,512,482.941,512z"/>
</g>
<g>
</g>
<g>
</g>
<g>
</g>
<g>
</g>
<g>
</g>
<g>
</g>
<g>
</g>
<g>
</g>
<g>
</g>
<g>
</g>
<g>
</g>
<g>
</g>
<g>
</g>
<g>
</g>
<g>
</g>
</svg>
