<?xml version="1.0" encoding="iso-8859-1"?>
<!-- Generator: Adobe Illustrator 19.0.0, SVG Export Plug-In . SVG Version: 6.00 Build 0)  -->
<svg version="1.1" id="Layer_1" xmlns="http://www.w3.org/2000/svg" xmlns:xlink="http://www.w3.org/1999/xlink" x="0px" y="0px"
	 viewBox="0 0 512 512" style="enable-background:new 0 0 512 512;" xml:space="preserve">
<path style="fill:#C2E7FF;" d="M0.241,345.275L278.877,66.398c26.474,23.306,49.988,49.916,69.918,79.177l23.979,39.771
	c30.874,58.204,48.522,124.491,48.935,194.798l-398.5,39.561L0.241,345.275z"/>
<path style="fill:#3B8BC0;" d="M469.602,400.741h-61.804v24.265h61.804c6.7,0,12.133-5.432,12.133-12.133
	C481.735,406.173,476.302,400.741,469.602,400.741z"/>
<polygon style="fill:#174461;" points="444.196,445.603 73.974,445.603 38.013,380.144 444.196,380.144 "/>
<path style="fill:#4EB9FF;" d="M391.918,120.673L0.241,345.275l36.745,50.164l36.987-15.294
	c45.001-10.825,94.166-30.241,142.217-57.983c68.43-39.508,122.95-88.673,156.483-136.816l42.449-24.481L391.918,120.673z"/>
<path style="fill:#174461;" d="M508.888,79.935c-6.407-11.098-20.599-14.901-31.698-8.493l-85.272,49.232l23.204,40.191
	l85.272-49.232C511.493,105.225,515.295,91.033,508.888,79.935z"/>
<g>
	<path style="fill:#3B8BC0;" d="M429.726,198.273c-4.194,0-8.271-2.175-10.519-6.068l-37.796-65.464
		c-3.351-5.803-1.362-13.223,4.441-16.573c5.803-3.35,13.223-1.363,16.573,4.441l37.796,65.464
		c3.351,5.803,1.362,13.223-4.441,16.573C433.87,197.749,431.785,198.273,429.726,198.273z"/>
	<polygon style="fill:#3B8BC0;" points="73.974,445.603 0,445.603 0.241,345.275 73.974,380.144 	"/>
</g>
<g>
</g>
<g>
</g>
<g>
</g>
<g>
</g>
<g>
</g>
<g>
</g>
<g>
</g>
<g>
</g>
<g>
</g>
<g>
</g>
<g>
</g>
<g>
</g>
<g>
</g>
<g>
</g>
<g>
</g>
</svg>
