<?xml version="1.0" encoding="iso-8859-1"?>
<!-- Generator: Adobe Illustrator 19.0.0, SVG Export Plug-In . SVG Version: 6.00 Build 0)  -->
<svg version="1.1" id="Layer_1" xmlns="http://www.w3.org/2000/svg" xmlns:xlink="http://www.w3.org/1999/xlink" x="0px" y="0px"
	 viewBox="0 0 512.001 512.001" style="enable-background:new 0 0 512.001 512.001;" xml:space="preserve">
<path style="fill:#FF9356;" d="M79.784,0.136L0,79.381l82.099,82.099l23.516-6.541l-6.541,23.516l33.12,33.12l23.515-6.541
	l-6.539,23.516l134.148,134.147l23.517-6.539l-6.539,23.516l33.12,33.12l23.515-6.541l-6.541,23.515l82.099,82.099l79.514-79.514
	L79.784,0.136z M89.47,87.869c-4.687,4.687-12.288,4.687-16.975,0c-4.687-4.687-4.687-12.288,0-16.975
	c4.687-4.687,12.288-4.687,16.975,0S94.157,83.18,89.47,87.869z M423.998,439.372c-4.687-4.687-4.687-12.288,0-16.975
	c4.687-4.687,12.288-4.687,16.975,0c4.687,4.687,4.687,12.288,0,16.975C436.286,444.061,428.687,444.061,423.998,439.372z"/>
<g>
	<path style="fill:#FF755C;" d="M390.878,372.302c-4.687-4.687-12.288-4.687-16.975,0l-40.49,40.491l16.976,16.975l40.49-40.491
		C395.567,384.59,395.566,376.989,390.878,372.302z"/>
	<path style="fill:#FF755C;" d="M340.784,322.207c-4.687-4.687-12.288-4.687-16.976,0l-40.491,40.491l16.976,16.976l40.491-40.491
		C345.472,334.495,345.472,326.894,340.784,322.207z"/>
	<path style="fill:#FF755C;" d="M172.684,171.084l-40.49,40.491l16.976,16.975l40.49-40.491c4.687-4.687,4.687-12.288,0-16.975
		C184.973,166.396,177.372,166.395,172.684,171.084z"/>
	<path style="fill:#FF755C;" d="M139.565,120.987c-4.687-4.687-12.288-4.687-16.976,0l-40.491,40.491l16.976,16.976l40.491-40.491
		C144.252,133.276,144.252,125.676,139.565,120.987z"/>
</g>
<polygon style="fill:#174461;" points="60.286,479.567 0.929,510.932 32.294,451.575 63.265,448.595 "/>
<polygon style="fill:#FFEBB4;" points="77.031,366.927 32.294,451.575 60.286,479.567 144.934,434.83 "/>
<path style="fill:#FF755C;" d="M496.887,14.974c18.725,18.725,18.725,49.178,0,67.903l-34.39,34.39l-59.216-8.291l-8.687-59.613
	l34.39-34.39C447.708-3.751,478.161-3.751,496.887,14.974z"/>
<path style="fill:#FFB14E;" d="M420.065,159.712L144.934,434.83l-55.696-12.207L386.107,91.803
	C386.107,91.803,420.053,159.7,420.065,159.712z"/>
<polygon style="fill:#FFCE47;" points="403.082,108.779 89.238,422.622 77.031,366.927 352.161,91.808 "/>
<path style="fill:#174461;" d="M394.593,49.364l-42.432,42.444l67.891,67.891c0.012,0.012,42.444-42.432,42.444-42.432
	L394.593,49.364z"/>
<g>
</g>
<g>
</g>
<g>
</g>
<g>
</g>
<g>
</g>
<g>
</g>
<g>
</g>
<g>
</g>
<g>
</g>
<g>
</g>
<g>
</g>
<g>
</g>
<g>
</g>
<g>
</g>
<g>
</g>
</svg>
