<?xml version="1.0" encoding="iso-8859-1"?>
<!-- Generator: Adobe Illustrator 19.0.0, SVG Export Plug-In . SVG Version: 6.00 Build 0)  -->
<svg version="1.1" id="Layer_1" xmlns="http://www.w3.org/2000/svg" xmlns:xlink="http://www.w3.org/1999/xlink" x="0px" y="0px"
	 viewBox="0 0 512 512" style="enable-background:new 0 0 512 512;" xml:space="preserve">
<path style="fill:#FF4181;" d="M402.445,36.727l-75.184-17.886c0,0-20.956,36.891-71.261,36.891s-71.261-36.891-71.261-36.891
	l-75.184,17.886L0,134.937l54.638,84.596l54.916-25.735v299.36h292.891V193.8l54.916,25.735L512,134.937L402.445,36.727z"/>
<g>
	<path style="fill:#FFFFFF;" d="M326.036,357.308h-7.28c-6.701,0-12.133-5.432-12.133-12.133c0-5.25,3.335-9.721,8.002-11.411
		c1.69-4.666,6.161-8.002,11.411-8.002c6.701,0,12.133,5.432,12.133,12.133v7.28C338.169,351.876,332.737,357.308,326.036,357.308z"
		/>
	<path style="fill:#FFFFFF;" d="M284.702,357.308h-11.675c-6.701,0-12.133-5.432-12.133-12.133c0-6.701,5.432-12.133,12.133-12.133
		h11.675c6.701,0,12.133,5.432,12.133,12.133C296.835,351.876,291.403,357.308,284.702,357.308z M238.973,357.308h-11.675
		c-6.701,0-12.133-5.432-12.133-12.133c0-6.701,5.432-12.133,12.133-12.133h11.675c6.701,0,12.133,5.432,12.133,12.133
		C251.106,351.876,245.674,357.308,238.973,357.308z"/>
	<path style="fill:#FFFFFF;" d="M193.244,357.308h-7.28c-6.701,0-12.133-5.432-12.133-12.133v-7.28
		c0-6.701,5.432-12.133,12.133-12.133c5.25,0,9.721,3.335,11.411,8.002c4.666,1.69,8.002,6.161,8.002,11.411
		C205.376,351.876,199.945,357.308,193.244,357.308z"/>
	<path style="fill:#FFFFFF;" d="M185.964,312.631c-6.701,0-12.133-5.432-12.133-12.133v-12.822c0-6.701,5.432-12.133,12.133-12.133
		c6.701,0,12.133,5.432,12.133,12.133v12.822C198.097,307.199,192.665,312.631,185.964,312.631z M185.964,262.411
		c-6.701,0-12.133-5.432-12.133-12.133v-12.822c0-6.701,5.432-12.133,12.133-12.133c6.701,0,12.133,5.432,12.133,12.133v12.822
		C198.097,256.979,192.665,262.411,185.964,262.411z M185.964,212.191c-6.701,0-12.133-5.432-12.133-12.133v-12.822
		c0-6.701,5.432-12.133,12.133-12.133c6.701,0,12.133,5.432,12.133,12.133v12.822C198.097,206.759,192.665,212.191,185.964,212.191z
		"/>
	<path style="fill:#FFFFFF;" d="M185.964,161.972c-6.701,0-12.133-5.432-12.133-12.133v-7.28c0-6.701,5.432-12.133,12.133-12.133
		h7.28c6.701,0,12.133,5.432,12.133,12.133c0,5.25-3.335,9.721-8.002,11.411C195.686,158.636,191.215,161.972,185.964,161.972z"/>
	<path style="fill:#FFFFFF;" d="M284.702,154.692h-11.675c-6.701,0-12.133-5.432-12.133-12.133c0-6.701,5.432-12.133,12.133-12.133
		h11.675c6.701,0,12.133,5.432,12.133,12.133C296.835,149.26,291.403,154.692,284.702,154.692z M238.973,154.692h-11.675
		c-6.701,0-12.133-5.432-12.133-12.133c0-6.701,5.432-12.133,12.133-12.133h11.675c6.701,0,12.133,5.432,12.133,12.133
		C251.106,149.26,245.674,154.692,238.973,154.692z"/>
	<path style="fill:#FFFFFF;" d="M326.036,161.972c-5.25,0-9.721-3.335-11.411-8.002c-4.666-1.69-8.002-6.161-8.002-11.411
		c0-6.701,5.432-12.133,12.133-12.133h7.28c6.701,0,12.133,5.432,12.133,12.133v7.28
		C338.169,156.54,332.737,161.972,326.036,161.972z"/>
	<path style="fill:#FFFFFF;" d="M326.036,312.631c-6.701,0-12.133-5.432-12.133-12.133v-12.822c0-6.701,5.432-12.133,12.133-12.133
		s12.133,5.432,12.133,12.133v12.822C338.169,307.199,332.737,312.631,326.036,312.631z M326.036,262.412
		c-6.701,0-12.133-5.432-12.133-12.133v-12.822c0-6.701,5.432-12.133,12.133-12.133s12.133,5.432,12.133,12.133v12.822
		C338.169,256.98,332.737,262.412,326.036,262.412z M326.036,212.192c-6.701,0-12.133-5.432-12.133-12.133v-12.822
		c0-6.701,5.432-12.133,12.133-12.133s12.133,5.432,12.133,12.133v12.822C338.169,206.761,332.737,212.192,326.036,212.192z"/>
</g>
<g>
</g>
<g>
</g>
<g>
</g>
<g>
</g>
<g>
</g>
<g>
</g>
<g>
</g>
<g>
</g>
<g>
</g>
<g>
</g>
<g>
</g>
<g>
</g>
<g>
</g>
<g>
</g>
<g>
</g>
</svg>
