<?xml version="1.0" encoding="iso-8859-1"?>
<!-- Generator: Adobe Illustrator 19.0.0, SVG Export Plug-In . SVG Version: 6.00 Build 0)  -->
<svg version="1.1" id="Layer_1" xmlns="http://www.w3.org/2000/svg" xmlns:xlink="http://www.w3.org/1999/xlink" x="0px" y="0px"
	 viewBox="0 0 512 512" style="enable-background:new 0 0 512 512;" xml:space="preserve">
<path style="fill:#3B8BC0;" d="M178.957,444.057L20.019,468.322c0,24.023,19.655,43.678,43.678,43.678h230.521
	c24.023,0,43.678-19.655,43.678-43.678L178.957,444.057z"/>
<path style="fill:#4EB9FF;" d="M350.028,60.664V0H7.886v468.322h342.142v-99.488c85.099,0,154.085-68.987,154.085-154.085
	S435.127,60.664,350.028,60.664z M350.028,320.303V109.194c58.296,0,105.555,47.258,105.555,105.555
	S408.325,320.303,350.028,320.303z"/>
<g>
	<path style="fill:#FFFFFF;" d="M260.246,363.981h-7.28c-6.701,0-12.133-5.433-12.133-12.133c0-5.25,3.335-9.722,8.002-11.411
		c1.69-4.667,6.161-8.002,11.411-8.002c6.701,0,12.133,5.433,12.133,12.133v7.28C272.379,358.548,266.947,363.981,260.246,363.981z"
		/>
	<path style="fill:#FFFFFF;" d="M212.806,363.981h-13.769c-6.701,0-12.133-5.433-12.133-12.133s5.432-12.133,12.133-12.133h13.769
		c6.701,0,12.133,5.433,12.133,12.133S219.507,363.981,212.806,363.981z M158.877,363.981h-13.769
		c-6.701,0-12.133-5.433-12.133-12.133s5.432-12.133,12.133-12.133h13.769c6.701,0,12.133,5.433,12.133,12.133
		S165.577,363.981,158.877,363.981z"/>
	<path style="fill:#FFFFFF;" d="M104.948,363.981h-7.28c-6.701,0-12.133-5.433-12.133-12.133v-7.28
		c0-6.7,5.432-12.133,12.133-12.133c5.25,0,9.721,3.334,11.411,8.002c4.666,1.69,8.002,6.161,8.002,11.411
		C117.081,358.548,111.649,363.981,104.948,363.981z"/>
	<path style="fill:#FFFFFF;" d="M97.668,312.79c-6.701,0-12.133-5.433-12.133-12.133v-15.055c0-6.7,5.432-12.133,12.133-12.133
		s12.133,5.433,12.133,12.133v15.055C109.801,307.357,104.369,312.79,97.668,312.79z M97.668,253.821
		c-6.701,0-12.133-5.433-12.133-12.133v-15.055c0-6.7,5.432-12.133,12.133-12.133s12.133,5.433,12.133,12.133v15.055
		C109.801,248.389,104.369,253.821,97.668,253.821z M97.668,194.855c-6.701,0-12.133-5.433-12.133-12.133v-15.055
		c0-6.7,5.432-12.133,12.133-12.133s12.133,5.433,12.133,12.133v15.055C109.801,189.422,104.369,194.855,97.668,194.855z"/>
	<path style="fill:#FFFFFF;" d="M97.668,135.886c-6.701,0-12.133-5.433-12.133-12.133v-7.28c0-6.7,5.432-12.133,12.133-12.133h7.28
		c6.701,0,12.133,5.433,12.133,12.133c0,5.25-3.335,9.722-8.002,11.411C107.389,132.552,102.918,135.886,97.668,135.886z"/>
	<path style="fill:#FFFFFF;" d="M212.806,128.607h-13.769c-6.701,0-12.133-5.433-12.133-12.133s5.432-12.133,12.133-12.133h13.769
		c6.701,0,12.133,5.433,12.133,12.133S219.507,128.607,212.806,128.607z M158.877,128.607h-13.769
		c-6.701,0-12.133-5.433-12.133-12.133s5.432-12.133,12.133-12.133h13.769c6.701,0,12.133,5.433,12.133,12.133
		S165.577,128.607,158.877,128.607z"/>
	<path style="fill:#FFFFFF;" d="M260.246,135.886c-5.25,0-9.721-3.334-11.411-8.002c-4.666-1.69-8.002-6.161-8.002-11.411
		c0-6.7,5.432-12.133,12.133-12.133h7.28c6.701,0,12.133,5.433,12.133,12.133v7.28C272.379,130.453,266.947,135.886,260.246,135.886
		z"/>
	<path style="fill:#FFFFFF;" d="M260.246,312.79c-6.701,0-12.133-5.433-12.133-12.133v-15.055c0-6.7,5.432-12.133,12.133-12.133
		c6.701,0,12.133,5.433,12.133,12.133v15.055C272.379,307.357,266.947,312.79,260.246,312.79z M260.246,253.822
		c-6.701,0-12.133-5.433-12.133-12.133v-15.055c0-6.7,5.432-12.133,12.133-12.133c6.701,0,12.133,5.433,12.133,12.133v15.055
		C272.379,248.39,266.947,253.822,260.246,253.822z M260.246,194.855c-6.701,0-12.133-5.433-12.133-12.133v-15.055
		c0-6.7,5.432-12.133,12.133-12.133c6.701,0,12.133,5.433,12.133,12.133v15.055C272.379,189.422,266.947,194.855,260.246,194.855z"
		/>
</g>
<g>
</g>
<g>
</g>
<g>
</g>
<g>
</g>
<g>
</g>
<g>
</g>
<g>
</g>
<g>
</g>
<g>
</g>
<g>
</g>
<g>
</g>
<g>
</g>
<g>
</g>
<g>
</g>
<g>
</g>
</svg>
