<?xml version="1.0" encoding="iso-8859-1"?>
<!-- Generator: Adobe Illustrator 19.0.0, SVG Export Plug-In . SVG Version: 6.00 Build 0)  -->
<svg version="1.1" id="Layer_1" xmlns="http://www.w3.org/2000/svg" xmlns:xlink="http://www.w3.org/1999/xlink" x="0px" y="0px"
	 viewBox="0 0 512 512" style="enable-background:new 0 0 512 512;" xml:space="preserve">
<polygon style="fill:#FF4181;" points="0,330.616 0,365.801 111.621,394.919 135.886,348.209 111.621,301.498 "/>
<g>
	<polygon style="fill:#FF80AB;" points="111.621,292.398 111.621,404.019 172.22,404.019 196.485,348.209 172.22,292.398 	"/>
	<polygon style="fill:#FF80AB;" points="512,292.398 451.401,292.398 427.135,348.209 451.401,404.019 512,404.019 	"/>
</g>
<rect x="172.224" y="292.398" style="fill:#FF4181;" width="279.173" height="111.621"/>
<polygon style="fill:#85C250;" points="512,181.384 512,146.199 400.379,117.081 376.114,163.791 400.379,210.502 "/>
<g>
	<polygon style="fill:#C9D467;" points="400.379,219.602 400.379,107.981 339.78,107.981 315.515,163.791 339.78,219.602 	"/>
	<polygon style="fill:#C9D467;" points="0,219.602 60.599,219.602 84.865,163.791 60.599,107.981 0,107.981 	"/>
</g>
<rect x="60.599" y="107.981" style="fill:#85C250;" width="279.173" height="111.621"/>
<g>
</g>
<g>
</g>
<g>
</g>
<g>
</g>
<g>
</g>
<g>
</g>
<g>
</g>
<g>
</g>
<g>
</g>
<g>
</g>
<g>
</g>
<g>
</g>
<g>
</g>
<g>
</g>
<g>
</g>
</svg>
