<?xml version="1.0" encoding="iso-8859-1"?>
<!-- Generator: Adobe Illustrator 19.0.0, SVG Export Plug-In . SVG Version: 6.00 Build 0)  -->
<svg version="1.1" id="Layer_1" xmlns="http://www.w3.org/2000/svg" xmlns:xlink="http://www.w3.org/1999/xlink" x="0px" y="0px"
	 viewBox="0 0 512 512" style="enable-background:new 0 0 512 512;" xml:space="preserve">
<polygon style="fill:#3B8BC0;" points="61.9,5.766 37.634,480.13 512,455.865 512,5.766 "/>
<g>
	<polygon style="fill:#9AD7FF;" points="0,5.766 0,455.865 30.951,480.13 61.9,455.865 61.9,5.766 	"/>
	<path style="fill:#9AD7FF;" d="M450.448,230.816c0-90.298-73.2-163.498-163.498-163.498c-45.148,0-86.023,18.3-115.61,47.888
		l73.155,98.886l-121.042,16.724c0,90.298,73.2,163.498,163.498,163.498c45.148,0,86.023-18.3,115.61-47.887l-73.155-98.888
		L450.448,230.816z"/>
</g>
<g>
	<path style="fill:#FFFFFF;" d="M171.339,115.205c-29.587,29.587-47.888,70.462-47.888,115.61h163.499L171.339,115.205z"/>
	<path style="fill:#FFFFFF;" d="M286.951,230.816l115.61,115.61c29.587-29.587,47.888-70.462,47.888-115.61H286.951z"/>
</g>
<polygon style="fill:#9AD7FF;" points="512,455.865 61.9,455.865 49.767,481.046 61.9,506.228 512,506.228 "/>
<g>
	<rect y="455.871" style="fill:#4EB9FF;" width="61.901" height="50.363"/>
	<circle style="fill:#4EB9FF;" cx="286.951" cy="230.822" r="69.884"/>
</g>
<circle style="fill:#3B8BC0;" cx="286.951" cy="230.822" r="27.716"/>
<g>
</g>
<g>
</g>
<g>
</g>
<g>
</g>
<g>
</g>
<g>
</g>
<g>
</g>
<g>
</g>
<g>
</g>
<g>
</g>
<g>
</g>
<g>
</g>
<g>
</g>
<g>
</g>
<g>
</g>
</svg>
