<?xml version="1.0" encoding="iso-8859-1"?>
<!-- Generator: Adobe Illustrator 19.0.0, SVG Export Plug-In . SVG Version: 6.00 Build 0)  -->
<svg version="1.1" id="Layer_1" xmlns="http://www.w3.org/2000/svg" xmlns:xlink="http://www.w3.org/1999/xlink" x="0px" y="0px"
	 viewBox="0 0 512 512" style="enable-background:new 0 0 512 512;" xml:space="preserve">
<path style="fill:#174461;" d="M500.416,244.416h-216.45l86.796-86.796c4.523-4.523,4.523-11.858,0-16.383
	c-4.525-4.522-11.857-4.522-16.383,0l-86.796,86.796V11.584C267.584,5.187,262.397,0,256,0c-6.398,0-11.584,5.187-11.584,11.584
	v216.45l-86.796-86.796c-4.523-4.522-11.858-4.522-16.383,0c-4.523,4.523-4.523,11.858,0,16.383l86.796,86.796H11.584
	C5.186,244.416,0,249.603,0,256c0,6.397,5.186,11.584,11.584,11.584h216.45l-86.796,86.796c-4.523,4.523-4.523,11.858,0,16.383
	c2.262,2.261,5.227,3.393,8.191,3.393c2.964,0,5.93-1.132,8.191-3.393l86.797-86.796v216.45c0,6.397,5.186,11.584,11.584,11.584
	c6.397,0,11.584-5.187,11.584-11.584v-216.45l86.796,86.796c2.262,2.26,5.225,3.392,8.191,3.392s5.929-1.132,8.191-3.393
	c4.523-4.523,4.523-11.858,0-16.383l-86.794-86.794h216.45c6.397,0,11.584-5.187,11.584-11.584
	C512,249.603,506.813,244.416,500.416,244.416z"/>
<circle style="fill:#3B8BC0;" cx="256" cy="256" r="116.636"/>
<path style="fill:#4EB9FF;" d="M346.253,182.13c-4.906-5.986-10.395-11.476-16.383-16.383l-62.287,62.287V139.94
	c-3.811-0.376-7.674-0.572-11.584-0.572c-3.909,0-7.773,0.196-11.584,0.572v88.093l-62.288-62.287
	c-5.986,4.906-11.476,10.395-16.383,16.383l62.288,62.287H139.94c-0.375,3.811-0.572,7.674-0.572,11.584
	c0,3.91,0.196,7.773,0.572,11.584h88.093l-62.288,62.287c4.906,5.986,10.395,11.476,16.383,16.383l62.288-62.287v88.093
	c3.811,0.376,7.674,0.572,11.584,0.572c3.91,0,7.773-0.196,11.584-0.572v-88.093l62.288,62.287
	c5.986-4.906,11.476-10.395,16.383-16.383l-62.288-62.287h88.093c0.375-3.811,0.572-7.674,0.572-11.584
	c0-3.909-0.196-7.773-0.572-11.584h-88.093L346.253,182.13z"/>
<g>
</g>
<g>
</g>
<g>
</g>
<g>
</g>
<g>
</g>
<g>
</g>
<g>
</g>
<g>
</g>
<g>
</g>
<g>
</g>
<g>
</g>
<g>
</g>
<g>
</g>
<g>
</g>
<g>
</g>
</svg>
