<?xml version="1.0" encoding="iso-8859-1"?>
<!-- Generator: Adobe Illustrator 19.0.0, SVG Export Plug-In . SVG Version: 6.00 Build 0)  -->
<svg version="1.1" id="Layer_1" xmlns="http://www.w3.org/2000/svg" xmlns:xlink="http://www.w3.org/1999/xlink" x="0px" y="0px"
	 viewBox="0 0 512 512" style="enable-background:new 0 0 512 512;" xml:space="preserve">
<polygon style="fill:#FF4181;" points="512,16.511 495.488,0 438.821,26.557 436.395,75.605 485.442,73.178 "/>
<rect x="367.305" y="56.177" transform="matrix(-0.7071 0.7071 -0.7071 -0.7071 784.8785 -146.8242)" style="fill:#FF755C;" width="111.086" height="65.928"/>
<rect x="310.676" y="97.288" transform="matrix(-0.7071 -0.7071 0.7071 -0.7071 523.9755 507.0244)" style="fill:#FF4181;" width="112.639" height="95.411"/>
<path style="fill:#FFD86C;" d="M403.777,283.846c19.03-19.03,19.03-49.885,0-68.915L297.069,108.222
	c-19.03-19.03-49.885-19.03-68.915,0L14.273,322.104c-19.03,19.03-19.03,49.885,0,68.915l106.708,106.708
	c19.03,19.03,49.885,19.03,68.915,0L403.777,283.846z"/>
<rect x="164.097" y="171.99" transform="matrix(-0.7071 -0.7071 0.7071 -0.7071 184.9461 647.4658)" style="fill:#FF755C;" width="124.941" height="226.879"/>
<g>
</g>
<g>
</g>
<g>
</g>
<g>
</g>
<g>
</g>
<g>
</g>
<g>
</g>
<g>
</g>
<g>
</g>
<g>
</g>
<g>
</g>
<g>
</g>
<g>
</g>
<g>
</g>
<g>
</g>
</svg>
