<?xml version="1.0" encoding="iso-8859-1"?>
<!-- Generator: Adobe Illustrator 19.0.0, SVG Export Plug-In . SVG Version: 6.00 Build 0)  -->
<svg version="1.1" id="Layer_1" xmlns="http://www.w3.org/2000/svg" xmlns:xlink="http://www.w3.org/1999/xlink" x="0px" y="0px"
	 viewBox="0 0 512 512" style="enable-background:new 0 0 512 512;" xml:space="preserve">
<path style="fill:#FFE290;" d="M501.414,53.569L458.43,10.586c-14.114-14.114-36.997-14.114-51.11,0L352.186,65.72l94.095,94.095
	l55.135-55.135C515.528,90.567,515.528,67.683,501.414,53.569z"/>
<rect x="297.625" y="67.779" transform="matrix(-0.7071 0.7071 -0.7071 -0.7071 729.2298 -12.4515)" style="fill:#FF755C;" width="139.136" height="154.047"/>
<polygon style="fill:#3B8BC0;" points="110.722,326.032 40.93,430.14 81.859,471.07 185.968,401.278 "/>
<g>
	<polygon style="fill:#174461;" points="69.792,319.419 0,389.211 40.93,430.14 127.88,343.19 	"/>
	<polygon style="fill:#174461;" points="168.81,384.12 81.859,471.07 122.789,512 192.581,442.208 	"/>
</g>
<rect x="88.942" y="192.002" transform="matrix(-0.7071 0.7071 -0.7071 -0.7071 595.21 311.1014)" style="fill:#FF4181;" width="288.464" height="173.642"/>
<g>
</g>
<g>
</g>
<g>
</g>
<g>
</g>
<g>
</g>
<g>
</g>
<g>
</g>
<g>
</g>
<g>
</g>
<g>
</g>
<g>
</g>
<g>
</g>
<g>
</g>
<g>
</g>
<g>
</g>
</svg>
