<?xml version="1.0" encoding="iso-8859-1"?>
<!-- Generator: Adobe Illustrator 19.0.0, SVG Export Plug-In . SVG Version: 6.00 Build 0)  -->
<svg version="1.1" id="Layer_1" xmlns="http://www.w3.org/2000/svg" xmlns:xlink="http://www.w3.org/1999/xlink" x="0px" y="0px"
	 viewBox="0 0 512 512" style="enable-background:new 0 0 512 512;" xml:space="preserve">
<rect x="312.429" y="310.694" style="fill:#4EB9FF;" width="133.896" height="67.939"/>
<path style="fill:#FF755C;" d="M432.164,23.718H326.598c-16.033,0-29.031,12.998-29.031,29.031v93.984h163.629V52.749
	C461.196,36.716,448.199,23.718,432.164,23.718z"/>
<path style="fill:#FFCE47;" d="M512,334.955V151.497c0-16.033-12.998-29.031-29.031-29.031L96.33,122.471
	c-53.202,0-96.33,43.128-96.33,96.33v203.502l246.763,24.265V334.955H512z"/>
<path style="fill:#FFB14E;" d="M0,459.251c0,16.033,12.998,29.031,29.031,29.031h453.938c16.033,0,29.031-12.998,29.031-29.031
	v-36.948H0V459.251z"/>
<g>
</g>
<g>
</g>
<g>
</g>
<g>
</g>
<g>
</g>
<g>
</g>
<g>
</g>
<g>
</g>
<g>
</g>
<g>
</g>
<g>
</g>
<g>
</g>
<g>
</g>
<g>
</g>
<g>
</g>
</svg>
