<?xml version="1.0" encoding="iso-8859-1"?>
<!-- Generator: Adobe Illustrator 19.0.0, SVG Export Plug-In . SVG Version: 6.00 Build 0)  -->
<svg version="1.1" id="Layer_1" xmlns="http://www.w3.org/2000/svg" xmlns:xlink="http://www.w3.org/1999/xlink" x="0px" y="0px"
	 viewBox="0 0 512 512" style="enable-background:new 0 0 512 512;" xml:space="preserve">
<path style="fill:#FFC0D5;" d="M365.561,198.854l-52.413-52.413L52.197,407.39c-10.212,10.212-13.466,24.667-9.561,37.459L0,487.484
	L24.516,512l42.635-42.635c12.792,3.905,27.247,0.65,37.459-9.562L365.561,198.854z"/>
<path style="fill:#FF4181;" d="M499.744,12.256c-16.341-16.341-42.836-16.341-59.177,0
	c-16.342,16.342-105.441,105.441-105.441,105.441l59.177,59.178c0,0,89.099-89.099,105.441-105.441
	C516.085,55.092,516.086,28.598,499.744,12.256z"/>
<path style="fill:#FF755C;" d="M434.46,233.937l-33.815,33.815L244.248,111.357l33.815-33.815c13.949-13.949,36.774-13.949,50.723,0
	l105.673,105.673C448.408,197.163,448.408,219.989,434.46,233.937z"/>
<path style="fill:#FF4181;" d="M229.453,282.548c-5.136-5.136-13.463-5.136-18.598,0L70.015,423.387
	c-5.136,5.136-5.136,13.463,0,18.598c5.136,5.136,13.463,5.136,18.598,0l140.839-140.839
	C234.589,296.011,234.589,287.684,229.453,282.548z"/>
<g>
</g>
<g>
</g>
<g>
</g>
<g>
</g>
<g>
</g>
<g>
</g>
<g>
</g>
<g>
</g>
<g>
</g>
<g>
</g>
<g>
</g>
<g>
</g>
<g>
</g>
<g>
</g>
<g>
</g>
</svg>
