<?xml version="1.0" encoding="iso-8859-1"?>
<!-- Generator: Adobe Illustrator 19.0.0, SVG Export Plug-In . SVG Version: 6.00 Build 0)  -->
<svg version="1.1" id="Layer_1" xmlns="http://www.w3.org/2000/svg" xmlns:xlink="http://www.w3.org/1999/xlink" x="0px" y="0px"
	 viewBox="0 0 512 512" style="enable-background:new 0 0 512 512;" xml:space="preserve">
<rect x="41.858" y="112.834" style="fill:#FF80AB;" width="428.284" height="97.062"/>
<path style="fill:#FF4181;" d="M29.725,185.63v277.839c0,26.692,21.839,48.531,48.531,48.531h355.488
	c26.692,0,48.531-21.839,48.531-48.531V185.63H29.725z"/>
<polygon style="fill:#FFD86C;" points="17.592,0 17.592,137.1 112.955,137.1 125.086,68.55 112.955,0 "/>
<polygon style="fill:#FFCE47;" points="112.955,0 112.955,137.1 208.318,137.1 220.449,68.55 208.318,0 "/>
<polygon style="fill:#FFD86C;" points="208.318,0 208.318,137.1 303.682,137.1 315.812,68.55 303.682,0 "/>
<polygon style="fill:#FFCE47;" points="303.682,0 303.682,137.1 399.045,137.1 411.175,68.55 399.045,0 "/>
<rect x="399.045" style="fill:#FFD86C;" width="95.363" height="137.1"/>
<path style="fill:#FFC0D5;" d="M293.331,253.023c0,0-10.978,19.326-37.331,19.326s-37.331-19.326-37.331-19.326l-80.118,38.108
	l18.963,49.795l35.617-8.352v111.49h125.738v-111.49l35.617,8.352l18.963-49.795L293.331,253.023z"/>
<g>
</g>
<g>
</g>
<g>
</g>
<g>
</g>
<g>
</g>
<g>
</g>
<g>
</g>
<g>
</g>
<g>
</g>
<g>
</g>
<g>
</g>
<g>
</g>
<g>
</g>
<g>
</g>
<g>
</g>
</svg>
