<?xml version="1.0" encoding="iso-8859-1"?>
<!-- Generator: Adobe Illustrator 19.0.0, SVG Export Plug-In . SVG Version: 6.00 Build 0)  -->
<svg version="1.1" id="Layer_1" xmlns="http://www.w3.org/2000/svg" xmlns:xlink="http://www.w3.org/1999/xlink" x="0px" y="0px"
	 viewBox="0 0 512 512" style="enable-background:new 0 0 512 512;" xml:space="preserve">
<path style="fill:#FFCE47;" d="M494.311,321.972c21.596,37.575,23.513,77.249,5.229,108.842
	c-18.272,31.581-53.614,49.696-96.965,49.696H241.781l47.948-53.02l-47.948-53.008h160.419l-65.941-114.715l21.972-68.162
	l69.763,14.996L494.311,321.972z"/>
<path style="fill:#85C250;" d="M241.781,374.482l47.948,53.008l-47.948,53.02H109.425c-43.35,0-78.693-18.114-96.965-49.696
	c-18.284-31.594-16.367-71.267,5.229-108.842l80.986-140.897l21.984,68.149l69.763-14.984l-80.622,140.242H241.781z"/>
<path style="fill:#C9D467;" d="M347.432,66.445l80.561,140.157l-69.763-14.996l-21.972,68.162L256,120.144L190.423,234.24
	l-69.763,14.984l-21.984-68.149l65.893-114.63C186.201,28.809,219.529,7.225,256,7.225S325.8,28.809,347.432,66.445z"/>
<path style="fill:#85C250;" d="M230.801,504.775c-2.902,0-5.813-1.035-8.135-3.134c-4.97-4.495-5.354-12.167-0.86-17.137
	l51.562-57.008l-51.562-57.008c-4.494-4.97-4.109-12.642,0.86-17.137s12.643-4.109,17.136,0.859l58.922,65.147
	c4.178,4.621,4.178,11.656,0,16.277l-58.921,65.147C237.407,503.428,234.109,504.775,230.801,504.775z"/>
<path style="fill:#FFCE47;" d="M331.229,287.493c-1.234,0-2.488-0.19-3.726-0.588c-6.377-2.056-9.88-8.893-7.823-15.27
	l27.004-83.745c1.912-5.929,8.005-9.449,14.096-8.139l85.736,18.424c6.552,1.407,10.722,7.86,9.313,14.411
	c-1.407,6.55-7.861,10.722-14.41,9.313l-75.007-16.118l-23.636,73.301C341.116,284.22,336.354,287.493,331.229,287.493z"/>
<path style="fill:#C9D467;" d="M120.648,261.358c-5.166,0-9.897-3.315-11.541-8.412l-27.005-83.745
	c-2.055-6.377,1.446-13.214,7.823-15.27c6.381-2.055,13.215,1.447,15.271,7.824l23.636,73.302l75.013-16.12
	c6.55-1.403,13.004,2.761,14.41,9.313c1.409,6.552-2.76,13.004-9.313,14.411l-85.741,18.425
	C122.348,261.269,121.491,261.358,120.648,261.358z"/>
<g>
</g>
<g>
</g>
<g>
</g>
<g>
</g>
<g>
</g>
<g>
</g>
<g>
</g>
<g>
</g>
<g>
</g>
<g>
</g>
<g>
</g>
<g>
</g>
<g>
</g>
<g>
</g>
<g>
</g>
</svg>
