<?xml version="1.0" encoding="iso-8859-1"?>
<!-- Generator: Adobe Illustrator 19.0.0, SVG Export Plug-In . SVG Version: 6.00 Build 0)  -->
<svg version="1.1" id="Layer_1" xmlns="http://www.w3.org/2000/svg" xmlns:xlink="http://www.w3.org/1999/xlink" x="0px" y="0px"
	 viewBox="0 0 512 512" style="enable-background:new 0 0 512 512;" xml:space="preserve">
<path style="fill:#174461;" d="M493.154,95.753v305.717l-237.155,22.479L18.844,401.469V95.753c0-6.182,5.058-11.24,11.24-11.24
	h451.831C488.096,84.513,493.154,89.571,493.154,95.753z"/>
<path style="fill:#3B8BC0;" d="M493.154,401.469v33.719c0,6.182-5.058,11.24-11.24,11.24H30.083c-6.182,0-11.24-5.058-11.24-11.24
	v-33.719H493.154z"/>
<g>
	<path style="fill:#9AD7FF;" d="M11.241,290.366c-2.927,0-5.849-1.135-8.053-3.397c-4.332-4.448-4.237-11.563,0.209-15.894
		L211.105,68.763c4.449-4.331,11.563-4.236,15.894,0.209c4.332,4.447,4.237,11.563-0.209,15.894L19.082,287.179
		C16.898,289.306,14.068,290.366,11.241,290.366z"/>
	<path style="fill:#9AD7FF;" d="M500.76,290.364c-2.827,0-5.656-1.06-7.842-3.188L285.211,84.864
		c-4.446-4.332-4.54-11.448-0.209-15.894c4.331-4.446,11.446-4.542,15.894-0.209l207.707,202.312
		c4.446,4.332,4.54,11.448,0.209,15.894C506.609,289.229,503.686,290.364,500.76,290.364z"/>
</g>
<g>
</g>
<g>
</g>
<g>
</g>
<g>
</g>
<g>
</g>
<g>
</g>
<g>
</g>
<g>
</g>
<g>
</g>
<g>
</g>
<g>
</g>
<g>
</g>
<g>
</g>
<g>
</g>
<g>
</g>
</svg>
