<?xml version="1.0" encoding="iso-8859-1"?>
<!-- Generator: Adobe Illustrator 19.0.0, SVG Export Plug-In . SVG Version: 6.00 Build 0)  -->
<svg version="1.1" id="Layer_1" xmlns="http://www.w3.org/2000/svg" xmlns:xlink="http://www.w3.org/1999/xlink" x="0px" y="0px"
	 viewBox="0 0 511.999 511.999" style="enable-background:new 0 0 511.999 511.999;" xml:space="preserve">
<path style="fill:#3B8BC0;" d="M111.765,430.952c0,0,9.081,60.121,10.703,70.856c0.84,5.564,4.563,10.19,10.19,10.19h246.683
	c5.628,0,9.35-4.626,10.19-10.19c1.774-11.746,10.703-70.856,10.703-70.856l-144.235-59.259L111.765,430.952z"/>
<path style="fill:#174461;" d="M299.989,0H212.01c-18.377,0-33.329,14.951-33.329,33.329v50.715h23.704V33.329
	c0-5.307,4.318-9.625,9.625-9.625h87.979c5.307,0,9.625,4.319,9.625,9.625v50.715h23.704V33.329C333.317,14.951,318.366,0,299.989,0
	z"/>
<rect x="99.223" y="128.794" style="fill:#85C250;" width="313.553" height="302.163"/>
<rect x="99.223" y="60.34" style="fill:#3B8BC0;" width="313.553" height="68.449"/>
<path style="fill:#174461;" d="M423.478,140.863H88.521c-6.546,0-11.852-5.307-11.852-11.852c0-6.545,5.306-11.852,11.852-11.852
	h334.957c6.546,0,11.852,5.307,11.852,11.852C435.33,135.556,430.024,140.863,423.478,140.863z"/>
<g>
</g>
<g>
</g>
<g>
</g>
<g>
</g>
<g>
</g>
<g>
</g>
<g>
</g>
<g>
</g>
<g>
</g>
<g>
</g>
<g>
</g>
<g>
</g>
<g>
</g>
<g>
</g>
<g>
</g>
</svg>
