<?xml version="1.0" encoding="iso-8859-1"?>
<!-- Generator: Adobe Illustrator 19.0.0, SVG Export Plug-In . SVG Version: 6.00 Build 0)  -->
<svg version="1.1" id="Layer_1" xmlns="http://www.w3.org/2000/svg" xmlns:xlink="http://www.w3.org/1999/xlink" x="0px" y="0px"
	 viewBox="0 0 512 512" style="enable-background:new 0 0 512 512;" xml:space="preserve">
<polygon style="fill:#FFCE47;" points="207.615,98.488 0,306.102 29.415,335.516 150.38,248.867 237.028,127.901 "/>
<polygon style="fill:#FFB14E;" points="237.028,127.901 29.415,335.516 58.828,364.931 179.793,278.281 266.443,157.316 "/>
<polygon style="fill:#FFCE47;" points="266.443,157.316 58.828,364.931 88.242,394.344 209.208,307.696 295.857,186.73 "/>
<polygon style="fill:#FFB14E;" points="295.857,186.73 88.242,394.344 117.657,423.758 238.622,337.109 325.27,216.144 "/>
<polygon style="fill:#FFCE47;" points="325.27,216.144 117.657,423.758 147.07,453.173 268.036,366.524 354.685,245.558 "/>
<polygon style="fill:#FFB14E;" points="354.685,245.558 147.07,453.173 176.485,482.586 297.45,395.938 384.1,274.971 "/>
<rect x="274.195" y="246.68" transform="matrix(-0.7071 -0.7071 0.7071 -0.7071 225.3542 880.3132)" style="fill:#FFCE47;" width="41.603" height="293.609"/>
<path style="fill:#4EB9FF;" d="M361.438,354.745L157.256,150.563c-4.738-4.738-4.738-12.42,0-17.158
	c4.738-4.738,12.42-4.738,17.158,0l204.182,204.182c4.738,4.738,4.738,12.42,0,17.158
	C373.858,359.483,366.177,359.483,361.438,354.745z"/>
<path style="fill:#FF755C;" d="M499.563,12.438c-16.583-16.583-43.47-16.583-60.054,0L306.533,145.415l-63.486-63.486
	c-9.437-9.437-24.879-9.437-34.316,0l-25.738,25.737l221.342,221.342l25.737-25.737c9.437-9.437,9.437-24.879,0-34.316
	l-63.486-63.486L499.563,72.492C516.146,55.908,516.146,29.021,499.563,12.438z M481.546,54.475c-6.633,6.633-17.389,6.633-24.022,0
	c-6.633-6.633-6.633-17.389,0-24.022c6.633-6.633,17.389-6.633,24.022,0C488.18,37.088,488.18,47.842,481.546,54.475z"/>
<g>
</g>
<g>
</g>
<g>
</g>
<g>
</g>
<g>
</g>
<g>
</g>
<g>
</g>
<g>
</g>
<g>
</g>
<g>
</g>
<g>
</g>
<g>
</g>
<g>
</g>
<g>
</g>
<g>
</g>
</svg>
