<?xml version="1.0" encoding="iso-8859-1"?>
<!-- Generator: Adobe Illustrator 19.0.0, SVG Export Plug-In . SVG Version: 6.00 Build 0)  -->
<svg version="1.1" id="Layer_1" xmlns="http://www.w3.org/2000/svg" xmlns:xlink="http://www.w3.org/1999/xlink" x="0px" y="0px"
	 viewBox="0 0 512 512" style="enable-background:new 0 0 512 512;" xml:space="preserve">
<path style="fill:#3B8BC0;" d="M426.239,512c-6.397,0-11.584-5.187-11.584-11.584V97.345H11.584C5.186,97.345,0,92.158,0,85.761
	c0-6.397,5.186-11.584,11.584-11.584h414.655c6.397,0,11.584,5.187,11.584,11.584v414.655C437.823,506.813,432.635,512,426.239,512z
	"/>
<path style="fill:#4EB9FF;" d="M486.881,25.119c-4.525-4.522-11.857-4.522-16.383,0L77.57,418.048l16.382,16.383l392.929-392.93
	C491.405,36.978,491.405,29.643,486.881,25.119z"/>
<path style="fill:#174461;" d="M500.416,437.823H85.761c-6.398,0-11.584-5.187-11.584-11.584V11.584C74.177,5.187,79.363,0,85.761,0
	c6.398,0,11.584,5.187,11.584,11.584v403.071h403.071c6.397,0,11.584,5.187,11.584,11.584
	C512,432.635,506.813,437.823,500.416,437.823z"/>
<g>
</g>
<g>
</g>
<g>
</g>
<g>
</g>
<g>
</g>
<g>
</g>
<g>
</g>
<g>
</g>
<g>
</g>
<g>
</g>
<g>
</g>
<g>
</g>
<g>
</g>
<g>
</g>
<g>
</g>
</svg>
