<?xml version="1.0" encoding="iso-8859-1"?>
<!-- Generator: Adobe Illustrator 19.0.0, SVG Export Plug-In . SVG Version: 6.00 Build 0)  -->
<svg version="1.1" id="Layer_1" xmlns="http://www.w3.org/2000/svg" xmlns:xlink="http://www.w3.org/1999/xlink" x="0px" y="0px"
	 viewBox="0 0 512 512" style="enable-background:new 0 0 512 512;" xml:space="preserve">
<path style="fill:#174461;" d="M468.854,481.95H43.146c-6.701,0-12.133-5.432-12.133-12.133V43.146
	c0-6.701,5.432-12.133,12.133-12.133h425.707c6.701,0,12.133,5.432,12.133,12.133v426.671
	C480.986,476.518,475.555,481.95,468.854,481.95z M55.279,457.684h401.442V55.279H55.279V457.684z"/>
<g>
	<rect x="425.712" y="425.712" style="fill:#9AD7FF;" width="86.288" height="86.288"/>
	<rect x="425.712" y="212.856" style="fill:#9AD7FF;" width="86.288" height="86.288"/>
	<rect x="212.856" y="425.712" style="fill:#9AD7FF;" width="86.288" height="86.288"/>
	<rect y="425.712" style="fill:#9AD7FF;" width="86.288" height="86.288"/>
	<rect x="212.856" style="fill:#9AD7FF;" width="86.288" height="86.288"/>
	<rect x="425.712" style="fill:#9AD7FF;" width="86.288" height="86.288"/>
	<rect y="212.856" style="fill:#9AD7FF;" width="86.288" height="86.288"/>
	<rect style="fill:#9AD7FF;" width="86.288" height="86.288"/>
</g>
<path style="fill:#174461;" d="M291.185,243.867h-23.052v-23.052c0-6.701-5.432-12.133-12.133-12.133
	c-6.701,0-12.133,5.432-12.133,12.133v23.052h-23.052c-6.701,0-12.133,5.432-12.133,12.133c0,6.701,5.432,12.133,12.133,12.133
	h23.052v23.052c0,6.701,5.432,12.133,12.133,12.133c6.701,0,12.133-5.432,12.133-12.133v-23.052h23.052
	c6.701,0,12.133-5.432,12.133-12.133C303.318,249.299,297.886,243.867,291.185,243.867z"/>
<g>
</g>
<g>
</g>
<g>
</g>
<g>
</g>
<g>
</g>
<g>
</g>
<g>
</g>
<g>
</g>
<g>
</g>
<g>
</g>
<g>
</g>
<g>
</g>
<g>
</g>
<g>
</g>
<g>
</g>
</svg>
