<?xml version="1.0" encoding="iso-8859-1"?>
<!-- Generator: Adobe Illustrator 19.0.0, SVG Export Plug-In . SVG Version: 6.00 Build 0)  -->
<svg version="1.1" id="Layer_1" xmlns="http://www.w3.org/2000/svg" xmlns:xlink="http://www.w3.org/1999/xlink" x="0px" y="0px"
	 viewBox="0 0 512 512" style="enable-background:new 0 0 512 512;" xml:space="preserve">
<path style="fill:#174461;" d="M500.416,403.888c-6.397,0-11.584-5.187-11.584-11.584c0-114.346-81.535-210.763-194.019-229.615
	l-77.632,0.001C104.701,181.543,23.167,277.96,23.167,392.304c0,6.397-5.187,11.584-11.584,11.584S0,398.7,0,392.304
	c0-61.091,21.872-120.244,61.586-166.558c39.282-45.81,93.537-76.378,152.773-86.072c0.619-0.101,1.244-0.152,1.871-0.152
	l79.536-0.001c0.627,0,1.252,0.051,1.87,0.152c59.238,9.692,113.495,40.259,152.778,86.07C490.128,272.059,512,331.211,512,392.304
	C512,398.7,506.813,403.888,500.416,403.888z"/>
<circle style="fill:#3B8BC0;" cx="478.986" cy="151.1" r="21.43"/>
<rect x="31.276" y="139.516" style="fill:#174461;" width="449.448" height="23.167"/>
<circle style="fill:#3B8BC0;" cx="33.014" cy="151.1" r="21.43"/>
<rect x="216.233" y="108.113" style="fill:#9AD7FF;" width="79.545" height="79.545"/>
<g>
</g>
<g>
</g>
<g>
</g>
<g>
</g>
<g>
</g>
<g>
</g>
<g>
</g>
<g>
</g>
<g>
</g>
<g>
</g>
<g>
</g>
<g>
</g>
<g>
</g>
<g>
</g>
<g>
</g>
</svg>
