<?xml version="1.0" encoding="iso-8859-1"?>
<!-- Generator: Adobe Illustrator 19.0.0, SVG Export Plug-In . SVG Version: 6.00 Build 0)  -->
<svg version="1.1" id="Layer_1" xmlns="http://www.w3.org/2000/svg" xmlns:xlink="http://www.w3.org/1999/xlink" x="0px" y="0px"
	 viewBox="0 0 512 512" style="enable-background:new 0 0 512 512;" xml:space="preserve">
<path style="fill:#9AD7FF;" d="M337.832,0.411l-28.988,142.274L255,299.133l-30.239-53.108c-1.622-2.851-1.966-6.257-0.934-9.37
	c0.385-1.171,39.356-119.068,68.85-204.521c4.742-13.752,12.745-23.622,23.139-28.577C322.481,0.379,329.952-0.669,337.832,0.411z"
	/>
<path style="fill:#4EB9FF;" d="M304.766,457.115c-6.831,18.757-18.789,34.532-33.68,44.393
	c-15.972,10.583-33.418,13.269-49.119,7.56c-3.35-1.221-6.511-2.793-9.501-4.702c-2.982-1.917-5.774-4.169-8.354-6.75
	c-16.144-16.144-21.869-43.427-15.496-70.456l-3.408-1.245c-1.638-0.59-3.064-1.523-4.227-2.686c-3.08-3.08-4.284-7.79-2.702-12.154
	c2.195-6.012,8.838-9.116,14.85-6.921l3.399,1.237c7.036-14.063,17.119-25.817,29.085-33.754
	c10.574-7.003,21.779-10.525,32.706-10.46L255,299.134L337.833,0.413c3.497,0.467,7.068,1.368,10.681,2.686
	c5.684,2.064,10.066,3.661,10.066,3.661l-80.481,290.294l3.752,70.309c3.891,2.187,7.486,4.915,10.738,8.166
	C310.949,393.891,315.84,426.678,304.766,457.115z M258.291,482.195c10.779-7.142,19.56-18.872,24.703-33.008
	c7.929-21.787,5.144-45.343-6.79-57.277c-2.368-2.368-5.046-4.193-7.969-5.48c-1.04-0.221-2.048-0.573-2.973-1.073
	c-18.552-5.365-41.83,11.868-51.56,38.603c-3.964,10.894-5.251,22.238-4.054,32.345c1.204,10.099,4.881,18.97,10.844,24.932
	c2.752,2.752,5.913,4.784,9.395,6.053C238.511,490.426,248.594,488.616,258.291,482.195z"/>
<path style="fill:#3B8BC0;" d="M511.588,174.169l-142.274,28.988L212.866,257l53.108,30.239c2.851,1.622,6.257,1.966,9.37,0.934
	c1.171-0.385,119.068-39.356,204.521-68.85c13.752-4.742,23.622-12.745,28.577-23.139
	C511.62,189.518,512.669,182.048,511.588,174.169z"/>
<path style="fill:#174461;" d="M136.471,219.414c3.251,3.251,5.979,6.847,8.166,10.738l70.309,3.752l290.294-80.481
	c0,0,1.597,4.382,3.661,10.066c1.318,3.612,2.219,7.183,2.686,10.681l-298.722,82.832l-62.044-3.317
	c0.066,10.927-3.456,22.131-10.46,32.706c-7.937,11.967-19.691,22.049-33.754,29.085l1.237,3.399
	c2.195,6.012-0.909,12.655-6.921,14.85c-4.366,1.581-9.076,0.376-12.154-2.702c-1.163-1.163-2.097-2.588-2.686-4.227l-1.245-3.408
	c-27.03,6.372-54.312,0.647-70.456-15.496c-2.58-2.58-4.833-5.374-6.75-8.354c-1.909-2.99-3.481-6.151-4.702-9.501
	c-5.709-15.701-3.022-33.148,7.56-49.119c9.862-14.89,25.636-26.849,44.393-33.68C85.322,196.161,118.108,201.05,136.471,219.414z
	 M24.711,282.114c1.27,3.481,3.301,6.643,6.053,9.395c5.963,5.963,14.834,9.641,24.932,10.844
	c10.108,1.195,21.451-0.09,32.345-4.054c26.734-9.73,43.967-33.008,38.603-51.56c-0.499-0.926-0.851-1.933-1.073-2.973
	c-1.286-2.924-3.112-5.603-5.48-7.969c-11.934-11.934-35.49-14.719-57.277-6.79c-14.137,5.144-25.866,13.924-33.008,24.703
	C23.383,263.405,21.574,273.489,24.711,282.114z"/>
<g>
	<path style="fill:#4EB9FF;" d="M348.743,174.839c-2.965,0-5.928-1.132-8.191-3.393c-4.523-4.523-4.523-11.858,0-16.382
		l23.117-23.118c4.522-4.522,11.857-4.522,16.382,0c4.523,4.523,4.523,11.858,0,16.382l-23.117,23.118
		C354.673,173.709,351.708,174.839,348.743,174.839z"/>
	<path style="fill:#4EB9FF;" d="M403.384,120.199c-2.965,0-5.928-1.132-8.191-3.393c-4.523-4.523-4.523-11.858,0-16.382
		l23.118-23.118c4.524-4.522,11.857-4.522,16.382,0c4.523,4.523,4.523,11.858,0,16.382l-23.118,23.118
		C409.312,119.068,406.348,120.199,403.384,120.199z"/>
	<path style="fill:#4EB9FF;" d="M458.024,65.558c-2.965,0-5.928-1.132-8.191-3.393c-4.523-4.523-4.523-11.858,0-16.382
		l23.118-23.118c4.524-4.522,11.857-4.522,16.382,0c4.523,4.523,4.523,11.858,0,16.382l-23.118,23.118
		C463.952,64.428,460.989,65.558,458.024,65.558z"/>
</g>
<g>
</g>
<g>
</g>
<g>
</g>
<g>
</g>
<g>
</g>
<g>
</g>
<g>
</g>
<g>
</g>
<g>
</g>
<g>
</g>
<g>
</g>
<g>
</g>
<g>
</g>
<g>
</g>
<g>
</g>
</svg>
