<?xml version="1.0" encoding="iso-8859-1"?>
<!-- Generator: Adobe Illustrator 19.0.0, SVG Export Plug-In . SVG Version: 6.00 Build 0)  -->
<svg version="1.1" id="Layer_1" xmlns="http://www.w3.org/2000/svg" xmlns:xlink="http://www.w3.org/1999/xlink" x="0px" y="0px"
	 viewBox="0 0 512.001 512.001" style="enable-background:new 0 0 512.001 512.001;" xml:space="preserve">
<path style="fill:#FFD86C;" d="M486.255,341.334H144.922v170.667h341.333c14.16,0,25.746-11.586,25.746-25.746V367.08
	C512.001,352.92,500.415,341.334,486.255,341.334z"/>
<rect x="157.796" y="385.349" style="fill:#4EB9FF;" width="82.631" height="82.631"/>
<rect x="271.579" y="385.349" style="fill:#3B8BC0;" width="82.631" height="82.631"/>
<rect x="385.35" y="385.349" style="fill:#174461;" width="82.631" height="82.631"/>
<path style="fill:#FFEBB4;" d="M484.633,264.938l-59.587-103.209c-7.08-12.263-22.906-16.504-35.17-9.424L129.847,302.432
	l15.075,188.366l330.287-190.691C487.471,293.027,491.713,277.2,484.633,264.938z"/>
<rect x="241.102" y="271.577" transform="matrix(0.866 -0.5 0.5 0.866 -118.6109 183.133)" style="fill:#FF80AB;" width="82.629" height="82.629"/>
<rect x="339.628" y="214.695" transform="matrix(0.866 -0.5 0.5 0.866 -76.9685 224.7759)" style="fill:#FF4181;" width="82.629" height="82.629"/>
<rect x="142.559" y="328.477" transform="matrix(0.866 -0.5 0.5 0.866 -160.2645 141.4837)" style="fill:#FFC0D5;" width="82.629" height="82.629"/>
<path style="fill:#FFD86C;" d="M350.272,86.956L247.064,27.369c-12.263-7.08-28.09-2.84-35.17,9.424l-2.608,4.517L37.337,339.132
	l118.255,136.51l204.103-353.516C366.775,109.862,362.535,94.036,350.272,86.956z"/>
<rect x="157.813" y="188.274" transform="matrix(0.5 -0.866 0.866 0.5 -99.2669 287.2398)" style="fill:#FFB14E;" width="82.629" height="82.629"/>
<rect x="214.696" y="89.74" transform="matrix(0.5 -0.866 0.866 0.5 14.507 287.2357)" style="fill:#FF755C;" width="82.629" height="82.629"/>
<rect x="100.918" y="286.811" transform="matrix(0.5 -0.866 0.866 0.5 -213.0487 287.2355)" style="fill:#FFEBB4;" width="82.629" height="82.629"/>
<path style="fill:#4EB9FF;" d="M170.668,486.254c0,14.16-11.586,25.746-25.746,25.746H25.746c-14.16,0-25.746-11.586-25.746-25.746
	V25.746C0.001,11.586,11.586,0,25.746,0h119.176c14.16,0,25.746,11.586,25.746,25.746L170.668,486.254L170.668,486.254z"/>
<circle style="fill:#174461;" cx="85.335" cy="426.671" r="25.746"/>
<g>
</g>
<g>
</g>
<g>
</g>
<g>
</g>
<g>
</g>
<g>
</g>
<g>
</g>
<g>
</g>
<g>
</g>
<g>
</g>
<g>
</g>
<g>
</g>
<g>
</g>
<g>
</g>
<g>
</g>
</svg>
