<?xml version="1.0" encoding="iso-8859-1"?>
<!-- Generator: Adobe Illustrator 19.0.0, SVG Export Plug-In . SVG Version: 6.00 Build 0)  -->
<svg version="1.1" id="Layer_1" xmlns="http://www.w3.org/2000/svg" xmlns:xlink="http://www.w3.org/1999/xlink" x="0px" y="0px"
	 viewBox="0 0 512 512" style="enable-background:new 0 0 512 512;" xml:space="preserve">
<polygon style="fill:#FF9356;" points="24.265,231.735 0,418.263 440.947,418.263 440.947,231.735 "/>
<polygon style="fill:#FFCE47;" points="440.947,93.737 0,93.737 24.265,256 440.947,256 "/>
<path style="fill:#FF755C;" d="M491.232,123.317l-50.285-29.58L416.682,256l24.265,162.263l50.285-29.58
	c11.422-6.719,20.768-23.058,20.768-36.31V159.628C512,146.376,502.654,130.036,491.232,123.317z"/>
<polygon style="fill:#FF4181;" points="369.893,135.533 369.893,376.467 440.947,418.263 440.947,93.737 "/>
<path style="fill:#FF755C;" d="M50.285,123.318L0,93.737v324.526l50.285-29.58c11.422-6.719,20.768-23.058,20.768-36.31V159.628
	C71.053,146.376,61.708,130.036,50.285,123.318z"/>
<g>
</g>
<g>
</g>
<g>
</g>
<g>
</g>
<g>
</g>
<g>
</g>
<g>
</g>
<g>
</g>
<g>
</g>
<g>
</g>
<g>
</g>
<g>
</g>
<g>
</g>
<g>
</g>
<g>
</g>
</svg>
