<?xml version="1.0" encoding="iso-8859-1"?>
<!-- Generator: Adobe Illustrator 19.0.0, SVG Export Plug-In . SVG Version: 6.00 Build 0)  -->
<svg version="1.1" id="Layer_1" xmlns="http://www.w3.org/2000/svg" xmlns:xlink="http://www.w3.org/1999/xlink" x="0px" y="0px"
	 viewBox="0 0 512 512" style="enable-background:new 0 0 512 512;" xml:space="preserve">
<g>
	<path style="fill:#174461;" d="M25.479,440.356v50.957c0,6.7,5.432,12.133,12.133,12.133s12.133-5.433,12.133-12.133v-50.957
		H25.479z"/>
	<path style="fill:#174461;" d="M462.256,440.356v50.957c0,6.7,5.432,12.133,12.133,12.133s12.133-5.433,12.133-12.133v-50.957
		H462.256z"/>
</g>
<polygon style="fill:#FFCE47;" points="512,8.554 0,8.554 0,51.018 256,75.283 512,51.018 "/>
<polygon style="fill:#FFE290;" points="512,51.018 0,51.018 0,93.482 256,117.748 512,93.482 "/>
<polygon style="fill:#FFCE47;" points="512,93.482 0,93.482 0,135.947 256,160.212 512,135.947 "/>
<polygon style="fill:#FFE290;" points="512,135.947 0,135.947 0,178.411 256,202.677 512,178.411 "/>
<polygon style="fill:#FFCE47;" points="512,178.411 0,178.411 0,220.876 256,245.141 512,220.876 "/>
<polygon style="fill:#FFE290;" points="512,220.876 0,220.876 0,263.34 256,287.606 512,263.34 "/>
<polygon style="fill:#FFCE47;" points="411.822,263.34 100.179,263.34 48.531,305.805 256,330.07 463.469,305.805 "/>
<polygon style="fill:#FFE290;" points="463.469,305.805 48.531,305.805 48.531,348.269 256,372.535 463.469,348.269 "/>
<rect x="48.531" y="348.269" style="fill:#FFCE47;" width="414.938" height="42.464"/>
<path style="fill:#3B8BC0;" d="M411.822,263.34C399.736,332.123,334.579,384.667,256,384.667S112.264,332.123,100.179,263.34H0
	v201.282h512V263.34H411.822z"/>
<g>
</g>
<g>
</g>
<g>
</g>
<g>
</g>
<g>
</g>
<g>
</g>
<g>
</g>
<g>
</g>
<g>
</g>
<g>
</g>
<g>
</g>
<g>
</g>
<g>
</g>
<g>
</g>
<g>
</g>
</svg>
