<?xml version="1.0" encoding="iso-8859-1"?>
<!-- Generator: Adobe Illustrator 19.0.0, SVG Export Plug-In . SVG Version: 6.00 Build 0)  -->
<svg version="1.1" id="Layer_1" xmlns="http://www.w3.org/2000/svg" xmlns:xlink="http://www.w3.org/1999/xlink" x="0px" y="0px"
	 viewBox="0 0 511.995 511.995" style="enable-background:new 0 0 511.995 511.995;" xml:space="preserve">
<path style="fill:#174461;" d="M70.112,458.547l-16.666-16.665L3.451,491.878c-4.602,4.602-4.602,12.063,0,16.665
	c2.301,2.301,5.317,3.451,8.332,3.451c3.017,0,6.031-1.15,8.332-3.451L70.112,458.547z"/>
<rect x="407.617" y="32.191" transform="matrix(-0.7071 0.7071 -0.7071 -0.7071 822.9861 -238.8015)" style="fill:#3B8BC0;" width="106.667" height="37.708"/>
<polygon style="fill:#4EB9FF;" points="439.907,138.747 145.103,433.552 95.107,416.887 78.442,366.891 373.247,72.087 "/>
<path style="fill:#3B8BC0;" d="M78.442,366.891l66.661,66.661c-62.819,62.819-89.941,60.044-108.323,41.662
	C18.398,456.832,15.623,429.71,78.442,366.891z"/>
<rect x="399.672" y="41.615" transform="matrix(-0.7071 0.7071 -0.7071 -0.7071 785.2708 -147.7686)" style="fill:#174461;" width="47.135" height="94.271"/>
<path style="fill:#3B8BC0;" d="M448.243,130.412l-91.657-91.657L339.92,55.42l91.657,91.657c4.602,4.602,12.063,4.602,16.665,0
	C452.844,142.475,452.843,135.014,448.243,130.412z"/>
<path style="fill:#174461;" d="M240.649,166.474c-3.017,0-6.031-1.15-8.332-3.452c-4.602-4.602-4.602-12.063,0-16.666L356.585,22.09
	c4.603-4.602,12.062-4.603,16.666,0c4.602,4.602,4.602,12.063,0,16.665L248.982,163.024
	C246.68,165.324,243.665,166.474,240.649,166.474z"/>
<g>
</g>
<g>
</g>
<g>
</g>
<g>
</g>
<g>
</g>
<g>
</g>
<g>
</g>
<g>
</g>
<g>
</g>
<g>
</g>
<g>
</g>
<g>
</g>
<g>
</g>
<g>
</g>
<g>
</g>
</svg>
