<?xml version="1.0" encoding="iso-8859-1"?>
<!-- Generator: Adobe Illustrator 19.0.0, SVG Export Plug-In . SVG Version: 6.00 Build 0)  -->
<svg version="1.1" id="Layer_1" xmlns="http://www.w3.org/2000/svg" xmlns:xlink="http://www.w3.org/1999/xlink" x="0px" y="0px"
	 viewBox="0 0 512 512" style="enable-background:new 0 0 512 512;" xml:space="preserve">
<rect x="92.039" y="49.89" style="fill:#9AD7FF;" width="125.549" height="121.036"/>
<path style="fill:#C2E7FF;" d="M267.797,475.417c0,20.203-16.378,36.583-36.583,36.583H78.41c-20.203,0-36.583-16.378-36.583-36.583
	V183.237c0-20.203,16.378-36.583,36.583-36.583h152.804c20.203,0,36.583,16.378,36.583,36.583L267.797,475.417L267.797,475.417z"/>
<path style="fill:#4EB9FF;" d="M217.585,110.402H93.071c-6.7,0-12.133-5.433-12.133-12.133s5.433-12.133,12.133-12.133h124.514
	c6.7,0,12.133,5.433,12.133,12.133S224.285,110.402,217.585,110.402z"/>
<g>
	<rect x="395.854" y="73.063" style="fill:#C2E7FF;" width="24.265" height="233.542"/>
	<polygon style="fill:#C2E7FF;" points="354.541,294.47 357.027,512 407.991,512 420.124,403.235 407.991,294.47 	"/>
</g>
<polygon style="fill:#9AD7FF;" points="461.441,294.47 407.991,294.47 407.991,512 458.955,512 "/>
<rect x="100.252" y="205.079" style="fill:#FFFFFF;" width="109.122" height="248.502"/>
<polygon style="fill:#C2E7FF;" points="386.423,0 429.56,0 433.289,85.193 382.693,85.193 "/>
<path style="fill:#4EB9FF;" d="M458.04,306.603h-101.31c-6.7,0-12.133-5.433-12.133-12.133s5.433-12.133,12.133-12.133H458.04
	c6.7,0,12.133,5.433,12.133,12.133S464.74,306.603,458.04,306.603z"/>
<g>
</g>
<g>
</g>
<g>
</g>
<g>
</g>
<g>
</g>
<g>
</g>
<g>
</g>
<g>
</g>
<g>
</g>
<g>
</g>
<g>
</g>
<g>
</g>
<g>
</g>
<g>
</g>
<g>
</g>
</svg>
