<?xml version="1.0" encoding="iso-8859-1"?>
<!-- Generator: Adobe Illustrator 19.0.0, SVG Export Plug-In . SVG Version: 6.00 Build 0)  -->
<svg version="1.1" id="Layer_1" xmlns="http://www.w3.org/2000/svg" xmlns:xlink="http://www.w3.org/1999/xlink" x="0px" y="0px"
	 viewBox="0 0 512 512" style="enable-background:new 0 0 512 512;" xml:space="preserve">
<path style="fill:#FF9356;" d="M82.95,91.29c-110.6,110.6-110.6,289.92,0,400.519L483.469,91.29
	C372.869-19.311,193.551-19.311,82.95,91.29z M139.895,148.235c58.799-58.799,145.037-73.849,217.881-45.145L94.751,366.116
	C66.047,293.272,81.095,207.035,139.895,148.235z"/>
<g>
	<path style="fill:#FF755C;" d="M66.397,402.029c-2.972-5.833-10.108-8.151-15.941-5.179l-24.801,12.638
		c3.275,7.155,6.863,14.2,10.766,21.118l24.796-12.635C67.05,414.997,69.369,407.861,66.397,402.029z"/>
	<path style="fill:#FF755C;" d="M42.868,329.624c-1.024-6.465-7.096-10.874-13.56-9.852L1.88,324.115
		c0.903,7.844,2.136,15.654,3.693,23.415l27.443-4.346C39.481,342.159,43.892,336.089,42.868,329.624z"/>
	<path style="fill:#FF755C;" d="M31.174,263.489c5.728,0,10.766-4.162,11.692-9.999c1.024-6.465-3.387-12.536-9.852-13.56
		l-27.444-4.346c-1.557,7.761-2.79,15.572-3.692,23.415l27.428,4.344C29.935,263.442,30.558,263.489,31.174,263.489z"/>
	<path style="fill:#FF755C;" d="M55.82,187.557c4.315,0,8.475-2.364,10.569-6.473c2.971-5.832,0.653-12.968-5.179-15.941
		l-24.796-12.635c-3.903,6.918-7.49,13.964-10.765,21.119l24.8,12.636C52.172,187.142,54.009,187.557,55.82,187.557z"/>
	<path style="fill:#FF755C;" d="M102.757,122.959c3.033,0,6.067-1.158,8.38-3.471c4.628-4.628,4.628-12.133,0-16.762L91.512,83.102
		c-2.893,2.664-5.755,5.381-8.562,8.187c-2.81,2.811-5.531,5.677-8.198,8.574l19.625,19.625
		C96.691,121.803,99.724,122.959,102.757,122.959z"/>
	<path style="fill:#FF755C;" d="M167.358,76.031c1.81,0,3.648-0.416,5.371-1.294c5.832-2.972,8.151-10.108,5.179-15.941
		l-12.638-24.801c-7.155,3.275-14.201,6.863-21.118,10.766l12.635,24.796C158.883,73.666,163.043,76.031,167.358,76.031z"/>
	<path style="fill:#FF755C;" d="M243.267,51.355c0.616,0,1.241-0.047,1.869-0.147c6.465-1.024,10.875-7.095,9.852-13.56
		l-4.344-27.429c-7.844,0.903-15.654,2.136-23.415,3.693l4.346,27.444C232.499,47.193,237.537,51.355,243.267,51.355z"/>
	<path style="fill:#FF755C;" d="M321.268,51.205c0.628,0.1,1.253,0.147,1.869,0.147c5.728,0,10.766-4.162,11.692-9.999l4.346-27.443
		c-7.761-1.556-15.571-2.79-23.415-3.692l-4.344,27.428C310.393,44.11,314.803,50.181,321.268,51.205z"/>
	<path style="fill:#FF755C;" d="M393.676,74.729c1.724,0.878,3.56,1.294,5.371,1.294c4.315,0,8.476-2.364,10.569-6.473
		l12.635-24.796c-6.918-3.902-13.964-7.49-21.119-10.765l-12.636,24.8C385.524,64.621,387.844,71.757,393.676,74.729z"/>
	<path style="fill:#FF755C;" d="M263.117,254.696c-4.628-4.627-12.133-4.627-16.762,0c-4.628,4.628-4.628,12.133,0,16.762
		l28.473,28.473l16.762-16.762L263.117,254.696z"/>
</g>
<g>
	<path style="fill:#3B8BC0;" d="M500.147,503.661H169.004c-4.793,0-9.115-2.888-10.95-7.316c-1.835-4.429-0.82-9.527,2.568-12.916
		l331.144-331.144c4.628-4.627,12.133-4.627,16.762,0c4.628,4.628,4.628,12.133,0,16.762L197.617,479.957h302.53
		c6.546,0,11.852,5.307,11.852,11.852S506.693,503.661,500.147,503.661z"/>
	<path style="fill:#3B8BC0;" d="M282.548,378.253l-16.761,16.762c25.856,25.854,40.096,60.229,40.096,96.794h23.704
		C329.588,448.913,312.883,408.584,282.548,378.253z"/>
</g>
<g>
</g>
<g>
</g>
<g>
</g>
<g>
</g>
<g>
</g>
<g>
</g>
<g>
</g>
<g>
</g>
<g>
</g>
<g>
</g>
<g>
</g>
<g>
</g>
<g>
</g>
<g>
</g>
<g>
</g>
</svg>
