<?xml version="1.0" encoding="iso-8859-1"?>
<!-- Generator: Adobe Illustrator 19.0.0, SVG Export Plug-In . SVG Version: 6.00 Build 0)  -->
<svg version="1.1" id="Layer_1" xmlns="http://www.w3.org/2000/svg" xmlns:xlink="http://www.w3.org/1999/xlink" x="0px" y="0px"
	 viewBox="0 0 512 512" style="enable-background:new 0 0 512 512;" xml:space="preserve">
<g>
	<path style="fill:#FF4181;" d="M512,410.269H0v-58.201l52.171-24.265l52.171,24.265h349.446
		C485.939,352.068,512,378.129,512,410.269z"/>
	<path style="fill:#FF4181;" d="M332.375,102.305c-90.68,7.935-319.296,88.836-319.296,88.836l6.139,70.139l72.493,27.25
		l340.078-51.892l16.951-1.48C444.372,185.196,431.451,93.642,332.375,102.305z"/>
</g>
<path style="fill:#9AD7FF;" d="M437.61,303.163l-5.82-66.524l-315.813,27.625l12.63,41.579l282.715-24.736l2.115,24.171
	c0.552,6.316,5.849,11.076,12.072,11.076c0.354,0,0.712-0.016,1.073-0.047C433.255,315.723,438.193,309.838,437.61,303.163z"/>
<path style="fill:#FF80AB;" d="M104.341,261.277H0v90.788h104.341c13.346,0,24.265-10.919,24.265-24.265v-42.257
	C128.607,272.196,117.687,261.277,104.341,261.277z"/>
<g>
</g>
<g>
</g>
<g>
</g>
<g>
</g>
<g>
</g>
<g>
</g>
<g>
</g>
<g>
</g>
<g>
</g>
<g>
</g>
<g>
</g>
<g>
</g>
<g>
</g>
<g>
</g>
<g>
</g>
</svg>
