<?xml version="1.0" encoding="iso-8859-1"?>
<!-- Generator: Adobe Illustrator 19.0.0, SVG Export Plug-In . SVG Version: 6.00 Build 0)  -->
<svg version="1.1" id="Layer_1" xmlns="http://www.w3.org/2000/svg" xmlns:xlink="http://www.w3.org/1999/xlink" x="0px" y="0px"
	 viewBox="0 0 512.001 512.001" style="enable-background:new 0 0 512.001 512.001;" xml:space="preserve">
<path style="fill:#174461;" d="M431.514,281.221H80.488c-12,0-21.728,9.728-21.728,21.728v195.179h394.481V302.949
	C453.241,290.949,443.514,281.221,431.514,281.221z"/>
<path style="fill:#9AD7FF;" d="M361.905,488.272c-6.632-44.786-33.765-225.627-50.699-302.613
	c-7.245-32.934,12.042-48.931,32.461-65.867c16.312-13.528,33.177-27.517,33.177-49.824c0-20.753-14.524-39.421-40.895-52.565
	C313.756,6.344,284.616,0,256.001,0c-28.616,0-57.755,6.344-79.948,17.404c-26.372,13.144-40.895,31.811-40.895,52.565
	c0,22.306,16.867,36.295,33.177,49.824c20.419,16.936,39.706,32.932,32.461,65.867c-16.933,76.982-43.639,257.776-50.171,302.613
	h-25.323l11.451,23.728h24.141c5.902,0,10.906-4.339,11.744-10.18c0.32-2.23,32.209-224.129,51.333-311.063
	c10.352-47.062-19.032-71.432-40.487-89.227c-13.199-10.947-24.597-20.401-24.597-31.56c0-24.202,46.289-46.243,97.115-46.243
	s97.115,22.041,97.115,46.242c0,11.159-11.399,20.614-24.597,31.56c-21.455,17.795-50.84,42.167-40.487,89.227
	c19.125,86.942,51.564,308.859,51.889,311.092c0.851,5.829,5.849,10.152,11.74,10.152h23.588l12.004-23.728h-25.348V488.272z"/>
<g>
	<path style="fill:#3B8BC0;" d="M311.482,498.128c0,7.662-6.211,13.872-13.872,13.872h-83.218c-7.662,0-13.872-6.211-13.872-13.872
		v-29.013c0-7.662,6.211-13.872,13.872-13.872h83.218c7.662,0,13.872,6.211,13.872,13.872V498.128z"/>
	<path style="fill:#3B8BC0;" d="M150.626,498.128c0,7.662-6.211,13.872-13.872,13.872H53.534c-7.662,0-13.872-6.211-13.872-13.872
		v-29.013c0-7.662,6.211-13.872,13.872-13.872h83.218c7.662,0,13.872,6.211,13.872,13.872v29.013H150.626z"/>
	<path style="fill:#3B8BC0;" d="M472.34,498.128c0,7.662-6.211,13.872-13.872,13.872h-83.218c-7.662,0-13.872-6.211-13.872-13.872
		v-29.013c0-7.662,6.211-13.872,13.872-13.872h83.218c7.662,0,13.872,6.211,13.872,13.872L472.34,498.128L472.34,498.128z"/>
</g>
<g>
</g>
<g>
</g>
<g>
</g>
<g>
</g>
<g>
</g>
<g>
</g>
<g>
</g>
<g>
</g>
<g>
</g>
<g>
</g>
<g>
</g>
<g>
</g>
<g>
</g>
<g>
</g>
<g>
</g>
</svg>
