<?xml version="1.0" encoding="iso-8859-1"?>
<!-- Generator: Adobe Illustrator 19.0.0, SVG Export Plug-In . SVG Version: 6.00 Build 0)  -->
<svg version="1.1" id="Layer_1" xmlns="http://www.w3.org/2000/svg" xmlns:xlink="http://www.w3.org/1999/xlink" x="0px" y="0px"
	 viewBox="0 0 512 512" style="enable-background:new 0 0 512 512;" xml:space="preserve">
<rect x="175.682" style="fill:#4EB9FF;" width="161.025" height="168.608"/>
<path style="fill:#3B8BC0;" d="M451.548,204.495c-32.69-26.418-92.331-64.165-115.232-72.283H175.684
	c-22.9,8.118-82.541,45.865-115.232,72.283c-22.395,18.097-28.656,38.749-25.098,63.932c3.774,26.717,31.1,207.543,31.1,207.543
	C69.423,495.786,88.247,512,108.284,512h295.431c20.038,0,38.862-16.214,41.831-36.03c0,0,27.324-180.825,31.099-207.543
	C480.204,243.245,473.942,222.593,451.548,204.495z"/>
<g>
	<path style="fill:#4EB9FF;" d="M425.273,250.116h-244.95c-6.701,0-12.133-5.432-12.133-12.133s5.432-12.133,12.133-12.133h244.95
		c6.7,0,12.133,5.432,12.133,12.133S431.973,250.116,425.273,250.116z"/>
	<path style="fill:#4EB9FF;" d="M131.793,250.116H87.119c-6.701,0-12.133-5.432-12.133-12.133s5.432-12.133,12.133-12.133h44.674
		c6.701,0,12.133,5.432,12.133,12.133S138.492,250.116,131.793,250.116z"/>
</g>
<g>
	<path style="fill:#3B8BC0;" d="M336.707,104.318H175.684c-6.701,0-12.133-5.432-12.133-12.133s5.432-12.133,12.133-12.133h161.023
		c6.7,0,12.133,5.432,12.133,12.133S343.406,104.318,336.707,104.318z"/>
	<path style="fill:#3B8BC0;" d="M336.707,52.16H175.684c-6.701,0-12.133-5.432-12.133-12.133s5.432-12.133,12.133-12.133h161.023
		c6.7,0,12.133,5.432,12.133,12.133S343.406,52.16,336.707,52.16z"/>
</g>
<polygon style="fill:#174461;" points="93.794,290.004 118.879,457.403 393.512,457.403 418.596,290.004 "/>
<g>
</g>
<g>
</g>
<g>
</g>
<g>
</g>
<g>
</g>
<g>
</g>
<g>
</g>
<g>
</g>
<g>
</g>
<g>
</g>
<g>
</g>
<g>
</g>
<g>
</g>
<g>
</g>
<g>
</g>
</svg>
