<?xml version="1.0" encoding="iso-8859-1"?>
<!-- Generator: Adobe Illustrator 19.0.0, SVG Export Plug-In . SVG Version: 6.00 Build 0)  -->
<svg version="1.1" id="Layer_1" xmlns="http://www.w3.org/2000/svg" xmlns:xlink="http://www.w3.org/1999/xlink" x="0px" y="0px"
	 viewBox="0 0 512.001 512.001" style="enable-background:new 0 0 512.001 512.001;" xml:space="preserve">
<path style="fill:#3B8BC0;" d="M77.05,243.035l-66.394,66.394c-14.209,14.209-14.209,37.246,0,51.455l140.46,140.46
	c14.209,14.209,37.246,14.209,51.455,0l66.394-66.394L77.05,243.035z"/>
<path style="fill:#4EB9FF;" d="M77.05,243.035c-14.209,14.209-14.209,37.246,0,51.455l140.46,140.46
	c14.209,14.209,37.246,14.209,51.455,0l116.189-116.189l-78.799-113.116l-113.116-78.799L77.05,243.035z"/>
<path style="fill:#FF4181;" d="M501.344,151.117l-140.46-140.46c-14.209-14.209-37.246-14.209-51.455,0L193.24,126.845
	L385.155,318.76l116.189-116.189C515.553,188.363,515.553,165.325,501.344,151.117z"/>
<g>
</g>
<g>
</g>
<g>
</g>
<g>
</g>
<g>
</g>
<g>
</g>
<g>
</g>
<g>
</g>
<g>
</g>
<g>
</g>
<g>
</g>
<g>
</g>
<g>
</g>
<g>
</g>
<g>
</g>
</svg>
