<?xml version="1.0" encoding="iso-8859-1"?>
<!-- Generator: Adobe Illustrator 19.0.0, SVG Export Plug-In . SVG Version: 6.00 Build 0)  -->
<svg version="1.1" id="Layer_1" xmlns="http://www.w3.org/2000/svg" xmlns:xlink="http://www.w3.org/1999/xlink" x="0px" y="0px"
	 viewBox="0 0 512.004 512.004" style="enable-background:new 0 0 512.004 512.004;" xml:space="preserve">
<path style="fill:#174461;" d="M428.687,14.226c-4.489-4.489-11.767-4.489-16.256,0l-40.589,40.589l16.256,16.256l40.589-40.589
	C433.175,25.993,433.175,18.716,428.687,14.226z"/>
<polygon style="fill:#3B8BC0;" points="407.621,54.799 388.113,35.291 341.971,80.183 344.409,98.877 363.104,101.316 "/>
<rect x="297.401" y="90.328" transform="matrix(-0.7071 0.7071 -0.7071 -0.7071 642.7659 -39.6082)" style="fill:#4EB9FF;" width="64.37" height="45.979"/>
<rect x="5.134" y="386.628" transform="matrix(-0.7071 0.7071 -0.7071 -0.7071 349.3565 668.7793)" style="fill:#174461;" width="62.071" height="40.231"/>
<rect x="145.603" y="81.196" transform="matrix(-0.7071 -0.7071 0.7071 -0.7071 107.7159 581.7372)" style="fill:#3B8BC0;" width="57.474" height="374.728"/>
<polygon style="fill:#174461;" points="197.08,67.015 164.568,99.528 221.465,123.912 237.721,107.656 "/>
<polygon style="fill:#3B8BC0;" points="63.78,200.315 104.42,240.955 205.208,140.168 172.696,91.4 "/>
<path style="fill:#9AD7FF;" d="M156.44,58.887c-4.489-4.489-11.767-4.489-16.256,0L31.268,167.804
	c-4.489,4.489-4.489,11.767,0,16.256s11.767,4.489,16.256,0L148.312,83.272l56.896,56.896l16.256-16.256L156.44,58.887z"/>
<path style="fill:#174461;" d="M83.312,497.778c4.489,4.489,11.767,4.489,16.256,0l40.589-40.589l-16.256-16.256l-40.589,40.589
	C78.823,486.011,78.822,493.29,83.312,497.778z"/>
<polygon style="fill:#3B8BC0;" points="104.376,457.206 123.884,476.713 170.027,431.821 167.589,413.127 148.894,410.689 "/>
<rect x="150.213" y="375.698" transform="matrix(0.7071 -0.7071 0.7071 0.7071 -228.4914 245.748)" style="fill:#4EB9FF;" width="64.37" height="45.979"/>
<rect x="444.799" y="85.139" transform="matrix(0.7071 -0.7071 0.7071 0.7071 64.9427 367.2943)" style="fill:#174461;" width="62.071" height="40.231"/>
<rect x="308.916" y="56.085" transform="matrix(0.7071 0.7071 -0.7071 0.7071 271.0407 -167.4523)" style="fill:#3B8BC0;" width="57.474" height="374.728"/>
<polygon style="fill:#174461;" points="314.918,444.99 347.43,412.478 290.534,388.093 274.278,404.35 "/>
<polygon style="fill:#3B8BC0;" points="448.218,311.689 407.578,271.049 306.79,371.837 339.302,420.606 "/>
<path style="fill:#9AD7FF;" d="M355.558,453.118c4.489,4.489,11.767,4.489,16.256,0L480.73,344.202
	c4.489-4.489,4.489-11.767,0-16.256c-4.489-4.489-11.767-4.489-16.256,0L363.686,428.734l-56.896-56.896l-16.256,16.256
	L355.558,453.118z"/>
<g>
</g>
<g>
</g>
<g>
</g>
<g>
</g>
<g>
</g>
<g>
</g>
<g>
</g>
<g>
</g>
<g>
</g>
<g>
</g>
<g>
</g>
<g>
</g>
<g>
</g>
<g>
</g>
<g>
</g>
</svg>
