<?xml version="1.0" encoding="iso-8859-1"?>
<!-- Generator: Adobe Illustrator 19.0.0, SVG Export Plug-In . SVG Version: 6.00 Build 0)  -->
<svg version="1.1" id="Layer_1" xmlns="http://www.w3.org/2000/svg" xmlns:xlink="http://www.w3.org/1999/xlink" x="0px" y="0px"
	 viewBox="0 0 512 512" style="enable-background:new 0 0 512 512;" xml:space="preserve">
<polygon style="fill:#FFCE47;" points="0,466.819 0,512 512,512 512,466.819 256,442.554 "/>
<polygon style="fill:#FFE290;" points="0,421.638 0,466.819 512,466.819 512,421.638 256,385.24 "/>
<polygon style="fill:#FFCE47;" points="0,376.458 0,421.638 512,421.638 512,376.458 256,340.06 "/>
<polygon style="fill:#FFE290;" points="0,331.277 0,376.458 512,376.458 512,331.277 256,294.879 "/>
<rect style="fill:#FFCE47;" width="512" height="331.283"/>
<g>
	<path style="fill:#174461;" d="M84.896,279.728c-6.7,0-12.133-5.432-12.133-12.133V63.682c0-6.701,5.433-12.133,12.133-12.133
		c6.7,0,12.133,5.432,12.133,12.133v203.914C97.029,274.296,91.596,279.728,84.896,279.728z"/>
	<path style="fill:#174461;" d="M145.56,279.728c-6.7,0-12.133-5.432-12.133-12.133V63.682c0-6.701,5.433-12.133,12.133-12.133
		s12.133,5.432,12.133,12.133v203.914C157.692,274.296,152.259,279.728,145.56,279.728z"/>
	<path style="fill:#174461;" d="M206.223,279.728c-6.7,0-12.133-5.432-12.133-12.133V63.682c0-6.701,5.433-12.133,12.133-12.133
		c6.7,0,12.133,5.432,12.133,12.133v203.914C218.356,274.296,212.923,279.728,206.223,279.728z"/>
	<path style="fill:#174461;" d="M266.887,279.728c-6.7,0-12.133-5.432-12.133-12.133V63.682c0-6.701,5.433-12.133,12.133-12.133
		s12.133,5.432,12.133,12.133v203.914C279.019,274.296,273.586,279.728,266.887,279.728z"/>
	<path style="fill:#174461;" d="M327.55,279.728c-6.7,0-12.133-5.432-12.133-12.133V141.373c0-6.701,5.433-12.133,12.133-12.133
		c6.7,0,12.133,5.432,12.133,12.133v126.223C339.683,274.296,334.25,279.728,327.55,279.728z"/>
</g>
<g>
</g>
<g>
</g>
<g>
</g>
<g>
</g>
<g>
</g>
<g>
</g>
<g>
</g>
<g>
</g>
<g>
</g>
<g>
</g>
<g>
</g>
<g>
</g>
<g>
</g>
<g>
</g>
<g>
</g>
</svg>
