<?xml version="1.0" encoding="iso-8859-1"?>
<!-- Generator: Adobe Illustrator 19.0.0, SVG Export Plug-In . SVG Version: 6.00 Build 0)  -->
<svg version="1.1" id="Layer_1" xmlns="http://www.w3.org/2000/svg" xmlns:xlink="http://www.w3.org/1999/xlink" x="0px" y="0px"
	 viewBox="0 0 512 512" style="enable-background:new 0 0 512 512;" xml:space="preserve">
<path style="fill:#4EB9FF;" d="M445.121,49.369H401.75v24.265h43.371c5.332,0,11.844,5.642,11.844,12.226v59.676
	c0,7.548-6.521,15.314-13.956,16.618L279.311,190.88c-19.081,3.349-34.027,21.146-34.027,40.518v75.897h24.265v-75.897
	c0-7.548,6.521-15.314,13.956-16.618l163.698-28.724c19.081-3.349,34.027-21.146,34.027-40.518V85.861
	C481.23,66.422,464.356,49.369,445.121,49.369z"/>
<path style="fill:#FF755C;" d="M293.67,346.249l10.498-63.219L293.67,346.249z"/>
<path style="fill:#4EB9FF;" d="M42.902,49.369c-6.7,0-12.133,5.432-12.133,12.133s5.433,12.133,12.133,12.133H85.59V49.369H42.902z"
	/>
<path style="fill:#FF4181;" d="M221.161,346.249v143.002c0,12.563,10.185,22.749,22.749,22.749h27.011
	c12.563,0,22.749-10.185,22.749-22.749V346.249l-36.254-24.265L221.161,346.249z M269.549,475.602
	c0,6.701-5.433,12.133-12.133,12.133s-12.133-5.432-12.133-12.133v-16.369c0-6.701,5.433-12.133,12.133-12.133
	s12.133,5.432,12.133,12.133V475.602z"/>
<polygon style="fill:#FF80AB;" points="210.663,283.029 221.161,346.249 293.67,346.249 304.168,283.029 "/>
<path style="fill:#FFCE47;" d="M426.016,92.557c0,16.816-13.632,30.448-30.448,30.448H91.773c-16.816,0-30.448-13.632-30.448-30.448
	V30.448C61.325,13.632,74.956,0,91.773,0h303.796c16.816,0,30.448,13.632,30.448,30.448v62.109H426.016z"/>
<g>
</g>
<g>
</g>
<g>
</g>
<g>
</g>
<g>
</g>
<g>
</g>
<g>
</g>
<g>
</g>
<g>
</g>
<g>
</g>
<g>
</g>
<g>
</g>
<g>
</g>
<g>
</g>
<g>
</g>
</svg>
