<?xml version="1.0" encoding="iso-8859-1"?>
<!-- Generator: Adobe Illustrator 19.0.0, SVG Export Plug-In . SVG Version: 6.00 Build 0)  -->
<svg version="1.1" id="Layer_1" xmlns="http://www.w3.org/2000/svg" xmlns:xlink="http://www.w3.org/1999/xlink" x="0px" y="0px"
	 viewBox="0 0 512 512" style="enable-background:new 0 0 512 512;" xml:space="preserve">
<polygon style="fill:#FFE290;" points="171.669,93.55 151.666,154.739 175.47,177.026 199.275,151.705 "/>
<polygon style="fill:#4EB9FF;" points="199.275,151.705 151.666,154.739 158.976,269.449 206.778,269.441 "/>
<path style="fill:#174461;" d="M183.546,92.792c-0.418-6.561-6.081-11.541-12.634-11.121c-6.56,0.418-11.539,6.075-11.121,12.634
	l1.897,29.775l23.755-1.512L183.546,92.792z"/>
<path style="fill:#FF4181;" d="M278.588,42.661c0,0,1.695-32.917-22.588-32.917c-24.282,0-22.588,32.917-22.588,32.917v9.93
	L256,77.386l22.588-24.795V42.661z"/>
<rect x="233.382" y="52.593" style="fill:#FF80AB;" width="45.227" height="228.514"/>
<path style="fill:#4EB9FF;" d="M347.06,0.028c-6.529-0.448-12.246,4.477-12.71,11.035l-6.038,85.615l23.745,1.673l6.038-85.615
	C358.557,6.181,353.618,0.49,347.06,0.028z"/>
<rect x="317.23" y="61.74" transform="matrix(-0.9975 -0.0704 0.0704 -0.9975 673.0367 214.9022)" style="fill:#3B8BC0;" width="46.152" height="67.702"/>
<polygon style="fill:#174461;" points="314.921,127.722 304.926,269.443 351.192,269.443 360.959,130.969 "/>
<rect x="314.877" y="117.425" transform="matrix(0.9975 0.0704 -0.0704 0.9975 9.9433 -23.4714)" style="fill:#4EB9FF;" width="46.152" height="23.803"/>
<polygon style="fill:#FF4181;" points="158.406,512 353.594,512 356.197,469.153 256,445.35 155.803,469.153 "/>
<polygon style="fill:#FF755C;" points="142.933,257.302 155.803,469.153 356.197,469.153 369.066,257.302 "/>
<g>
</g>
<g>
</g>
<g>
</g>
<g>
</g>
<g>
</g>
<g>
</g>
<g>
</g>
<g>
</g>
<g>
</g>
<g>
</g>
<g>
</g>
<g>
</g>
<g>
</g>
<g>
</g>
<g>
</g>
</svg>
