<?xml version="1.0" encoding="iso-8859-1"?>
<!-- Generator: Adobe Illustrator 19.0.0, SVG Export Plug-In . SVG Version: 6.00 Build 0)  -->
<svg version="1.1" id="Layer_1" xmlns="http://www.w3.org/2000/svg" xmlns:xlink="http://www.w3.org/1999/xlink" x="0px" y="0px"
	 viewBox="0 0 512 512" style="enable-background:new 0 0 512 512;" xml:space="preserve">
<rect x="35.759" y="450.888" style="fill:#174461;" width="440.478" height="61.112"/>
<path style="fill:#FF755C;" d="M324.005,68.005C324.005,30.447,293.558,0,256,0s-68.005,30.447-68.005,68.005
	c0,61.781,53.432,162.289,0,208.8L256,313.203l68.005-36.398C270.573,230.296,324.005,129.786,324.005,68.005z"/>
<rect x="187.996" y="276.808" style="fill:#FF9356;" width="136.008" height="96.698"/>
<path style="fill:#FFCE47;" d="M324.005,349.242h-136.01c-21.986,0-39.81,17.823-39.81,39.81L256,425.45l107.815-36.398
	C363.815,367.065,345.992,349.242,324.005,349.242z"/>
<rect y="389.047" style="fill:#FF9356;" width="512" height="86.105"/>
<g>
</g>
<g>
</g>
<g>
</g>
<g>
</g>
<g>
</g>
<g>
</g>
<g>
</g>
<g>
</g>
<g>
</g>
<g>
</g>
<g>
</g>
<g>
</g>
<g>
</g>
<g>
</g>
<g>
</g>
</svg>
