<?xml version="1.0" encoding="iso-8859-1"?>
<!-- Generator: Adobe Illustrator 19.0.0, SVG Export Plug-In . SVG Version: 6.00 Build 0)  -->
<svg version="1.1" id="Layer_1" xmlns="http://www.w3.org/2000/svg" xmlns:xlink="http://www.w3.org/1999/xlink" x="0px" y="0px"
	 viewBox="0 0 512 512" style="enable-background:new 0 0 512 512;" xml:space="preserve">
<rect x="101.247" y="65.601" style="fill:#174461;" width="309.517" height="162.651"/>
<g>
	<path style="fill:#3B8BC0;" d="M178.621,114.555c-6.701,0-12.133,5.432-12.133,12.133v77.294h24.265v-77.294
		C190.754,119.987,185.322,114.555,178.621,114.555z"/>
	<path style="fill:#3B8BC0;" d="M256,114.555c-6.701,0-12.133,5.432-12.133,12.133v77.294h24.265v-77.294
		C268.133,119.987,262.701,114.555,256,114.555z"/>
	<path style="fill:#3B8BC0;" d="M333.379,114.555c-6.701,0-12.133,5.432-12.133,12.133v77.294h24.265v-77.294
		C345.511,119.987,340.08,114.555,333.379,114.555z"/>
	<rect x="76.982" y="309.08" style="fill:#3B8BC0;" width="358.036" height="122.856"/>
</g>
<path style="fill:#4EB9FF;" d="M512,228.01v218.389H410.753v-14.462v-62.192H101.247v62.192v14.462H0V228.01
	c0-19.97,16.185-36.168,36.155-36.168h439.689C495.815,191.843,512,208.04,512,228.01z"/>
<g>
	<circle style="fill:#FFD86C;" cx="450.609" cy="250.43" r="12.133"/>
	<circle style="fill:#FFD86C;" cx="402.078" cy="250.43" r="12.133"/>
</g>
<path style="fill:#FFFFFF;" d="M410.753,343.708v26.037H101.247v-26.037c0-19.97,16.185-36.155,36.155-36.155h237.194
	C394.568,307.552,410.753,323.737,410.753,343.708z"/>
<g>
</g>
<g>
</g>
<g>
</g>
<g>
</g>
<g>
</g>
<g>
</g>
<g>
</g>
<g>
</g>
<g>
</g>
<g>
</g>
<g>
</g>
<g>
</g>
<g>
</g>
<g>
</g>
<g>
</g>
</svg>
