<?xml version="1.0" encoding="iso-8859-1"?>
<!-- Generator: Adobe Illustrator 19.0.0, SVG Export Plug-In . SVG Version: 6.00 Build 0)  -->
<svg version="1.1" id="Layer_1" xmlns="http://www.w3.org/2000/svg" xmlns:xlink="http://www.w3.org/1999/xlink" x="0px" y="0px"
	 viewBox="0 0 512 512" style="enable-background:new 0 0 512 512;" xml:space="preserve">
<path style="fill:#4EB9FF;" d="M335.247,351.055c0,82.49-66.872,149.362-149.363,149.362S36.522,433.545,36.522,351.055
	C36.523,256,185.886,11.584,185.886,11.584S335.247,256,335.247,351.055z"/>
<g>
	<path style="fill:#174461;" d="M263.279,276.68c-2.558-6.626-5.342-13.523-8.35-20.678l-138.087-0.003
		c-3.049,7.253-5.868,14.239-8.454,20.947c-17.816,46.22-19.739,67.223-19.739,74.108c0,53.616,43.62,97.236,97.235,97.236
		s97.235-43.62,97.235-97.236C283.12,344.15,281.187,323.08,263.279,276.68z"/>
	<path style="fill:#174461;" d="M463.895,0h-72.55c-6.397,0-11.584,5.186-11.584,11.584s5.187,11.584,11.584,11.584h60.966v58.304
		h-36.64c-6.397,0-11.584,5.186-11.584,11.584c0,6.398,5.187,11.584,11.584,11.584h36.64v58.304h-36.64
		c-6.397,0-11.584,5.186-11.584,11.584c0,6.398,5.187,11.584,11.584,11.584h36.64v58.305h-60.966
		c-6.397,0-11.584,5.186-11.584,11.584c0,6.398,5.187,11.584,11.584,11.584h60.966v58.304h-36.64
		c-6.397,0-11.584,5.186-11.584,11.584c0,6.398,5.187,11.584,11.584,11.584h36.64v58.304h-36.64
		c-6.397,0-11.584,5.186-11.584,11.584c0,6.398,5.187,11.584,11.584,11.584h36.64v58.305h-60.966
		c-6.397,0-11.584,5.186-11.584,11.584c0,6.398,5.187,11.584,11.584,11.584h72.55c6.397,0,11.584-5.186,11.584-11.584V11.584
		C475.478,5.186,470.291,0,463.895,0z"/>
</g>
<g>
</g>
<g>
</g>
<g>
</g>
<g>
</g>
<g>
</g>
<g>
</g>
<g>
</g>
<g>
</g>
<g>
</g>
<g>
</g>
<g>
</g>
<g>
</g>
<g>
</g>
<g>
</g>
<g>
</g>
</svg>
