<?xml version="1.0" encoding="iso-8859-1"?>
<!-- Generator: Adobe Illustrator 19.0.0, SVG Export Plug-In . SVG Version: 6.00 Build 0)  -->
<svg version="1.1" id="Layer_1" xmlns="http://www.w3.org/2000/svg" xmlns:xlink="http://www.w3.org/1999/xlink" x="0px" y="0px"
	 viewBox="0 0 512 512" style="enable-background:new 0 0 512 512;" xml:space="preserve">
<g>
	<rect x="456.19" y="146.26" style="fill:#174461;" width="24.265" height="323.215"/>
	<rect x="31.545" y="146.26" style="fill:#174461;" width="24.265" height="323.215"/>
</g>
<path style="fill:#4EB9FF;" d="M384,158.391h128V78.922c0-26.692-21.839-48.531-48.531-48.531H48.531
	C21.839,30.391,0,52.23,0,78.922v79.469h128H384z"/>
<g>
	<path style="fill:#3B8BC0;" d="M67.943,481.609H19.412c-6.7,0-12.133-5.432-12.133-12.133s5.433-12.133,12.133-12.133h48.531
		c6.7,0,12.133,5.432,12.133,12.133S74.643,481.609,67.943,481.609z"/>
	<path style="fill:#3B8BC0;" d="M492.588,481.609h-48.531c-6.7,0-12.133-5.432-12.133-12.133s5.433-12.133,12.133-12.133h48.531
		c6.7,0,12.133,5.432,12.133,12.133S499.287,481.609,492.588,481.609z"/>
</g>
<g>
	<circle style="fill:#FFD86C;" cx="468.322" cy="72.857" r="12.133"/>
	<circle style="fill:#FFD86C;" cx="468.322" cy="115.928" r="12.133"/>
</g>
<polygon style="fill:#FFCE47;" points="128,94.392 128,375.992 256,375.992 384,247.992 384,94.392 "/>
<path style="fill:#FFEBB4;" d="M384,247.992c0,70.697-57.303,128-128,128c24.993-24.993,37.49-57.752,37.49-90.51
	C326.248,285.482,359.007,272.986,384,247.992z"/>
<path style="fill:#FFFFFF;" d="M408.265,106.524H103.735c-6.7,0-12.133-5.432-12.133-12.133s5.433-12.133,12.133-12.133h304.531
	c6.7,0,12.133,5.432,12.133,12.133S414.965,106.524,408.265,106.524z"/>
<g>
</g>
<g>
</g>
<g>
</g>
<g>
</g>
<g>
</g>
<g>
</g>
<g>
</g>
<g>
</g>
<g>
</g>
<g>
</g>
<g>
</g>
<g>
</g>
<g>
</g>
<g>
</g>
<g>
</g>
</svg>
