<?xml version="1.0" encoding="iso-8859-1"?>
<!-- Generator: Adobe Illustrator 19.0.0, SVG Export Plug-In . SVG Version: 6.00 Build 0)  -->
<svg version="1.1" id="Layer_1" xmlns="http://www.w3.org/2000/svg" xmlns:xlink="http://www.w3.org/1999/xlink" x="0px" y="0px"
	 viewBox="0 0 512 512" style="enable-background:new 0 0 512 512;" xml:space="preserve">
<g>
	<path style="fill:#FF80AB;" d="M12.133,427.071C5.432,427.071,0,432.503,0,439.204c0,6.701,5.432,12.133,12.133,12.133h27.501
		v-24.265H12.133z"/>
	<path style="fill:#FF80AB;" d="M12.133,354.275C5.432,354.275,0,359.707,0,366.408s5.432,12.133,12.133,12.133h27.501v-24.265
		H12.133z"/>
	<path style="fill:#FF80AB;" d="M12.133,60.664C5.432,60.664,0,66.095,0,72.796c0,6.701,5.432,12.133,12.133,12.133h27.501V60.664
		H12.133z"/>
</g>
<path style="fill:#3B8BC0;" d="M487.735,24.265c13.407,0,24.265,10.859,24.265,24.265s-10.859,24.265-24.265,24.265H90.595V24.265
	H487.735z"/>
<path style="fill:#174461;" d="M487.735,72.796v143.263c0,11.393-9.233,20.626-20.626,20.626l-55.131-0.097
	c-36.192,0-65.541,29.349-65.541,65.553v164.968c0,11.393-9.233,20.626-20.626,20.626H90.595V72.796H487.735z"/>
<path style="fill:#FF4181;" d="M82.102,0H48.13C36.738,0,27.505,9.233,27.505,20.626v470.749c0,11.393,9.233,20.626,20.626,20.626
	h33.972c11.393,0,20.626-9.233,20.626-20.626V20.626C102.728,9.233,93.495,0,82.102,0z"/>
<g>
</g>
<g>
</g>
<g>
</g>
<g>
</g>
<g>
</g>
<g>
</g>
<g>
</g>
<g>
</g>
<g>
</g>
<g>
</g>
<g>
</g>
<g>
</g>
<g>
</g>
<g>
</g>
<g>
</g>
</svg>
