<?xml version="1.0" encoding="iso-8859-1"?>
<!-- Generator: Adobe Illustrator 19.0.0, SVG Export Plug-In . SVG Version: 6.00 Build 0)  -->
<svg version="1.1" id="Layer_1" xmlns="http://www.w3.org/2000/svg" xmlns:xlink="http://www.w3.org/1999/xlink" x="0px" y="0px"
	 viewBox="0 0 512 512" style="enable-background:new 0 0 512 512;" xml:space="preserve">
<g>
	<path style="fill:#4EB9FF;" d="M169.858,402.806c-6.7,0-12.133,5.433-12.133,12.133s5.433,12.133,12.133,12.133h177.137v-24.265
		H169.858z"/>
	<polygon style="fill:#4EB9FF;" points="499.867,462.254 499.867,367.618 390.686,363.981 378.549,414.938 390.673,465.896 	"/>
</g>
<g>
	<path style="fill:#3B8BC0;" d="M334.863,317.877V512c23.542-0.008,44.201-18.568,55.797-46.108l0.013-101.915
		C379.037,336.441,358.45,317.842,334.863,317.877z"/>
	<path style="fill:#3B8BC0;" d="M499.867,343.353c-6.701,0-12.133,5.433-12.133,12.133v118.9c0,6.7,5.432,12.133,12.133,12.133
		S512,481.086,512,474.386v-118.9C512,348.786,506.568,343.353,499.867,343.353z"/>
</g>
<path style="fill:#4EB9FF;" d="M169.858,84.929c-6.7,0-12.133,5.433-12.133,12.133c0,6.7,5.433,12.133,12.133,12.133h177.137V84.929
	H169.858z"/>
<polygon style="fill:#FFCE47;" points="499.867,144.377 499.867,49.742 390.686,46.104 378.549,97.062 390.673,148.019 "/>
<g>
	<path style="fill:#FFB14E;" d="M334.863,0v194.123c23.542-0.008,44.201-18.568,55.797-46.108l0.013-101.915
		C379.037,18.564,358.45-0.035,334.863,0z"/>
	<path style="fill:#FFB14E;" d="M499.867,25.476c-6.701,0-12.133,5.433-12.133,12.133v118.9c0,6.7,5.432,12.133,12.133,12.133
		S512,163.209,512,156.509v-118.9C512,30.909,506.568,25.476,499.867,25.476z"/>
</g>
<path style="fill:#4EB9FF;" d="M342.142,243.869H165.005v24.265h177.137c6.7,0,12.133-5.433,12.133-12.133
	S348.842,243.869,342.142,243.869z"/>
<polygon style="fill:#FF80AB;" points="12.133,208.686 12.133,303.321 121.314,306.959 133.451,256.001 121.327,205.044 "/>
<g>
	<path style="fill:#FF4181;" d="M177.137,158.94c-23.542,0.008-44.201,18.568-55.797,46.108l-0.013,101.915
		c11.636,27.536,32.223,46.136,55.81,46.101V158.94z"/>
	<path style="fill:#FF4181;" d="M12.133,327.587C5.432,327.587,0,322.154,0,315.454v-118.9c0-6.7,5.432-12.133,12.133-12.133
		s12.133,5.433,12.133,12.133v118.9C24.265,322.154,18.834,327.587,12.133,327.587z"/>
</g>
<g>
</g>
<g>
</g>
<g>
</g>
<g>
</g>
<g>
</g>
<g>
</g>
<g>
</g>
<g>
</g>
<g>
</g>
<g>
</g>
<g>
</g>
<g>
</g>
<g>
</g>
<g>
</g>
<g>
</g>
</svg>
