<?xml version="1.0" encoding="iso-8859-1"?>
<!-- Generator: Adobe Illustrator 19.0.0, SVG Export Plug-In . SVG Version: 6.00 Build 0)  -->
<svg version="1.1" id="Layer_1" xmlns="http://www.w3.org/2000/svg" xmlns:xlink="http://www.w3.org/1999/xlink" x="0px" y="0px"
	 viewBox="0 0 512 512" style="enable-background:new 0 0 512 512;" xml:space="preserve">
<g>
	<path style="fill:#4EB9FF;" d="M354.371,214.27c-4.122,0-8.126-2.153-10.311-5.992c-3.237-5.689-1.25-12.926,4.439-16.162
		l145.785-82.963c5.69-3.237,12.924-1.252,16.163,4.438c3.237,5.689,1.25,12.926-4.439,16.162l-145.785,82.963
		C358.372,213.77,356.359,214.27,354.371,214.27z"/>
	<path style="fill:#4EB9FF;" d="M354.371,290.168c-4.122,0-8.126-2.153-10.311-5.992c-3.237-5.689-1.25-12.926,4.439-16.162
		l145.785-82.963c5.69-3.237,12.924-1.25,16.163,4.438c3.237,5.689,1.25,12.926-4.439,16.162l-145.785,82.963
		C358.372,289.666,356.359,290.168,354.371,290.168z"/>
	<path style="fill:#4EB9FF;" d="M93.328,478.673v21.474c0,6.546,5.307,11.852,11.852,11.852s11.852-5.306,11.852-11.852v-45.178
		L93.328,478.673z"/>
	<path style="fill:#4EB9FF;" d="M362.532,454.969v45.178c0,6.546,5.307,11.852,11.852,11.852c6.545,0,11.852-5.306,11.852-11.852
		v-21.474L362.532,454.969z"/>
	<polygon style="fill:#4EB9FF;" points="93.333,119.456 128.888,208.593 93.333,312.699 0,263.585 0,119.456 	"/>
	<path style="fill:#4EB9FF;" d="M304.994,0.001v105.362L93.333,69.808V42.786c0-23.632,19.153-42.785,42.785-42.785
		C136.118,0.001,304.994,0.001,304.994,0.001z"/>
</g>
<polygon style="fill:#9AD7FF;" points="386.238,70.211 386.238,119.456 239.786,166.863 93.333,119.456 93.333,70.211 "/>
<polygon style="fill:#174461;" points="93.333,119.456 93.333,478.672 198.565,478.672 386.238,312.699 386.238,119.456 "/>
<polygon style="fill:#4EB9FF;" points="386.238,312.699 386.238,368.023 292.402,391.727 198.565,368.023 198.565,312.699 "/>
<polygon style="fill:#C2E7FF;" points="386.238,423.348 386.238,478.672 198.565,478.672 198.565,423.348 292.402,399.644 "/>
<rect x="198.565" y="368.022" style="fill:#9AD7FF;" width="187.673" height="55.324"/>
<g>
</g>
<g>
</g>
<g>
</g>
<g>
</g>
<g>
</g>
<g>
</g>
<g>
</g>
<g>
</g>
<g>
</g>
<g>
</g>
<g>
</g>
<g>
</g>
<g>
</g>
<g>
</g>
<g>
</g>
</svg>
