<?xml version="1.0" encoding="iso-8859-1"?>
<!-- Generator: Adobe Illustrator 19.0.0, SVG Export Plug-In . SVG Version: 6.00 Build 0)  -->
<svg version="1.1" id="Layer_1" xmlns="http://www.w3.org/2000/svg" xmlns:xlink="http://www.w3.org/1999/xlink" x="0px" y="0px"
	 viewBox="0 0 512 512" style="enable-background:new 0 0 512 512;" xml:space="preserve">
<rect style="fill:#9AD7FF;" width="512" height="512"/>
<path style="fill:#174461;" d="M485.105,263.528c0.082-0.103,0.158-0.21,0.237-0.315c0.221-0.297,0.427-0.604,0.62-0.922
	c0.061-0.099,0.124-0.198,0.182-0.298c0.476-0.835,0.852-1.729,1.12-2.672c0.033-0.115,0.059-0.231,0.089-0.346
	c0.092-0.364,0.167-0.735,0.224-1.113c0.019-0.129,0.042-0.256,0.059-0.386c0.059-0.484,0.098-0.975,0.098-1.477
	c0-0.501-0.04-0.991-0.098-1.477c-0.016-0.13-0.039-0.257-0.059-0.386c-0.058-0.377-0.133-0.747-0.224-1.113
	c-0.029-0.115-0.056-0.231-0.089-0.346c-0.268-0.943-0.644-1.837-1.12-2.672c-0.058-0.101-0.121-0.199-0.182-0.298
	c-0.193-0.318-0.399-0.625-0.62-0.922c-0.079-0.106-0.154-0.212-0.237-0.315c-0.294-0.371-0.603-0.729-0.937-1.062
	c-0.028-0.028-0.061-0.052-0.089-0.08c-0.315-0.308-0.65-0.596-0.999-0.869c-0.104-0.081-0.211-0.16-0.319-0.238
	c-0.326-0.239-0.664-0.462-1.013-0.669c-0.053-0.032-0.101-0.072-0.154-0.102l-0.205-0.116
	c-0.008-0.005-78.577-44.643-78.577-44.643c-5.829-3.313-13.233-1.27-16.543,4.556c-3.31,5.826-1.27,13.232,4.556,16.542
	l38.861,22.077H268.133V82.313l22.078,38.86c2.235,3.935,6.338,6.143,10.56,6.143c2.031,0,4.09-0.511,5.983-1.587
	c5.826-3.31,7.866-10.716,4.556-16.542l-44.76-78.782c-0.032-0.056-0.072-0.103-0.104-0.158c-0.206-0.349-0.428-0.685-0.667-1.011
	c-0.078-0.106-0.155-0.212-0.235-0.315c-0.277-0.353-0.568-0.693-0.882-1.012c-0.023-0.024-0.044-0.051-0.068-0.074
	c-0.335-0.336-0.695-0.647-1.069-0.943c-0.101-0.079-0.204-0.153-0.306-0.228c-0.301-0.224-0.613-0.433-0.934-0.628
	c-0.097-0.058-0.19-0.12-0.289-0.176c-0.836-0.477-1.733-0.854-2.676-1.122c-0.113-0.032-0.227-0.058-0.341-0.087
	c-0.366-0.092-0.738-0.167-1.116-0.226c-0.129-0.021-0.255-0.044-0.383-0.058c-0.485-0.061-0.977-0.101-1.478-0.101
	s-0.992,0.04-1.478,0.099c-0.129,0.016-0.256,0.039-0.383,0.058c-0.379,0.058-0.75,0.133-1.116,0.226
	c-0.114,0.029-0.228,0.056-0.341,0.087c-0.945,0.268-1.841,0.645-2.676,1.122c-0.098,0.056-0.193,0.118-0.289,0.176
	c-0.322,0.195-0.633,0.404-0.934,0.628c-0.102,0.076-0.206,0.149-0.306,0.228c-0.372,0.296-0.733,0.607-1.069,0.943
	c-0.023,0.024-0.044,0.051-0.068,0.074c-0.313,0.32-0.604,0.66-0.882,1.012c-0.081,0.103-0.158,0.209-0.235,0.315
	c-0.239,0.325-0.461,0.662-0.667,1.011c-0.033,0.055-0.073,0.102-0.104,0.158l-44.76,78.782c-3.31,5.826-1.27,13.232,4.556,16.542
	c5.826,3.311,13.232,1.27,16.543-4.556l22.078-38.859v161.554H82.313l38.86-22.078c5.826-3.31,7.866-10.716,4.556-16.542
	c-3.311-5.827-10.716-7.867-16.543-4.556l-78.781,44.76c-3.795,2.155-6.139,6.183-6.139,10.548c0,4.365,2.344,8.393,6.139,10.548
	l78.781,44.76c1.893,1.076,3.95,1.587,5.983,1.587c4.222,0,8.325-2.208,10.56-6.143c3.31-5.826,1.27-13.232-4.556-16.542
	l-38.86-22.078h161.554v161.554l-22.078-38.86c-3.311-5.829-10.717-7.868-16.543-4.556c-5.826,3.31-7.866,10.716-4.556,16.542
	l44.76,78.782c0.032,0.056,0.072,0.103,0.104,0.158c0.206,0.349,0.428,0.685,0.667,1.011c0.078,0.106,0.155,0.212,0.235,0.315
	c0.277,0.353,0.568,0.693,0.882,1.012c0.023,0.024,0.044,0.051,0.068,0.074c0.335,0.336,0.695,0.647,1.069,0.943
	c0.101,0.079,0.204,0.153,0.306,0.228c0.301,0.224,0.613,0.433,0.934,0.628c0.097,0.058,0.19,0.12,0.289,0.176
	c0.836,0.477,1.733,0.854,2.676,1.122c0.113,0.032,0.227,0.058,0.341,0.087c0.366,0.092,0.738,0.167,1.116,0.226
	c0.129,0.021,0.255,0.044,0.383,0.058c0.485,0.059,0.977,0.099,1.478,0.099c0.501,0,0.992-0.04,1.478-0.099
	c0.129-0.016,0.256-0.039,0.383-0.058c0.379-0.058,0.75-0.133,1.116-0.226c0.114-0.029,0.228-0.056,0.341-0.087
	c0.945-0.268,1.841-0.645,2.676-1.122c0.098-0.056,0.193-0.118,0.289-0.176c0.322-0.195,0.633-0.404,0.934-0.628
	c0.102-0.076,0.206-0.149,0.306-0.228c0.372-0.296,0.733-0.607,1.069-0.943c0.023-0.024,0.044-0.051,0.068-0.074
	c0.313-0.32,0.604-0.66,0.882-1.012c0.081-0.103,0.158-0.209,0.235-0.315c0.239-0.325,0.461-0.662,0.667-1.011
	c0.033-0.055,0.073-0.102,0.104-0.158l44.76-78.782c3.31-5.826,1.27-13.232-4.556-16.542c-5.829-3.315-13.232-1.272-16.543,4.556
	l-22.078,38.86V268.133h161.554l-38.86,22.078c-5.826,3.31-7.866,10.716-4.556,16.542c2.235,3.935,6.338,6.143,10.56,6.143
	c2.031,0,4.09-0.511,5.983-1.587l78.569-44.639c0.008-0.005,0.212-0.121,0.212-0.121c0.055-0.03,0.101-0.07,0.154-0.102
	c0.349-0.206,0.687-0.43,1.013-0.668c0.108-0.078,0.215-0.157,0.319-0.238c0.347-0.273,0.683-0.561,0.999-0.869
	c0.028-0.028,0.061-0.052,0.089-0.08C484.504,264.256,484.812,263.898,485.105,263.528z"/>
<g>
</g>
<g>
</g>
<g>
</g>
<g>
</g>
<g>
</g>
<g>
</g>
<g>
</g>
<g>
</g>
<g>
</g>
<g>
</g>
<g>
</g>
<g>
</g>
<g>
</g>
<g>
</g>
<g>
</g>
</svg>
