<?xml version="1.0" encoding="iso-8859-1"?>
<!-- Generator: Adobe Illustrator 19.0.0, SVG Export Plug-In . SVG Version: 6.00 Build 0)  -->
<svg version="1.1" id="Layer_1" xmlns="http://www.w3.org/2000/svg" xmlns:xlink="http://www.w3.org/1999/xlink" x="0px" y="0px"
	 viewBox="0 0 512 512" style="enable-background:new 0 0 512 512;" xml:space="preserve">
<polygon style="fill:#174461;" points="27.676,296.951 27.676,327.09 51.786,351.2 51.786,248.731 "/>
<polygon style="fill:#9AD7FF;" points="489.326,504.219 27.676,504.219 27.676,446.119 489.326,409.954 "/>
<path d="M450.88,399.262c-6.98,0-12.658-5.678-12.658-12.658s5.678-12.658,12.658-12.658s12.658,5.678,12.658,12.658
	S457.86,399.262,450.88,399.262z M450.88,375.152c-6.314,0-11.452,5.138-11.452,11.452s5.138,11.452,11.452,11.452
	s11.452-5.138,11.452-11.452S457.194,375.152,450.88,375.152z"/>
<path d="M402.66,399.262c-6.98,0-12.658-5.678-12.658-12.658s5.678-12.658,12.658-12.658s12.658,5.678,12.658,12.658
	S409.64,399.262,402.66,399.262z M402.66,375.152c-6.314,0-11.452,5.138-11.452,11.452s5.138,11.452,11.452,11.452
	c6.314,0,11.452-5.138,11.452-11.452S408.974,375.152,402.66,375.152z"/>
<g>
	<path style="fill:#FFCE47;" d="M271.477,290.925c-6.658,0-12.055-5.397-12.055-12.055v-48.185c0-6.658,5.397-12.055,12.055-12.055
		c6.658,0,12.055,5.397,12.055,12.055v48.185C283.532,285.527,278.135,290.925,271.477,290.925z"/>
	<path style="fill:#FFCE47;" d="M223.257,290.925c-6.658,0-12.055-5.397-12.055-12.055v-48.185c0-6.658,5.397-12.055,12.055-12.055
		c6.658,0,12.055,5.397,12.055,12.055v48.185C235.312,285.527,229.915,290.925,223.257,290.925z"/>
	<path style="fill:#FFCE47;" d="M319.697,290.925c-6.658,0-12.055-5.397-12.055-12.055v-48.185c0-6.658,5.397-12.055,12.055-12.055
		s12.055,5.397,12.055,12.055v48.185C331.752,285.527,326.355,290.925,319.697,290.925z"/>
</g>
<g>
	<path style="fill:#4EB9FF;" d="M489.326,327.089H27.676v119.03H512v-96.356C512,337.24,501.849,327.089,489.326,327.089z"/>
	<path style="fill:#4EB9FF;" d="M351.546,11.271L0,257.425l27.676,39.526L395.022,39.734l-16.613-23.727
		C372.298,7.282,360.272,5.161,351.546,11.271z"/>
</g>
<g>
</g>
<g>
</g>
<g>
</g>
<g>
</g>
<g>
</g>
<g>
</g>
<g>
</g>
<g>
</g>
<g>
</g>
<g>
</g>
<g>
</g>
<g>
</g>
<g>
</g>
<g>
</g>
<g>
</g>
</svg>
