<?xml version="1.0" encoding="iso-8859-1"?>
<!-- Generator: Adobe Illustrator 19.0.0, SVG Export Plug-In . SVG Version: 6.00 Build 0)  -->
<svg version="1.1" id="Layer_1" xmlns="http://www.w3.org/2000/svg" xmlns:xlink="http://www.w3.org/1999/xlink" x="0px" y="0px"
	 viewBox="0 0 512 512" style="enable-background:new 0 0 512 512;" xml:space="preserve">
<g>
	<polygon style="fill:#FFB14E;" points="182.075,27.905 182.075,175.269 142.038,175.269 142.038,40.038 	"/>
	<polygon style="fill:#FFB14E;" points="364.066,40.038 364.066,175.269 324.028,175.269 324.028,27.905 	"/>
</g>
<g>
	<polygon style="fill:#FF755C;" points="364.066,40.038 142.038,40.038 182.075,0 324.028,0 	"/>
	<polygon style="fill:#FF755C;" points="63.757,151.004 63.757,393.609 256,430.007 448.243,393.609 448.243,151.004 	"/>
	<polygon style="fill:#FF755C;" points="448.243,393.609 448.243,512 321.432,452.805 	"/>
	<polygon style="fill:#FF755C;" points="190.568,452.805 63.757,512 63.757,393.609 	"/>
</g>
<polygon style="fill:#FFB14E;" points="448.243,393.609 369.962,452.805 256,477.07 142.038,452.805 63.757,393.609 "/>
<polygon style="fill:#FFD86C;" points="448.243,512 63.757,512 142.038,452.805 369.962,452.805 "/>
<g>
</g>
<g>
</g>
<g>
</g>
<g>
</g>
<g>
</g>
<g>
</g>
<g>
</g>
<g>
</g>
<g>
</g>
<g>
</g>
<g>
</g>
<g>
</g>
<g>
</g>
<g>
</g>
<g>
</g>
</svg>
