<?xml version="1.0" encoding="iso-8859-1"?>
<!-- Generator: Adobe Illustrator 19.0.0, SVG Export Plug-In . SVG Version: 6.00 Build 0)  -->
<svg version="1.1" id="Layer_1" xmlns="http://www.w3.org/2000/svg" xmlns:xlink="http://www.w3.org/1999/xlink" x="0px" y="0px"
	 viewBox="0 0 512 512" style="enable-background:new 0 0 512 512;" xml:space="preserve">
<g>
	<path style="fill:#3B8BC0;" d="M296.696,200.573l-68.945,6.032l1.043,24.221c0.354,0,0.711-0.016,1.071-0.047l68.945-6.032
		L296.696,200.573z"/>
	
		<rect x="93.091" y="239.258" transform="matrix(-0.9962 0.0871 -0.0871 -0.9962 234.1727 543.7405)" style="fill:#3B8BC0;" width="24.265" height="75.441"/>
</g>
<polygon style="fill:#9AD7FF;" points="17.552,313.464 22.05,364.873 91.687,376.933 296.841,358.984 345.365,284.785 "/>
<g>
	<polygon style="fill:#3B8BC0;" points="334.286,61.048 292.206,58.658 299.92,146.82 341.294,141.147 	"/>
	<path style="fill:#3B8BC0;" d="M382.607,363.816l-1.071-12.242l-26.241-21.512l3.138,35.868
		c0.553,6.316,5.849,11.077,12.073,11.077c0.354,0,0.711-0.016,1.071-0.047C378.254,376.376,383.191,370.49,382.607,363.816z"/>
</g>
<g>
	
		<rect x="287.12" y="136.09" transform="matrix(-0.9962 0.0872 -0.0872 -0.9962 679.4037 462.0944)" style="fill:#4EB9FF;" width="84.978" height="219.592"/>
	
		<rect x="64.52" y="206.663" transform="matrix(-0.9962 0.0872 -0.0872 -0.9962 326.3525 436.2672)" style="fill:#4EB9FF;" width="178.255" height="37.198"/>
</g>
<g>
	<path style="fill:#3B8BC0;" d="M67.51,275.785c-6.223,0-11.52-4.761-12.073-11.076l-5.358-61.229
		c-0.584-6.675,4.353-12.561,11.029-13.145c6.681-0.588,12.56,4.354,13.143,11.029l5.358,61.229
		c0.584,6.675-4.353,12.561-11.029,13.145C68.221,275.769,67.864,275.785,67.51,275.785z"/>
	<polygon style="fill:#3B8BC0;" points="91.687,364.873 0,364.873 0,441.742 91.687,466.007 	"/>
</g>
<path style="fill:#9AD7FF;" d="M367.429,12.248l-115.665,10.12c-27.99,2.448-48.696,27.125-46.246,55.115l217.026-18.988
	C420.096,30.505,395.419,9.8,367.429,12.248z"/>
<path style="fill:#4EB9FF;" d="M453.793,441.742H0v58.207h512C512,467.802,485.94,441.742,453.793,441.742z"/>
<g>
</g>
<g>
</g>
<g>
</g>
<g>
</g>
<g>
</g>
<g>
</g>
<g>
</g>
<g>
</g>
<g>
</g>
<g>
</g>
<g>
</g>
<g>
</g>
<g>
</g>
<g>
</g>
<g>
</g>
</svg>
