<?xml version="1.0" encoding="iso-8859-1"?>
<!-- Generator: Adobe Illustrator 19.0.0, SVG Export Plug-In . SVG Version: 6.00 Build 0)  -->
<svg version="1.1" id="Layer_1" xmlns="http://www.w3.org/2000/svg" xmlns:xlink="http://www.w3.org/1999/xlink" x="0px" y="0px"
	 viewBox="0 0 512 512" style="enable-background:new 0 0 512 512;" xml:space="preserve">
<path style="fill:#9AD7FF;" d="M299.779,322.638c8.561-23.522,3.288-48.706-11.662-66.64H93.509v87.962l337.511,98.578
	l23.183-63.697L299.779,322.638z"/>
<path style="fill:#4EB9FF;" d="M454.204,133.156L431.021,69.46L93.509,192.304c-35.178,12.804-53.316,51.701-40.512,86.879
	s51.7,53.315,86.879,40.512l119.392-43.456c35.178-12.804,53.316-51.7,40.512-86.877L454.204,133.156z"/>
<path style="fill:#9AD7FF;" d="M479.715,167.772l-41.71-114.595l-22.801,8.299l41.71,114.595c1.793,4.928,6.446,7.987,11.401,7.987
	c1.378,0,2.778-0.237,4.148-0.735C478.761,181.031,482.006,174.069,479.715,167.772z"/>
<circle style="fill:#174461;" cx="116.692" cy="256" r="17.635"/>
<path style="fill:#FFCE47;" d="M441.885,1.999L40.416,148.122c-17.128,6.234-25.959,25.173-19.725,42.301l9.123,25.065
	L493.308,46.79l-9.123-25.065C477.95,4.596,459.013-4.234,441.885,1.999z"/>
<path style="fill:#4EB9FF;" d="M472.463,328.677c-6.294-2.292-13.26,0.955-15.549,7.252l-41.71,114.595l22.801,8.299l41.71-114.595
	C482.006,337.931,478.761,330.969,472.463,328.677z"/>
<path style="fill:#FFCE47;" d="M484.185,490.275l9.123-25.065L29.813,296.512l-9.123,25.065
	c-6.234,17.128,2.598,36.067,19.725,42.301L441.885,510C459.013,516.234,477.95,507.404,484.185,490.275z"/>
<g>
</g>
<g>
</g>
<g>
</g>
<g>
</g>
<g>
</g>
<g>
</g>
<g>
</g>
<g>
</g>
<g>
</g>
<g>
</g>
<g>
</g>
<g>
</g>
<g>
</g>
<g>
</g>
<g>
</g>
</svg>
