<?xml version="1.0" encoding="iso-8859-1"?>
<!-- Generator: Adobe Illustrator 19.0.0, SVG Export Plug-In . SVG Version: 6.00 Build 0)  -->
<svg version="1.1" id="Layer_1" xmlns="http://www.w3.org/2000/svg" xmlns:xlink="http://www.w3.org/1999/xlink" x="0px" y="0px"
	 viewBox="0 0 512 512" style="enable-background:new 0 0 512 512;" xml:space="preserve">
<polygon style="fill:#FFCE47;" points="58.084,418.573 0,476.679 59.608,503.901 101.524,462.015 "/>
<path style="fill:#174461;" d="M81.797,310.755c0,0-0.865,65.94-45.364,110.439c-4.297,4.297-1.128,8.918-1.128,8.918l54.681,54.681
	c0,0,4.62,3.169,8.918-1.128c44.499-44.499,110.439-45.364,110.439-45.364l-29.456-98.089L81.797,310.755z"/>
<path style="fill:#FFCE47;" d="M504.851,105.644l-13.773-13.772l-57.164-5.689l-5.689-57.164l-13.772-13.772
	c-9.999-9.44-22.251-9.004-31.476-1.776C281.973,96.58,71.48,300.438,71.48,300.438l148.179,148.18
	c0,0,203.859-210.493,286.968-311.497C513.855,127.896,514.292,115.643,504.851,105.644z"/>
<path style="fill:#FFE290;" d="M428.226,29.019L198.512,258.734c-9.117,9.117-9.117,23.898,0,33.014l29.839,29.838
	c9.117,9.117,23.898,9.117,33.014,0L491.08,91.872L428.226,29.019z"/>
<g>
</g>
<g>
</g>
<g>
</g>
<g>
</g>
<g>
</g>
<g>
</g>
<g>
</g>
<g>
</g>
<g>
</g>
<g>
</g>
<g>
</g>
<g>
</g>
<g>
</g>
<g>
</g>
<g>
</g>
</svg>
