<?xml version="1.0" encoding="iso-8859-1"?>
<!-- Generator: Adobe Illustrator 19.0.0, SVG Export Plug-In . SVG Version: 6.00 Build 0)  -->
<svg version="1.1" id="Layer_1" xmlns="http://www.w3.org/2000/svg" xmlns:xlink="http://www.w3.org/1999/xlink" x="0px" y="0px"
	 viewBox="0 0 512 512" style="enable-background:new 0 0 512 512;" xml:space="preserve">
<path style="fill:#174461;" d="M512,358.453c0,21.354-17.471,38.825-38.825,38.825H38.825C17.471,397.278,0,379.807,0,358.453V45.43
	C0,24.076,17.471,6.605,38.825,6.605h434.351C494.529,6.605,512,24.076,512,45.43V358.453z"/>
<g>
	<circle style="fill:#4EB9FF;" cx="47.56" cy="201.937" r="23.052"/>
	<path style="fill:#4EB9FF;" d="M58.475,164.24H36.636c-6.7,0-12.133-5.433-12.133-12.133c0-6.7,5.433-12.133,12.133-12.133h21.839
		c6.7,0,12.133,5.433,12.133,12.133C70.607,158.809,65.176,164.24,58.475,164.24z"/>
	<path style="fill:#4EB9FF;" d="M58.475,125.416H36.636c-6.7,0-12.133-5.433-12.133-12.133c0-6.7,5.433-12.133,12.133-12.133h21.839
		c6.7,0,12.133,5.433,12.133,12.133C70.607,119.983,65.176,125.416,58.475,125.416z"/>
	<path style="fill:#4EB9FF;" d="M58.475,302.733H36.636c-6.7,0-12.133-5.433-12.133-12.133c0-6.7,5.433-12.133,12.133-12.133h21.839
		c6.7,0,12.133,5.433,12.133,12.133C70.607,297.3,65.176,302.733,58.475,302.733z"/>
	<path style="fill:#4EB9FF;" d="M58.475,263.908H36.636c-6.7,0-12.133-5.433-12.133-12.133c0-6.7,5.433-12.133,12.133-12.133h21.839
		c6.7,0,12.133,5.433,12.133,12.133C70.607,258.475,65.176,263.908,58.475,263.908z"/>
</g>
<g>
	<rect x="95.848" y="55.131" style="fill:#3B8BC0;" width="367.621" height="293.611"/>
	<path style="fill:#3B8BC0;" d="M450.123,465.964h-45.33v30.332h45.33c8.376,0,15.166-6.791,15.166-15.166
		S458.5,465.964,450.123,465.964z"/>
</g>
<g>
	<polygon style="fill:#174461;" points="58.844,476.609 58.844,485.651 123.147,505.395 147.412,481.13 123.147,456.864 	"/>
	<polygon style="fill:#174461;" points="428.891,459.897 239.621,458.02 215.355,481.13 239.621,504.24 428.891,502.362 	"/>
</g>
<polygon style="fill:#3B8BC0;" points="123.147,456.864 123.147,505.395 239.621,504.24 239.621,458.02 "/>
<path style="fill:#4EB9FF;" d="M58.844,468.997c-6.7,0-12.133,5.433-12.133,12.133s5.433,12.133,12.133,12.133h24.79v-24.265H58.844
	z"/>
<g>
</g>
<g>
</g>
<g>
</g>
<g>
</g>
<g>
</g>
<g>
</g>
<g>
</g>
<g>
</g>
<g>
</g>
<g>
</g>
<g>
</g>
<g>
</g>
<g>
</g>
<g>
</g>
<g>
</g>
</svg>
