<?xml version="1.0" encoding="iso-8859-1"?>
<!-- Generator: Adobe Illustrator 19.0.0, SVG Export Plug-In . SVG Version: 6.00 Build 0)  -->
<svg version="1.1" id="Layer_1" xmlns="http://www.w3.org/2000/svg" xmlns:xlink="http://www.w3.org/1999/xlink" x="0px" y="0px"
	 viewBox="0 0 512 512" style="enable-background:new 0 0 512 512;" xml:space="preserve">
<rect x="314.222" y="34.196" transform="matrix(-0.7071 -0.7071 0.7071 -0.7071 594.7856 477.7029)" style="fill:#4EB9FF;" width="164.213" height="162.943"/>
<path style="fill:#FF80AB;" d="M85.366,449.475l-33.852,33.852c-6.297,6.297-16.541,6.297-22.838,0
	c-6.297-6.297-6.297-16.541,0-22.838l33.852-33.852l-16.943-16.943l-33.852,33.853c-15.639,15.639-15.638,41.084,0,56.723
	c15.639,15.639,41.085,15.639,56.723,0l33.852-33.852L85.366,449.475z"/>
<path style="fill:#FF4181;" d="M283.295,83.968L21.847,345.415c-20.552,20.552-20.552,53.874,0,74.427l70.315,70.315
	c20.552,20.552,53.875,20.552,74.427,0L428.037,228.71L283.295,83.968z"/>
<rect x="131.64" y="261.506" transform="matrix(-0.7071 0.7071 -0.7071 -0.7071 577.651 353.4909)" style="fill:#FFFFFF;" width="167.951" height="69.749"/>
<rect x="268.171" y="185.652" transform="matrix(-0.7071 0.7071 -0.7071 -0.7071 653.5151 170.3588)" style="fill:#FF80AB;" width="46.609" height="69.749"/>
<path style="fill:#FFC0D5;" d="M300.76,274.739c-3.067,0-6.132-1.169-8.471-3.509l-51.516-51.516
	c-4.678-4.678-4.678-12.264,0-16.944s12.264-4.678,16.944,0l51.516,51.516c4.678,4.678,4.678,12.264,0,16.944
	C306.893,273.57,303.827,274.739,300.76,274.739z"/>
<g>
	<path style="fill:#174461;" d="M373.942,110.261c-3.067,0-6.132-1.169-8.471-3.509c-4.678-4.678-4.678-12.264,0-16.944
		l21.946-21.946c4.68-4.678,12.263-4.678,16.944,0c4.678,4.678,4.678,12.264,0,16.944l-21.946,21.946
		C380.075,109.092,377.009,110.261,373.942,110.261z"/>
	<path style="fill:#174461;" d="M413.723,150.042c-3.067,0-6.132-1.169-8.471-3.509c-4.678-4.678-4.678-12.264,0-16.944
		l21.946-21.946c4.68-4.678,12.263-4.678,16.944,0c4.678,4.678,4.678,12.264,0,16.944l-21.946,21.946
		C419.855,148.873,416.79,150.042,413.723,150.042z"/>
</g>
<g>
</g>
<g>
</g>
<g>
</g>
<g>
</g>
<g>
</g>
<g>
</g>
<g>
</g>
<g>
</g>
<g>
</g>
<g>
</g>
<g>
</g>
<g>
</g>
<g>
</g>
<g>
</g>
<g>
</g>
</svg>
