<?xml version="1.0" encoding="iso-8859-1"?>
<!-- Generator: Adobe Illustrator 19.0.0, SVG Export Plug-In . SVG Version: 6.00 Build 0)  -->
<svg version="1.1" id="Layer_1" xmlns="http://www.w3.org/2000/svg" xmlns:xlink="http://www.w3.org/1999/xlink" x="0px" y="0px"
	 viewBox="0 0 512 512" style="enable-background:new 0 0 512 512;" xml:space="preserve">
<rect x="194.633" y="366.844" style="fill:#9AD7FF;" width="122.734" height="112.858"/>
<path style="fill:#4EB9FF;" d="M512,50.349v276.177l-256,36.398L0,326.526V50.349c0-16.67,13.516-30.186,30.186-30.186h451.628
	C498.484,20.163,512,33.679,512,50.349z"/>
<rect x="174.808" y="117.153" style="fill:#FFFFFF;" width="162.384" height="112.385"/>
<g>
	<path style="fill:#C2E7FF;" d="M512,326.526v22.264c0,16.67-13.516,30.186-30.186,30.186H30.186C13.516,378.976,0,365.46,0,348.79
		v-22.264H512z"/>
	<path style="fill:#C2E7FF;" d="M374.665,491.837h-237.33c-6.7,0-12.133-5.432-12.133-12.133s5.433-12.133,12.133-12.133h237.329
		c6.7,0,12.133,5.432,12.133,12.133S381.365,491.837,374.665,491.837z"/>
</g>
<path style="fill:#3B8BC0;" d="M337.194,241.665H174.806c-6.7,0-12.133-5.432-12.133-12.133V117.149
	c0-6.701,5.433-12.133,12.133-12.133h162.389c6.7,0,12.133,5.432,12.133,12.133v112.384
	C349.327,236.233,343.894,241.665,337.194,241.665z M186.938,217.4h138.124v-88.119H186.938V217.4z"/>
<g>
	<path style="fill:#174461;" d="M381.64,129.281h-8.495c-6.7,0-12.133-5.432-12.133-12.133c0-6.701,5.433-12.133,12.133-12.133
		h8.495c6.7,0,12.133,5.432,12.133,12.133C393.773,123.849,388.34,129.281,381.64,129.281z"/>
	<path style="fill:#174461;" d="M337.194,93.331c-6.7,0-12.133-5.432-12.133-12.133v-8.494c0-6.701,5.433-12.133,12.133-12.133
		c6.7,0,12.133,5.432,12.133,12.133v8.494C349.327,87.899,343.894,93.331,337.194,93.331z"/>
	<path style="fill:#174461;" d="M381.64,241.665h-8.495c-6.7,0-12.133-5.432-12.133-12.133c0-6.701,5.433-12.133,12.133-12.133
		h8.495c6.7,0,12.133,5.432,12.133,12.133C393.773,236.233,388.34,241.665,381.64,241.665z"/>
	<path style="fill:#174461;" d="M337.194,286.111c-6.7,0-12.133-5.432-12.133-12.133v-8.494c0-6.701,5.433-12.133,12.133-12.133
		c6.7,0,12.133,5.432,12.133,12.133v8.494C349.327,280.679,343.894,286.111,337.194,286.111z"/>
	<path style="fill:#174461;" d="M138.855,129.281h-8.495c-6.7,0-12.133-5.432-12.133-12.133c0-6.701,5.433-12.133,12.133-12.133
		h8.495c6.7,0,12.133,5.432,12.133,12.133C150.988,123.849,145.556,129.281,138.855,129.281z"/>
	<path style="fill:#174461;" d="M174.806,93.331c-6.7,0-12.133-5.432-12.133-12.133v-8.494c0-6.701,5.433-12.133,12.133-12.133
		c6.7,0,12.133,5.432,12.133,12.133v8.494C186.938,87.899,181.506,93.331,174.806,93.331z"/>
	<path style="fill:#174461;" d="M138.855,241.665h-8.495c-6.7,0-12.133-5.432-12.133-12.133c0-6.701,5.433-12.133,12.133-12.133
		h8.495c6.7,0,12.133,5.432,12.133,12.133C150.988,236.233,145.556,241.665,138.855,241.665z"/>
	<path style="fill:#174461;" d="M174.806,286.111c-6.7,0-12.133-5.432-12.133-12.133v-8.494c0-6.701,5.433-12.133,12.133-12.133
		c6.7,0,12.133,5.432,12.133,12.133v8.494C186.938,280.679,181.506,286.111,174.806,286.111z"/>
</g>
<g>
</g>
<g>
</g>
<g>
</g>
<g>
</g>
<g>
</g>
<g>
</g>
<g>
</g>
<g>
</g>
<g>
</g>
<g>
</g>
<g>
</g>
<g>
</g>
<g>
</g>
<g>
</g>
<g>
</g>
</svg>
