<?xml version="1.0" encoding="iso-8859-1"?>
<!-- Generator: Adobe Illustrator 19.0.0, SVG Export Plug-In . SVG Version: 6.00 Build 0)  -->
<svg version="1.1" id="Layer_1" xmlns="http://www.w3.org/2000/svg" xmlns:xlink="http://www.w3.org/1999/xlink" x="0px" y="0px"
	 viewBox="0 0 512 512" style="enable-background:new 0 0 512 512;" xml:space="preserve">
<g>
	<polygon style="fill:#FF755C;" points="0,436.948 75.052,512 135.109,497.778 91.823,420.177 14.222,376.891 	"/>
	<polygon style="fill:#FF755C;" points="511.996,75.055 436.945,0.004 376.888,14.226 420.174,91.826 497.774,135.112 	"/>
</g>
<g>
	<polygon style="fill:#FF9356;" points="497.778,135.116 376.884,14.222 255.998,135.109 299.287,212.713 376.891,256.002 	"/>
	<polygon style="fill:#FF9356;" points="14.218,376.888 135.112,497.782 255.998,376.896 212.709,299.291 135.104,256.002 	"/>
</g>
<g>
	<polygon style="fill:#FF755C;" points="256.002,376.9 241.784,436.945 316.836,511.996 376.879,497.777 333.6,420.181 	"/>
	<polygon style="fill:#FF755C;" points="512,316.832 436.948,241.78 376.891,256.002 420.177,333.603 497.778,376.888 	"/>
</g>
<path style="fill:#FF9356;" d="M497.778,376.888L376.891,256.001l-77.606,43.288l-43.281,77.597
	c-0.004,0.012,120.873,120.889,120.873,120.889C376.891,497.774,497.778,376.888,497.778,376.888z"/>
<g>
	<polygon style="fill:#FF755C;" points="135.1,255.998 75.055,270.216 0.004,195.164 14.223,135.121 91.819,178.4 	"/>
	<polygon style="fill:#FF755C;" points="195.168,0 270.22,75.052 255.998,135.109 178.397,91.824 135.112,14.222 	"/>
</g>
<path style="fill:#FF9356;" d="M135.112,14.222l120.887,120.887l-43.288,77.606l-77.597,43.281
	c-0.012,0.004-120.889-120.873-120.889-120.873C14.226,135.109,135.112,14.222,135.112,14.222z"/>
<rect x="170.509" y="170.514" transform="matrix(-0.7071 0.7071 -0.7071 -0.7071 618.0308 256.0033)" style="fill:#FFB14E;" width="170.972" height="170.972"/>
<g>
</g>
<g>
</g>
<g>
</g>
<g>
</g>
<g>
</g>
<g>
</g>
<g>
</g>
<g>
</g>
<g>
</g>
<g>
</g>
<g>
</g>
<g>
</g>
<g>
</g>
<g>
</g>
<g>
</g>
</svg>
