<?xml version="1.0" encoding="iso-8859-1"?>
<!-- Generator: Adobe Illustrator 19.0.0, SVG Export Plug-In . SVG Version: 6.00 Build 0)  -->
<svg version="1.1" id="Layer_1" xmlns="http://www.w3.org/2000/svg" xmlns:xlink="http://www.w3.org/1999/xlink" x="0px" y="0px"
	 viewBox="0 0 512 512" style="enable-background:new 0 0 512 512;" xml:space="preserve">
<rect x="110.932" style="fill:#174461;" width="290.138" height="141.094"/>
<g>
	<path style="fill:#3B8BC0;" d="M183.465,45.89c-6.281,0-11.373,5.092-11.373,11.373v83.827h22.746V57.263
		C194.838,50.982,189.746,45.89,183.465,45.89z"/>
	<path style="fill:#3B8BC0;" d="M255.999,45.89c-6.281,0-11.373,5.092-11.373,11.373v83.827h22.746V57.263
		C267.372,50.982,262.28,45.89,255.999,45.89z"/>
	<path style="fill:#3B8BC0;" d="M328.533,45.89c-6.281,0-11.373,5.092-11.373,11.373v83.827h22.746V57.263
		C339.906,50.982,334.814,45.89,328.533,45.89z"/>
</g>
<path style="fill:#4EB9FF;" d="M462.076,118.345H49.923c-18.719,0-33.894,15.175-33.894,33.894v204.721h479.943V152.239
	C495.97,133.52,480.795,118.345,462.076,118.345z"/>
<g>
	<circle style="fill:#FFD86C;" cx="438.431" cy="173.257" r="11.373"/>
	<circle style="fill:#FFD86C;" cx="392.938" cy="173.257" r="11.373"/>
</g>
<polygon style="fill:#FFCE47;" points="401.067,512 110.932,512 110.932,285.104 255.999,250.985 401.067,285.104 "/>
<g>
	<path style="fill:#174461;" d="M346.835,466.649H165.162c-6.281,0-11.373-5.092-11.373-11.373s5.092-11.373,11.373-11.373h181.673
		c6.281,0,11.373,5.092,11.373,11.373S353.117,466.649,346.835,466.649z"/>
	<path style="fill:#174461;" d="M346.835,409.925H165.162c-6.281,0-11.373-5.092-11.373-11.373c0-6.281,5.092-11.373,11.373-11.373
		h181.673c6.281,0,11.373,5.092,11.373,11.373C358.208,404.833,353.117,409.925,346.835,409.925z"/>
	<path style="fill:#174461;" d="M346.835,353.201h-90.837c-6.281,0-11.373-5.092-11.373-11.373s5.092-11.373,11.373-11.373h90.837
		c6.281,0,11.373,5.092,11.373,11.373S353.117,353.201,346.835,353.201z"/>
</g>
<path style="fill:#FFFFFF;" d="M367.173,226.806H144.826c-18.719,0-33.894,15.175-33.894,33.894v24.404h290.134V260.7
	C401.067,241.981,385.892,226.806,367.173,226.806z"/>
<g>
</g>
<g>
</g>
<g>
</g>
<g>
</g>
<g>
</g>
<g>
</g>
<g>
</g>
<g>
</g>
<g>
</g>
<g>
</g>
<g>
</g>
<g>
</g>
<g>
</g>
<g>
</g>
<g>
</g>
</svg>
