<?xml version="1.0" encoding="iso-8859-1"?>
<!-- Generator: Adobe Illustrator 19.0.0, SVG Export Plug-In . SVG Version: 6.00 Build 0)  -->
<svg version="1.1" id="Layer_1" xmlns="http://www.w3.org/2000/svg" xmlns:xlink="http://www.w3.org/1999/xlink" x="0px" y="0px"
	 viewBox="0 0 512 512" style="enable-background:new 0 0 512 512;" xml:space="preserve">
<path style="fill:#FFEBB4;" d="M299.113,212.347c-4.698,0-9.145-2.812-11.002-7.439c-2.439-6.074,0.51-12.975,6.584-15.415
	l139.814-56.129c6.074-2.438,12.975,0.508,15.415,6.584c2.439,6.074-0.51,12.975-6.584,15.415L303.526,211.49
	C302.078,212.072,300.583,212.347,299.113,212.347z"/>
<circle style="fill:#FFCE47;" cx="191.147" cy="208.274" r="137.481"/>
<circle style="fill:#FFEBB4;" cx="191.147" cy="208.274" r="101.926"/>
<circle style="fill:#FFC0D5;" cx="191.147" cy="208.274" r="66.37"/>
<path style="fill:#9AD7FF;" d="M500.148,144.911h-23.704v23.704h23.704c6.545,0,11.852-5.307,11.852-11.852
	C512,150.218,506.693,144.911,500.148,144.911z"/>
<path style="fill:#FF4181;" d="M465.554,133.059H438.56c0,0-32.881,105.601-43.291,141.707c-3.465,12.019-14.389,18.12-25.867,13.15
	L32.721,142.097c-11.477-4.971-20.869,1.197-20.869,13.705v273.553h476.444V155.803
	C488.296,143.294,478.062,133.059,465.554,133.059z"/>
<path style="fill:#FF80AB;" d="M488.296,441.207H11.852C5.306,441.207,0,435.9,0,429.355c0-6.545,5.306-11.852,11.852-11.852
	h476.444c6.545,0,11.852,5.307,11.852,11.852C500.148,435.9,494.841,441.207,488.296,441.207z"/>
<g>
</g>
<g>
</g>
<g>
</g>
<g>
</g>
<g>
</g>
<g>
</g>
<g>
</g>
<g>
</g>
<g>
</g>
<g>
</g>
<g>
</g>
<g>
</g>
<g>
</g>
<g>
</g>
<g>
</g>
</svg>
