<?xml version="1.0" encoding="iso-8859-1"?>
<!-- Generator: Adobe Illustrator 19.0.0, SVG Export Plug-In . SVG Version: 6.00 Build 0)  -->
<svg version="1.1" id="Layer_1" xmlns="http://www.w3.org/2000/svg" xmlns:xlink="http://www.w3.org/1999/xlink" x="0px" y="0px"
	 viewBox="0 0 512 512" style="enable-background:new 0 0 512 512;" xml:space="preserve">
<path style="fill:#FF755C;" d="M470.749,12.133v487.735c0,6.673-5.46,12.133-12.133,12.133H179.564l-36.398-256L179.564,0h279.052
	C465.289,0,470.749,5.46,470.749,12.133z"/>
<path style="fill:#FFC0D5;" d="M179.564,0v512H92.209c-6.673,0-12.133-5.46-12.133-12.133V12.133C80.076,5.46,85.536,0,92.209,0
	H179.564z"/>
<g>
	<path style="fill:#174461;" d="M106.768,157.118H53.384c-6.7,0-12.133-5.432-12.133-12.133c0-6.701,5.433-12.133,12.133-12.133
		h53.384c6.7,0,12.133,5.432,12.133,12.133C118.9,151.687,113.467,157.118,106.768,157.118z"/>
	<path style="fill:#174461;" d="M106.768,231.128H53.384c-6.7,0-12.133-5.432-12.133-12.133s5.433-12.133,12.133-12.133h53.384
		c6.7,0,12.133,5.432,12.133,12.133S113.467,231.128,106.768,231.128z"/>
	<path style="fill:#174461;" d="M106.768,83.109H53.384c-6.7,0-12.133-5.432-12.133-12.133c0-6.701,5.433-12.133,12.133-12.133
		h53.384c6.7,0,12.133,5.432,12.133,12.133S113.467,83.109,106.768,83.109z"/>
	<path style="fill:#174461;" d="M106.768,379.147H53.384c-6.7,0-12.133-5.432-12.133-12.133c0-6.701,5.433-12.133,12.133-12.133
		h53.384c6.7,0,12.133,5.432,12.133,12.133C118.9,373.715,113.467,379.147,106.768,379.147z"/>
	<path style="fill:#174461;" d="M106.768,305.137H53.384c-6.7,0-12.133-5.432-12.133-12.133c0-6.701,5.433-12.133,12.133-12.133
		h53.384c6.7,0,12.133,5.432,12.133,12.133C118.9,299.706,113.467,305.137,106.768,305.137z"/>
	<path style="fill:#174461;" d="M106.768,453.156H53.384c-6.7,0-12.133-5.432-12.133-12.133s5.433-12.133,12.133-12.133h53.384
		c6.7,0,12.133,5.432,12.133,12.133S113.467,453.156,106.768,453.156z"/>
</g>
<g>
</g>
<g>
</g>
<g>
</g>
<g>
</g>
<g>
</g>
<g>
</g>
<g>
</g>
<g>
</g>
<g>
</g>
<g>
</g>
<g>
</g>
<g>
</g>
<g>
</g>
<g>
</g>
<g>
</g>
</svg>
