<?xml version="1.0" encoding="iso-8859-1"?>
<!-- Generator: Adobe Illustrator 19.0.0, SVG Export Plug-In . SVG Version: 6.00 Build 0)  -->
<svg version="1.1" id="Layer_1" xmlns="http://www.w3.org/2000/svg" xmlns:xlink="http://www.w3.org/1999/xlink" x="0px" y="0px"
	 viewBox="0 0 512 512" style="enable-background:new 0 0 512 512;" xml:space="preserve">
<path style="fill:#FF4181;" d="M397.598,51.544C375.564,78.46,320.478,97.538,256,97.538s-119.563-19.08-141.598-45.994H0v103.987
	L25.435,256L0,356.468v103.987h114.402c22.034-26.915,77.12-45.994,141.598-45.994s119.563,19.079,141.598,45.994H512V51.544
	H397.598z"/>
<path style="fill:#C2E7FF;" d="M424.495,295.478l-212.247-25.435L0,295.478v60.989h332.089
	C373.56,356.467,409.153,331.337,424.495,295.478z"/>
<path style="fill:#4EB9FF;" d="M432.557,255.999c0-55.487-44.982-100.468-100.468-100.468H0v139.947h424.495
	C429.679,283.358,432.557,270.016,432.557,255.999z"/>
<circle style="fill:#174461;" cx="216.274" cy="225.506" r="23.279"/>
<g>
</g>
<g>
</g>
<g>
</g>
<g>
</g>
<g>
</g>
<g>
</g>
<g>
</g>
<g>
</g>
<g>
</g>
<g>
</g>
<g>
</g>
<g>
</g>
<g>
</g>
<g>
</g>
<g>
</g>
</svg>
