<?xml version="1.0" encoding="iso-8859-1"?>
<!-- Generator: Adobe Illustrator 19.0.0, SVG Export Plug-In . SVG Version: 6.00 Build 0)  -->
<svg version="1.1" id="Layer_1" xmlns="http://www.w3.org/2000/svg" xmlns:xlink="http://www.w3.org/1999/xlink" x="0px" y="0px"
	 viewBox="0 0 512 512" style="enable-background:new 0 0 512 512;" xml:space="preserve">
<rect x="235.615" y="388.527" style="fill:#FF755C;" width="40.769" height="123.473"/>
<path style="fill:#85C250;" d="M489.717,512c6.545,0,11.852-5.306,11.852-11.852v-19.063c0-6.546-5.307-11.852-11.852-11.852
	c-6.545,0-11.852,5.306-11.852,11.852v19.063C477.865,506.694,483.173,512,489.717,512z"/>
<path style="fill:#C9D467;" d="M454.162,512c6.545,0,11.852-5.306,11.852-11.852v-19.063c0-6.546-5.307-11.852-11.852-11.852
	c-6.545,0-11.852,5.306-11.852,11.852v19.063C442.31,506.694,447.617,512,454.162,512z"/>
<path style="fill:#85C250;" d="M418.606,512c6.545,0,11.852-5.306,11.852-11.852v-19.063c0-6.546-5.307-11.852-11.852-11.852
	s-11.852,5.306-11.852,11.852v19.063C406.754,506.694,412.062,512,418.606,512z"/>
<path style="fill:#C9D467;" d="M383.051,512c6.545,0,11.852-5.306,11.852-11.852v-19.063c0-6.546-5.307-11.852-11.852-11.852
	c-6.545,0-11.852,5.306-11.852,11.852v19.063C371.199,506.694,376.506,512,383.051,512z"/>
<path style="fill:#85C250;" d="M347.495,512c6.545,0,11.852-5.306,11.852-11.852v-19.063c0-6.546-5.307-11.852-11.852-11.852
	s-11.852,5.306-11.852,11.852v19.063C335.643,506.694,340.951,512,347.495,512z"/>
<g>
	<path style="fill:#C9D467;" d="M311.94,512c6.545,0,11.852-5.306,11.852-11.852v-19.063c0-6.546-5.307-11.852-11.852-11.852
		c-6.545,0-11.852,5.306-11.852,11.852v19.063C300.088,506.694,305.395,512,311.94,512z"/>
	<path style="fill:#C9D467;" d="M200.06,512c-6.546,0-11.852-5.306-11.852-11.852v-19.063c0-6.546,5.306-11.852,11.852-11.852
		c6.546,0,11.852,5.306,11.852,11.852v19.063C211.912,506.694,206.605,512,200.06,512z"/>
</g>
<path style="fill:#85C250;" d="M164.505,512c-6.546,0-11.852-5.306-11.852-11.852v-19.063c0-6.546,5.306-11.852,11.852-11.852
	s11.852,5.306,11.852,11.852v19.063C176.357,506.694,171.049,512,164.505,512z"/>
<path style="fill:#C9D467;" d="M128.949,512c-6.546,0-11.852-5.306-11.852-11.852v-19.063c0-6.546,5.306-11.852,11.852-11.852
	c6.546,0,11.852,5.306,11.852,11.852v19.063C140.801,506.694,135.494,512,128.949,512z"/>
<path style="fill:#85C250;" d="M93.394,512c-6.546,0-11.852-5.306-11.852-11.852v-19.063c0-6.546,5.306-11.852,11.852-11.852
	c6.546,0,11.852,5.306,11.852,11.852v19.063C105.246,506.694,99.938,512,93.394,512z"/>
<path style="fill:#C9D467;" d="M57.838,512c-6.546,0-11.852-5.306-11.852-11.852v-19.063c0-6.546,5.306-11.852,11.852-11.852
	s11.852,5.306,11.852,11.852v19.063C69.69,506.694,64.383,512,57.838,512z"/>
<g>
	<path style="fill:#85C250;" d="M22.283,512c-6.546,0-11.852-5.306-11.852-11.852v-19.063c0-6.546,5.306-11.852,11.852-11.852
		s11.852,5.306,11.852,11.852v19.063C34.135,506.694,28.827,512,22.283,512z"/>
	<polygon style="fill:#85C250;" points="405.914,412.235 340.891,305.006 390.923,305.006 325.9,197.777 375.931,197.777 256,0 
		136.069,197.777 186.1,197.777 121.077,305.006 171.109,305.006 106.086,412.235 	"/>
</g>
<g>
</g>
<g>
</g>
<g>
</g>
<g>
</g>
<g>
</g>
<g>
</g>
<g>
</g>
<g>
</g>
<g>
</g>
<g>
</g>
<g>
</g>
<g>
</g>
<g>
</g>
<g>
</g>
<g>
</g>
</svg>
