<?xml version="1.0" encoding="iso-8859-1"?>
<!-- Generator: Adobe Illustrator 19.0.0, SVG Export Plug-In . SVG Version: 6.00 Build 0)  -->
<svg version="1.1" id="Layer_1" xmlns="http://www.w3.org/2000/svg" xmlns:xlink="http://www.w3.org/1999/xlink" x="0px" y="0px"
	 viewBox="0 0 512 512" style="enable-background:new 0 0 512 512;" xml:space="preserve">
<circle style="fill:#273B7A;" cx="256" cy="256" r="256"/>
<path style="fill:#121149;" d="M266.833,511.755c132.748-5.529,239.368-112.131,244.922-244.874L379.533,134.659l-21.559,30.272
	L134.089,379.013L266.833,511.755z"/>
<path style="fill:#FFEDB5;" d="M365.182,384H146.82c-10.393,0-18.82-8.425-18.82-18.82V146.818c0-10.393,8.425-18.818,18.82-18.818
	h218.362c10.393,0,18.82,8.425,18.82,18.818V365.18C384,375.575,375.575,384,365.182,384z"/>
<path style="fill:#FEE187;" d="M365.18,128H255.424v256H365.18c10.393,0,18.82-8.425,18.82-18.82V146.82
	C384,136.425,375.575,128,365.18,128z"/>
<path style="fill:#EAA22F;" d="M351.677,364.606H160.323c-7.14,0-12.929-5.789-12.929-12.929V160.323
	c0-7.14,5.789-12.929,12.929-12.929h191.354c7.14,0,12.929,5.789,12.929,12.929v191.354
	C364.606,358.817,358.817,364.606,351.677,364.606z"/>
<path style="fill:#E09112;" d="M351.677,147.394h-96.251v217.212h96.251c7.14,0,12.929-5.789,12.929-12.929V160.323
	C364.606,153.183,358.817,147.394,351.677,147.394z"/>
<path style="fill:#273B7A;" d="M256.862,280.135h-49.993c-3.332,0-6.034-2.701-6.034-6.034s2.701-6.034,6.034-6.034h43.96v-68.956
	c0-3.332,2.701-6.034,6.034-6.034s6.034,2.701,6.034,6.034v74.99C262.896,277.433,260.194,280.135,256.862,280.135z"/>
<g>
</g>
<g>
</g>
<g>
</g>
<g>
</g>
<g>
</g>
<g>
</g>
<g>
</g>
<g>
</g>
<g>
</g>
<g>
</g>
<g>
</g>
<g>
</g>
<g>
</g>
<g>
</g>
<g>
</g>
</svg>
