<?xml version="1.0" encoding="iso-8859-1"?>
<!-- Generator: Adobe Illustrator 19.0.0, SVG Export Plug-In . SVG Version: 6.00 Build 0)  -->
<svg version="1.1" id="Layer_1" xmlns="http://www.w3.org/2000/svg" xmlns:xlink="http://www.w3.org/1999/xlink" x="0px" y="0px"
	 viewBox="0 0 512 512" style="enable-background:new 0 0 512 512;" xml:space="preserve">
<circle style="fill:#FFC61B;" cx="256" cy="256" r="256"/>
<path style="fill:#EAA22F;" d="M280.809,510.8c116.726-11.226,210.549-100.826,228.199-215.555l-81.91-81.911l-68.625,81.586
	L92.163,322.155L280.809,510.8z"/>
<rect x="370.209" y="213.333" style="fill:#273B7A;" width="56.889" height="85.333"/>
<rect x="370.209" y="254.845" style="fill:#121149;" width="56.889" height="43.817"/>
<path style="fill:#386895;" d="M378.253,327.111H105.301c-11.028,0-19.968-8.94-19.968-19.968V204.859
	c0-11.028,8.94-19.97,19.968-19.97h272.951c11.028,0,19.968,8.94,19.968,19.97v102.285
	C398.222,318.171,389.282,327.111,378.253,327.111z"/>
<path style="fill:#273B7A;" d="M85.333,254.85v52.291c0,11.028,8.94,19.968,19.968,19.968h272.951
	c11.028,0,19.968-8.94,19.968-19.968V254.85L85.333,254.85L85.333,254.85z"/>
<g>
	<rect x="206.214" y="199.111" style="fill:#71E2EF;" width="21.333" height="113.778"/>
	<rect x="156.444" y="199.111" style="fill:#71E2EF;" width="21.333" height="113.778"/>
	<rect x="256" y="199.111" style="fill:#71E2EF;" width="21.333" height="113.778"/>
	<path style="fill:#71E2EF;" d="M373.8,199.111h-18.244v113.778H373.8c5.634,0,10.2-4.567,10.2-10.2V209.31
		C384,203.678,379.433,199.111,373.8,199.111z"/>
	<rect x="305.769" y="199.111" style="fill:#71E2EF;" width="21.333" height="113.778"/>
	<path style="fill:#71E2EF;" d="M128,199.111h-18.246c-5.634,0-10.2,4.567-10.2,10.2v93.379c0,5.634,4.567,10.2,10.2,10.2H128
		V199.111z"/>
</g>
<g>
	<rect x="206.214" y="254.845" style="fill:#38C6D9;" width="21.333" height="58.039"/>
	<rect x="156.444" y="254.845" style="fill:#38C6D9;" width="21.333" height="58.039"/>
	<rect x="256" y="254.845" style="fill:#38C6D9;" width="21.333" height="58.039"/>
	<path style="fill:#38C6D9;" d="M355.556,254.85v58.039H373.8c5.634,0,10.2-4.567,10.2-10.2V254.85L355.556,254.85L355.556,254.85z"
		/>
	<rect x="305.769" y="254.845" style="fill:#38C6D9;" width="21.333" height="58.039"/>
	<path style="fill:#38C6D9;" d="M99.556,254.85v47.838c0,5.634,4.567,10.2,10.2,10.2H128V254.85L99.556,254.85L99.556,254.85z"/>
</g>
<g>
</g>
<g>
</g>
<g>
</g>
<g>
</g>
<g>
</g>
<g>
</g>
<g>
</g>
<g>
</g>
<g>
</g>
<g>
</g>
<g>
</g>
<g>
</g>
<g>
</g>
<g>
</g>
<g>
</g>
</svg>
