<?xml version="1.0" encoding="iso-8859-1"?>
<!-- Generator: Adobe Illustrator 19.0.0, SVG Export Plug-In . SVG Version: 6.00 Build 0)  -->
<svg version="1.1" id="Layer_1" xmlns="http://www.w3.org/2000/svg" xmlns:xlink="http://www.w3.org/1999/xlink" x="0px" y="0px"
	 viewBox="0 0 512 512" style="enable-background:new 0 0 512 512;" xml:space="preserve">
<circle style="fill:#366695;" cx="256" cy="256" r="256"/>
<path style="fill:#273B7A;" d="M272.22,511.474c129.315-8.089,232.603-112.166,239.416-241.823L396.314,149.928l-33.811,49.162
	L117.057,352.958L272.22,511.474z"/>
<path style="fill:#FEE187;" d="M388.237,355.556H123.763c-5.515,0-9.985-4.47-9.985-9.985V155.798c0-5.515,4.47-9.985,9.985-9.985
	h264.475c5.515,0,9.985,4.47,9.985,9.985v189.773C398.222,351.085,393.752,355.556,388.237,355.556z"/>
<path style="fill:#FFC61B;" d="M388.237,145.813H256.288v209.742h131.949c5.515,0,9.985-4.47,9.985-9.985V155.798
	C398.222,150.285,393.752,145.813,388.237,145.813z"/>
<path style="fill:#FF7F4F;" d="M398.222,155.798c0-5.515-4.47-9.985-9.985-9.985H123.763c-5.515,0-9.985,4.47-9.985,9.985v14.869
	h284.444V155.798z"/>
<path style="fill:#D35933;" d="M398.222,155.798c0-5.515-4.47-9.985-9.985-9.985H256.288v24.854h141.934V155.798z"/>
<path style="fill:#FFFFFF;" d="M170.667,284.444h170.667c7.854,0,14.222-6.368,14.222-14.222l0,0
	c0-7.854-6.368-14.222-14.222-14.222H170.667c-7.854,0-14.222,6.368-14.222,14.222l0,0
	C156.444,278.076,162.813,284.444,170.667,284.444z"/>
<path style="fill:#D0D1D3;" d="M341.333,256h-85.045v28.444h85.045c7.854,0,14.222-6.368,14.222-14.222
	C355.556,262.368,349.187,256,341.333,256z"/>
<path style="fill:#EAA22F;" d="M312.889,231.003H199.111c-1.903,0-3.448-1.545-3.448-3.448s1.545-3.448,3.448-3.448h113.778
	c1.903,0,3.448,1.545,3.448,3.448S314.792,231.003,312.889,231.003z"/>
<path style="fill:#FF5419;" d="M312.889,224.108h-56.601v6.896h56.601c1.903,0,3.448-1.545,3.448-3.448
	S314.792,224.108,312.889,224.108z"/>
<circle style="fill:#477F3C;" cx="165.495" cy="159.168" r="5.172"/>
<circle style="fill:#EAA22F;" cx="146.101" cy="159.168" r="5.172"/>
<circle style="fill:#273B7A;" cx="126.707" cy="159.168" r="5.172"/>
<g>
</g>
<g>
</g>
<g>
</g>
<g>
</g>
<g>
</g>
<g>
</g>
<g>
</g>
<g>
</g>
<g>
</g>
<g>
</g>
<g>
</g>
<g>
</g>
<g>
</g>
<g>
</g>
<g>
</g>
</svg>
