<?xml version="1.0" encoding="iso-8859-1"?>
<!-- Generator: Adobe Illustrator 19.0.0, SVG Export Plug-In . SVG Version: 6.00 Build 0)  -->
<svg version="1.1" id="Layer_1" xmlns="http://www.w3.org/2000/svg" xmlns:xlink="http://www.w3.org/1999/xlink" x="0px" y="0px"
	 viewBox="0 0 512 512" style="enable-background:new 0 0 512 512;" xml:space="preserve">
<circle style="fill:#FFEDB5;" cx="256" cy="256" r="256"/>
<path style="fill:#FEE187;" d="M512,256c0-11.557-0.779-22.93-2.263-34.08L392.12,104.303L188.023,209.86l-11.036-11.036
	L123.67,226.12l132.834,132.834l-138.119,47.082l103.729,103.729c11.088,1.467,22.395,2.236,33.885,2.236
	C397.384,512,512,397.384,512,256z"/>
<path style="fill:#273B7A;" d="M377.391,98.204H134.608c-11.504,0-20.83,9.326-20.83,20.83v89.359
	c0,11.505,9.326,20.832,20.83,20.832h149.837l19.851,37.197c3.668,6.873,13.521,6.873,17.187,0l19.851-37.198h36.059
	c11.505,0,20.83-9.326,20.83-20.832v-89.357C398.222,107.53,388.896,98.204,377.391,98.204z"/>
<path style="fill:#121149;" d="M377.392,98.204H256.288v131.02h28.157l19.851,37.197c3.668,6.873,13.521,6.873,17.187,0
	l19.851-37.198h36.059c11.504,0,20.83-9.326,20.83-20.83v-89.359C398.222,107.529,388.896,98.204,377.392,98.204z"/>
<path style="fill:#386895;" d="M134.608,413.796h242.783c11.505,0,20.832-9.326,20.832-20.83v-89.359
	c0-11.505-9.326-20.83-20.83-20.83H227.556l-19.851-37.197c-3.668-6.873-13.521-6.873-17.187,0l-19.851,37.197h-36.057
	c-11.505,0-20.832,9.326-20.832,20.83v89.359c0,4.949,1.726,9.495,4.608,13.069C122.204,410.769,128.053,413.796,134.608,413.796z"
	/>
<path style="fill:#273B7A;" d="M377.392,282.777H256.288v131.02h121.104c11.505,0,20.83-9.326,20.83-20.83v-89.359
	C398.222,292.104,388.896,282.777,377.392,282.777z"/>
<g>
	<path style="fill:#FFFFFF;" d="M367.192,133.603h-82.747c-1.903,0-3.448-1.545-3.448-3.448s1.545-3.448,3.448-3.448h82.747
		c1.903,0,3.448,1.545,3.448,3.448S369.097,133.603,367.192,133.603z"/>
	<path style="fill:#FFFFFF;" d="M367.192,166.357h-82.747c-1.903,0-3.448-1.545-3.448-3.448s1.545-3.448,3.448-3.448h82.747
		c1.903,0,3.448,1.545,3.448,3.448S369.097,166.357,367.192,166.357z"/>
	<path style="fill:#FFFFFF;" d="M367.192,199.111h-82.747c-1.903,0-3.448-1.545-3.448-3.448s1.545-3.448,3.448-3.448h82.747
		c1.903,0,3.448,1.545,3.448,3.448S369.097,199.111,367.192,199.111z"/>
	<path style="fill:#FFFFFF;" d="M227.556,319.785h-82.747c-1.903,0-3.448-1.545-3.448-3.448s1.545-3.448,3.448-3.448h82.747
		c1.903,0,3.448,1.545,3.448,3.448S229.46,319.785,227.556,319.785z"/>
	<path style="fill:#FFFFFF;" d="M227.556,352.539h-82.747c-1.903,0-3.448-1.545-3.448-3.448s1.545-3.448,3.448-3.448h82.747
		c1.903,0,3.448,1.545,3.448,3.448S229.46,352.539,227.556,352.539z"/>
	<path style="fill:#FFFFFF;" d="M227.556,385.293h-82.747c-1.903,0-3.448-1.545-3.448-3.448s1.545-3.448,3.448-3.448h82.747
		c1.903,0,3.448,1.545,3.448,3.448S229.46,385.293,227.556,385.293z"/>
</g>
<g>
</g>
<g>
</g>
<g>
</g>
<g>
</g>
<g>
</g>
<g>
</g>
<g>
</g>
<g>
</g>
<g>
</g>
<g>
</g>
<g>
</g>
<g>
</g>
<g>
</g>
<g>
</g>
<g>
</g>
</svg>
