<?xml version="1.0" encoding="iso-8859-1"?>
<!-- Generator: Adobe Illustrator 19.0.0, SVG Export Plug-In . SVG Version: 6.00 Build 0)  -->
<svg version="1.1" id="Layer_1" xmlns="http://www.w3.org/2000/svg" xmlns:xlink="http://www.w3.org/1999/xlink" x="0px" y="0px"
	 viewBox="0 0 512 512" style="enable-background:new 0 0 512 512;" xml:space="preserve">
<circle style="fill:#273B7A;" cx="256" cy="256" r="256"/>
<path style="fill:#121149;" d="M308.793,506.537c99.216-20.802,177.304-99.042,197.875-198.342L371.584,173.111l-29.532,55.736
	l26.493,26.493L175.544,373.288L308.793,506.537z"/>
<circle style="fill:#71E2EF;" cx="256" cy="256" r="142.222"/>
<path style="fill:#38C6D9;" d="M256,113.778c-0.193,0-0.381,0.014-0.574,0.014v284.415c0.193,0,0.381,0.014,0.574,0.014
	c78.546,0,142.222-63.676,142.222-142.222S334.546,113.778,256,113.778z"/>
<circle style="fill:#02B2B2;" cx="256" cy="256" r="42.667"/>
<path style="fill:#386895;" d="M256,213.333c-0.193,0-0.383,0.012-0.574,0.014v85.304c0.191,0.002,0.381,0.014,0.574,0.014
	c23.564,0,42.667-19.103,42.667-42.667C298.667,232.436,279.564,213.333,256,213.333z"/>
<circle style="fill:#121149;" cx="256" cy="256" r="28.444"/>
<g>
</g>
<g>
</g>
<g>
</g>
<g>
</g>
<g>
</g>
<g>
</g>
<g>
</g>
<g>
</g>
<g>
</g>
<g>
</g>
<g>
</g>
<g>
</g>
<g>
</g>
<g>
</g>
<g>
</g>
</svg>
