<?xml version="1.0" encoding="iso-8859-1"?>
<!-- Generator: Adobe Illustrator 19.0.0, SVG Export Plug-In . SVG Version: 6.00 Build 0)  -->
<svg version="1.1" id="Layer_1" xmlns="http://www.w3.org/2000/svg" xmlns:xlink="http://www.w3.org/1999/xlink" x="0px" y="0px"
	 viewBox="0 0 512 512" style="enable-background:new 0 0 512 512;" xml:space="preserve">
<circle style="fill:#FFC61B;" cx="256" cy="256" r="256"/>
<path style="fill:#EAA22F;" d="M506.782,307.671l-108.56-108.56l-38.621,79.643l-245.824,91.024L256,512l0,0
	C379.683,512,482.882,424.286,506.782,307.671z"/>
<polygon style="fill:#273B7A;" points="398.222,199.111 256,113.778 113.778,199.111 113.778,199.111 113.778,369.778 
	398.222,369.778 "/>
<polygon style="fill:#121149;" points="398.222,199.111 398.222,199.111 256,113.778 255.426,114.123 255.426,369.778 
	398.222,369.778 "/>
<polygon style="fill:#386895;" points="398.222,199.111 256,284.444 113.778,199.111 "/>
<polygon style="fill:#273B7A;" points="398.222,199.111 255.426,199.111 255.426,284.1 256,284.444 "/>
<polygon style="fill:#02B2B2;" points="113.778,199.111 256,113.778 398.222,199.111 "/>
<polygon style="fill:#386895;" points="256,113.778 255.426,114.123 255.426,199.111 398.222,199.111 "/>
<g>
</g>
<g>
</g>
<g>
</g>
<g>
</g>
<g>
</g>
<g>
</g>
<g>
</g>
<g>
</g>
<g>
</g>
<g>
</g>
<g>
</g>
<g>
</g>
<g>
</g>
<g>
</g>
<g>
</g>
</svg>
