<?xml version="1.0" encoding="iso-8859-1"?>
<!-- Generator: Adobe Illustrator 19.0.0, SVG Export Plug-In . SVG Version: 6.00 Build 0)  -->
<svg version="1.1" id="Layer_1" xmlns="http://www.w3.org/2000/svg" xmlns:xlink="http://www.w3.org/1999/xlink" x="0px" y="0px"
	 viewBox="0 0 512 512" style="enable-background:new 0 0 512 512;" xml:space="preserve">
<circle style="fill:#FFC61B;" cx="256" cy="256" r="256"/>
<path style="fill:#EAA22F;" d="M369.778,142.222l-89.995,138.711l-30.103-30.105L85.333,312.889l197.692,197.692
	c51.105-5.363,97.73-25.755,135.377-56.685l3.381-3.381l0.293,0.293c48.585-41.46,81.474-100.766,88.505-167.781L369.778,142.222z"
	/>
<rect x="142.222" y="199.111" style="fill:#02B2B2;" width="284.444" height="170.667"/>
<rect x="113.778" y="170.667" style="fill:#386895;" width="284.444" height="170.667"/>
<rect x="85.333" y="142.222" style="fill:#273B7A;" width="284.444" height="170.667"/>
<rect x="226.987" y="142.222" style="fill:#121149;" width="142.791" height="170.667"/>
<polygon style="fill:#386895;" points="369.778,142.222 227.556,227.556 85.333,142.222 "/>
<polygon style="fill:#273B7A;" points="369.778,142.222 226.982,142.222 226.982,227.211 227.556,227.556 "/>
<g>
</g>
<g>
</g>
<g>
</g>
<g>
</g>
<g>
</g>
<g>
</g>
<g>
</g>
<g>
</g>
<g>
</g>
<g>
</g>
<g>
</g>
<g>
</g>
<g>
</g>
<g>
</g>
<g>
</g>
</svg>
