<?xml version="1.0" encoding="iso-8859-1"?>
<!-- Generator: Adobe Illustrator 19.0.0, SVG Export Plug-In . SVG Version: 6.00 Build 0)  -->
<svg version="1.1" id="Layer_1" xmlns="http://www.w3.org/2000/svg" xmlns:xlink="http://www.w3.org/1999/xlink" x="0px" y="0px"
	 viewBox="0 0 512 512" style="enable-background:new 0 0 512 512;" xml:space="preserve">
<circle style="fill:#273B7A;" cx="256" cy="256" r="256"/>
<path style="fill:#121149;" d="M512,256L369.778,113.778l-14.951,12.343l-7.602-7.602l-20.487,30.796l-13.615,11.242l3.686,3.686
	L142.22,426.667l83.547,83.547c9.916,1.167,20.001,1.786,30.23,1.786C397.384,512,512,397.384,512,256z"/>
<polygon style="fill:#FEE187;" points="369.778,113.778 142.22,113.778 142.22,426.667 311.453,426.667 369.778,368.342 "/>
<polygon style="fill:#FFC61B;" points="255.426,113.778 255.426,426.667 311.453,426.667 369.778,368.342 369.778,113.778 "/>
<polygon style="fill:#EAA22F;" points="311.453,426.667 369.778,368.342 311.453,368.342 "/>
<g>
	<path style="fill:#FF5419;" d="M341.333,174.114H170.667c-1.903,0-3.448-1.545-3.448-3.448c0-1.903,1.545-3.448,3.448-3.448
		h170.667c1.903,0,3.448,1.545,3.448,3.448C344.781,172.57,343.237,174.114,341.333,174.114z"/>
	<path style="fill:#FF5419;" d="M341.333,202.559H170.667c-1.903,0-3.448-1.545-3.448-3.448c0-1.903,1.545-3.448,3.448-3.448
		h170.667c1.903,0,3.448,1.545,3.448,3.448C344.781,201.014,343.237,202.559,341.333,202.559z"/>
	<path style="fill:#FF5419;" d="M341.333,231.003H170.667c-1.903,0-3.448-1.545-3.448-3.448s1.545-3.448,3.448-3.448h170.667
		c1.903,0,3.448,1.545,3.448,3.448S343.237,231.003,341.333,231.003z"/>
	<path style="fill:#FF5419;" d="M341.333,259.448H170.667c-1.903,0-3.448-1.545-3.448-3.448s1.545-3.448,3.448-3.448h170.667
		c1.903,0,3.448,1.545,3.448,3.448S343.237,259.448,341.333,259.448z"/>
	<path style="fill:#FF5419;" d="M341.333,287.892H170.667c-1.903,0-3.448-1.545-3.448-3.448s1.545-3.448,3.448-3.448h170.667
		c1.903,0,3.448,1.545,3.448,3.448S343.237,287.892,341.333,287.892z"/>
	<path style="fill:#FF5419;" d="M341.333,316.337H170.667c-1.903,0-3.448-1.545-3.448-3.448s1.545-3.448,3.448-3.448h170.667
		c1.903,0,3.448,1.545,3.448,3.448S343.237,316.337,341.333,316.337z"/>
</g>
<g>
	<path style="fill:#C92F00;" d="M341.333,167.219h-85.907v6.896h85.907c1.903,0,3.448-1.545,3.448-3.448
		C344.781,168.763,343.237,167.219,341.333,167.219z"/>
	<path style="fill:#C92F00;" d="M341.333,195.663h-85.907v6.896h85.907c1.903,0,3.448-1.545,3.448-3.448
		C344.781,197.208,343.237,195.663,341.333,195.663z"/>
	<path style="fill:#C92F00;" d="M341.333,224.108h-85.907v6.896h85.907c1.903,0,3.448-1.545,3.448-3.448
		S343.237,224.108,341.333,224.108z"/>
	<path style="fill:#C92F00;" d="M341.333,252.552h-85.907v6.896h85.907c1.903,0,3.448-1.545,3.448-3.448
		S343.237,252.552,341.333,252.552z"/>
	<path style="fill:#C92F00;" d="M341.333,280.997h-85.907v6.896h85.907c1.903,0,3.448-1.545,3.448-3.448
		S343.237,280.997,341.333,280.997z"/>
	<path style="fill:#C92F00;" d="M341.333,309.441h-85.907v6.896h85.907c1.903,0,3.448-1.545,3.448-3.448
		S343.237,309.441,341.333,309.441z"/>
</g>
<g>
</g>
<g>
</g>
<g>
</g>
<g>
</g>
<g>
</g>
<g>
</g>
<g>
</g>
<g>
</g>
<g>
</g>
<g>
</g>
<g>
</g>
<g>
</g>
<g>
</g>
<g>
</g>
<g>
</g>
</svg>
