<?xml version="1.0" encoding="iso-8859-1"?>
<!-- Generator: Adobe Illustrator 19.0.0, SVG Export Plug-In . SVG Version: 6.00 Build 0)  -->
<svg version="1.1" id="Layer_1" xmlns="http://www.w3.org/2000/svg" xmlns:xlink="http://www.w3.org/1999/xlink" x="0px" y="0px"
	 viewBox="0 0 512 512" style="enable-background:new 0 0 512 512;" xml:space="preserve">
<circle style="fill:#273B7A;" cx="256" cy="256" r="256"/>
<path style="fill:#121149;" d="M283.026,510.581c126.136-13.236,224.987-118.065,228.845-246.772L336.372,88.311l-42.648,173.128
	L170.667,398.222L283.026,510.581z"/>
<polygon style="fill:#FEE187;" points="341.333,113.778 170.667,113.778 170.667,398.222 283.008,398.222 341.333,339.897 "/>
<g>
	<polygon style="fill:#FFC61B;" points="255.426,113.778 255.426,398.222 283.008,398.222 341.333,339.897 341.333,113.778 	"/>
	<polygon style="fill:#FFC61B;" points="283.008,398.222 341.333,339.897 283.008,339.897 	"/>
</g>
<rect x="170.667" y="126.052" style="fill:#E09112;" width="170.667" height="16.162"/>
<rect x="255.431" y="126.052" style="fill:#FF5419;" width="85.907" height="16.162"/>
<path style="fill:#FFC61B;" d="M341.333,98.694c0-7.378-5.982-13.36-13.36-13.36H184.027c-7.378,0-13.36,5.982-13.36,13.36v27.367
	h170.667V98.694z"/>
<path style="fill:#EAA22F;" d="M341.333,98.694c0-7.378-5.982-13.36-13.36-13.36h-72.547v40.727h85.907V98.694z"/>
<g>
	<rect x="199.111" y="168.081" style="fill:#FFFFFF;" width="113.778" height="5.172"/>
	<rect x="199.111" y="196.525" style="fill:#FFFFFF;" width="113.778" height="5.172"/>
	<rect x="199.111" y="224.97" style="fill:#FFFFFF;" width="113.778" height="5.172"/>
	<rect x="199.111" y="253.414" style="fill:#FFFFFF;" width="113.778" height="5.172"/>
	<rect x="199.111" y="281.859" style="fill:#FFFFFF;" width="113.778" height="5.172"/>
	<rect x="199.111" y="310.303" style="fill:#FFFFFF;" width="113.778" height="5.172"/>
</g>
<g>
	<rect x="255.431" y="168.081" style="fill:#D0D1D3;" width="57.458" height="5.172"/>
	<rect x="255.431" y="196.525" style="fill:#D0D1D3;" width="57.458" height="5.172"/>
	<rect x="255.431" y="224.97" style="fill:#D0D1D3;" width="57.458" height="5.172"/>
	<rect x="255.431" y="253.414" style="fill:#D0D1D3;" width="57.458" height="5.172"/>
	<rect x="255.431" y="281.859" style="fill:#D0D1D3;" width="57.458" height="5.172"/>
	<rect x="255.431" y="310.303" style="fill:#D0D1D3;" width="57.458" height="5.172"/>
</g>
<g>
</g>
<g>
</g>
<g>
</g>
<g>
</g>
<g>
</g>
<g>
</g>
<g>
</g>
<g>
</g>
<g>
</g>
<g>
</g>
<g>
</g>
<g>
</g>
<g>
</g>
<g>
</g>
<g>
</g>
</svg>
