<?xml version="1.0" encoding="iso-8859-1"?>
<!-- Generator: Adobe Illustrator 19.0.0, SVG Export Plug-In . SVG Version: 6.00 Build 0)  -->
<svg version="1.1" id="Layer_1" xmlns="http://www.w3.org/2000/svg" xmlns:xlink="http://www.w3.org/1999/xlink" x="0px" y="0px"
	 viewBox="0 0 512 512" style="enable-background:new 0 0 512 512;" xml:space="preserve">
<circle style="fill:#FFC61B;" cx="256" cy="256" r="256"/>
<path style="fill:#EAA22F;" d="M512,256c0-9.961-0.59-19.784-1.696-29.448L408.735,124.983L234.739,278.93v-18.334h-68.324v166.071
	h12.257l-10.785,11.65l73.244,73.244c4.922,0.283,9.876,0.44,14.867,0.44C397.384,512,512,397.384,512,256z"/>
<polygon style="fill:#D35933;" points="408.735,268.131 265.587,268.131 265.587,124.983 408.735,124.983 382.231,196.558 "/>
<polygon style="fill:#C15036;" points="382.349,196.237 265.587,196.237 265.587,268.131 408.735,268.131 382.231,196.558 "/>
<polygon style="fill:#930000;" points="265.587,124.983 303.471,164.892 265.587,199.594 "/>
<rect x="177.097" y="164.892" style="fill:#B54324;" width="126.38" height="143.153"/>
<rect x="177.097" y="236.468" style="fill:#932A12;" width="126.38" height="71.575"/>
<path style="fill:#930000;" d="M174.152,438.317h-6.263c-6.177,0-11.183-5.006-11.183-11.183V159.591
	c0-6.177,5.006-11.183,11.183-11.183h6.263c6.177,0,11.183,5.006,11.183,11.183v267.542
	C185.335,433.311,180.329,438.317,174.152,438.317z"/>
<g>
</g>
<g>
</g>
<g>
</g>
<g>
</g>
<g>
</g>
<g>
</g>
<g>
</g>
<g>
</g>
<g>
</g>
<g>
</g>
<g>
</g>
<g>
</g>
<g>
</g>
<g>
</g>
<g>
</g>
</svg>
