<?xml version="1.0" encoding="iso-8859-1"?>
<!-- Generator: Adobe Illustrator 19.0.0, SVG Export Plug-In . SVG Version: 6.00 Build 0)  -->
<svg version="1.1" id="Layer_1" xmlns="http://www.w3.org/2000/svg" xmlns:xlink="http://www.w3.org/1999/xlink" x="0px" y="0px"
	 viewBox="0 0 512 512" style="enable-background:new 0 0 512 512;" xml:space="preserve">
<circle style="fill:#FEE187;" cx="256" cy="256" r="256"/>
<path style="fill:#FFC61B;" d="M446.9,426.546C487.379,381.268,512,321.514,512,256L398.222,142.222l-74.128,53.729l32.982,32.982
	L101.845,365.87l145.987,145.987c2.713,0.084,5.434,0.143,8.166,0.143c65.514,0,125.268-24.621,170.546-65.1L446.9,426.546z"/>
<rect x="199.111" y="142.222" style="fill:#38C6D9;" width="199.111" height="85.333"/>
<rect x="256" y="142.222" style="fill:#02B2B2;" width="142.222" height="85.333"/>
<path style="fill:#386895;" d="M402.029,369.778H109.971c-5.753,0-10.416-4.663-10.416-10.416v-217.14h99.556l28.444,28.444h184.889
	v188.695C412.444,365.115,407.781,369.778,402.029,369.778z"/>
<path style="fill:#273B7A;" d="M256,170.667v199.111h146.029c5.753,0,10.416-4.663,10.416-10.416V170.667H256z"/>
<path style="fill:#C92F00;" d="M99.556,322.082v37.279c0,5.753,4.663,10.416,10.416,10.416H402.03
	c5.753,0,10.416-4.663,10.416-10.416v-37.279L99.556,322.082L99.556,322.082z"/>
<path style="fill:#930000;" d="M256,322.082v47.695h146.029c5.753,0,10.416-4.663,10.416-10.416v-37.279L256,322.082L256,322.082z"
	/>
<g>
</g>
<g>
</g>
<g>
</g>
<g>
</g>
<g>
</g>
<g>
</g>
<g>
</g>
<g>
</g>
<g>
</g>
<g>
</g>
<g>
</g>
<g>
</g>
<g>
</g>
<g>
</g>
<g>
</g>
</svg>
