<?xml version="1.0" encoding="iso-8859-1"?>
<!-- Generator: Adobe Illustrator 19.0.0, SVG Export Plug-In . SVG Version: 6.00 Build 0)  -->
<svg version="1.1" id="Layer_1" xmlns="http://www.w3.org/2000/svg" xmlns:xlink="http://www.w3.org/1999/xlink" x="0px" y="0px"
	 viewBox="0 0 512 512" style="enable-background:new 0 0 512 512;" xml:space="preserve">
<circle style="fill:#263A7A;" cx="256" cy="256" r="256"/>
<g>
	<path style="fill:#121149;" d="M510.921,279.452L353.002,121.535l-11.957-4.598l-6.451-12.731L297.374,76.14l-81.879-3.072
		l-25.305,31.61l-2.838,2.838l-24.248,24.248l-11.9,246.943l126.309,132.386C401.087,500.808,499.717,402.763,510.921,279.452z"/>
	<polygon style="fill:#121149;" points="109.89,313.937 150.995,355.044 151.204,304.485 	"/>
</g>
<g>
	<path style="fill:#FEE187;" d="M229.802,394.264h-45.915c-23.249,0-42.163-18.916-42.163-42.165v-45.913
		c0-5.236,4.246-9.481,9.481-9.481s9.481,4.246,9.481,9.481v45.913c0,12.793,10.407,23.202,23.2,23.202h45.915
		c5.236,0,9.481,4.246,9.481,9.481S235.037,394.264,229.802,394.264z"/>
	<path style="fill:#FEE187;" d="M365.513,271.255H346.55V171.222c0-49.929-40.62-90.55-90.55-90.55s-90.55,40.62-90.55,90.55
		v100.031h-18.963V171.222c0-60.385,49.128-109.513,109.513-109.513s109.513,49.128,109.513,109.513V271.255z"/>
</g>
<path style="fill:#FFFFFF;" d="M132.642,316.507H117.37c-6.744,0-12.21-5.467-12.21-12.21v-74.816c0-6.744,5.466-12.21,12.21-12.21
	h15.272c6.744,0,12.21,5.467,12.21,12.21v74.816C144.853,311.039,139.386,316.507,132.642,316.507z"/>
<path style="fill:#D0D1D3;" d="M105.158,264.045v40.251c0,6.744,5.466,12.212,12.21,12.212h15.272c6.744,0,12.21-5.467,12.21-12.212
	v-40.251H105.158z"/>
<path style="fill:#71E2EF;" d="M165.192,332.385h-27.974c-6.744,0-12.212-5.467-12.212-12.21V213.602
	c0-6.744,5.466-12.21,12.212-12.21h27.976c6.744,0,12.21,5.466,12.21,12.21v106.572
	C177.404,326.918,171.935,332.385,165.192,332.385z"/>
<path style="fill:#38C6D9;" d="M125.006,264.045v56.129c0,6.744,5.466,12.21,12.21,12.21h27.976c6.744,0,12.21-5.466,12.21-12.21
	v-56.129L125.006,264.045L125.006,264.045z"/>
<path style="fill:#FFFFFF;" d="M379.358,217.269h15.272c6.744,0,12.21,5.467,12.21,12.21v74.816c0,6.744-5.466,12.21-12.21,12.21
	h-15.272c-6.744,0-12.21-5.467-12.21-12.21v-74.816C367.147,222.736,372.614,217.269,379.358,217.269z"/>
<path style="fill:#D0D1D3;" d="M367.147,264.045v40.251c0,6.744,5.466,12.21,12.21,12.21h15.272c6.744,0,12.21-5.467,12.21-12.21
	v-40.251L367.147,264.045L367.147,264.045z"/>
<path style="fill:#71E2EF;" d="M346.808,201.39h27.976c6.744,0,12.21,5.467,12.21,12.212v106.572c0,6.744-5.467,12.21-12.21,12.21
	h-27.976c-6.744,0-12.21-5.467-12.21-12.21V213.602C334.596,206.858,340.063,201.39,346.808,201.39z"/>
<path style="fill:#38C6D9;" d="M334.596,264.045v56.129c0,6.744,5.467,12.21,12.21,12.21h27.976c6.744,0,12.21-5.466,12.21-12.21
	v-56.129L334.596,264.045L334.596,264.045z"/>
<g>
</g>
<g>
</g>
<g>
</g>
<g>
</g>
<g>
</g>
<g>
</g>
<g>
</g>
<g>
</g>
<g>
</g>
<g>
</g>
<g>
</g>
<g>
</g>
<g>
</g>
<g>
</g>
<g>
</g>
</svg>
