<?xml version="1.0" encoding="iso-8859-1"?>
<!-- Generator: Adobe Illustrator 19.0.0, SVG Export Plug-In . SVG Version: 6.00 Build 0)  -->
<svg version="1.1" id="Layer_1" xmlns="http://www.w3.org/2000/svg" xmlns:xlink="http://www.w3.org/1999/xlink" x="0px" y="0px"
	 viewBox="0 0 512 512" style="enable-background:new 0 0 512 512;" xml:space="preserve">
<circle style="fill:#C92F00;" cx="256" cy="256" r="256"/>
<path style="fill:#930000;" d="M510.035,287.81L344.952,122.727l-35.462,44.127l-138.823,61.94L291.48,349.606l-175.264,43.413
	l118.053,118.053c7.166,0.602,14.41,0.927,21.733,0.927C386.612,512,494.37,414.182,510.035,287.81z"/>
<path style="fill:#FFFFFF;" d="M332.514,113.778H179.488c-7.251,0-13.129,5.879-13.129,13.129v92.181
	c0,7.251,5.879,13.129,13.129,13.129h58.583l12.512,23.445c2.312,4.332,8.521,4.332,10.833,0l12.512-23.445h58.585
	c7.251,0,13.129-5.879,13.129-13.129v-92.181C345.643,119.656,339.765,113.778,332.514,113.778z"/>
<path style="fill:#D0D1D3;" d="M332.514,113.778h-77.088v145.096c2.313,0.214,4.73-0.852,5.991-3.212l12.512-23.445h58.585
	c7.251,0,13.129-5.879,13.129-13.129v-92.181C345.643,119.656,339.765,113.778,332.514,113.778z"/>
<path style="fill:#FEE187;" d="M341.333,284.444H170.667l-56.889,28.444v72.692c0,6.982,5.66,12.641,12.643,12.641h259.16
	c6.982,0,12.641-5.66,12.641-12.641v-72.692L341.333,284.444z"/>
<g>
	<path style="fill:#FFC61B;" d="M341.333,284.444h-85.907v113.778h130.155c6.982,0,12.641-5.66,12.641-12.641v-72.692
		L341.333,284.444z"/>
	<path style="fill:#FFC61B;" d="M284.444,312.889v28.444h-56.889v-28.444H113.778v72.692c0,6.982,5.66,12.641,12.643,12.641h259.16
		c6.982,0,12.641-5.66,12.641-12.641v-72.692H284.444z"/>
</g>
<g>
	<path style="fill:#EAA22F;" d="M284.444,312.889v28.444h-29.019v56.889h130.155c6.982,0,12.641-5.66,12.641-12.641v-72.692H284.444
		z"/>
	<polygon style="fill:#EAA22F;" points="170.667,284.444 113.778,312.889 170.667,312.889 	"/>
</g>
<polygon style="fill:#E09112;" points="341.333,284.444 341.047,284.444 341.047,312.889 398.222,312.889 "/>
<path style="fill:#386895;" d="M279.273,162.909h-15.515v-15.515c0-4.284-3.474-7.758-7.758-7.758c-4.284,0-7.758,3.474-7.758,7.758
	v15.515h-15.515c-4.284,0-7.758,3.474-7.758,7.758c0,4.284,3.474,7.758,7.758,7.758h15.515v15.519c0,4.284,3.474,7.758,7.758,7.758
	c4.284,0,7.758-3.474,7.758-7.758v-15.519h15.515c4.284,0,7.758-3.474,7.758-7.758C287.03,166.383,283.557,162.909,279.273,162.909z
	"/>
<path style="fill:#273B7A;" d="M279.273,162.909h-15.515v-15.515c0-4.284-3.474-7.758-7.758-7.758c-0.197,0-0.381,0.043-0.574,0.059
	v61.949c0.193,0.016,0.378,0.059,0.574,0.059c4.284,0,7.758-3.474,7.758-7.758v-15.52h15.515c4.284,0,7.758-3.474,7.758-7.758
	C287.03,166.383,283.557,162.909,279.273,162.909z"/>
<g>
</g>
<g>
</g>
<g>
</g>
<g>
</g>
<g>
</g>
<g>
</g>
<g>
</g>
<g>
</g>
<g>
</g>
<g>
</g>
<g>
</g>
<g>
</g>
<g>
</g>
<g>
</g>
<g>
</g>
</svg>
