<?xml version="1.0" encoding="iso-8859-1"?>
<!-- Generator: Adobe Illustrator 19.0.0, SVG Export Plug-In . SVG Version: 6.00 Build 0)  -->
<svg version="1.1" id="Layer_1" xmlns="http://www.w3.org/2000/svg" xmlns:xlink="http://www.w3.org/1999/xlink" x="0px" y="0px"
	 viewBox="0 0 512 512" style="enable-background:new 0 0 512 512;" xml:space="preserve">
<circle style="fill:#273B7A;" cx="256" cy="256" r="256"/>
<path style="fill:#121149;" d="M512,256c0-5.541-0.197-11.036-0.543-16.489L398.222,126.276l-92.515,97.258l2.441,2.441
	l-194.37,156.301l129.405,129.405C247.429,511.89,251.702,512,256,512C397.384,512,512,397.384,512,256z"/>
<path style="fill:#38C6D9;" d="M298.093,126.276c-23.247,0-42.093,18.846-42.093,42.093c0-23.247-18.846-42.093-42.093-42.093
	h-100.13v256H256h142.222v-256H298.093z"/>
<path style="fill:#71E2EF;" d="M256,382.276H113.778v-256h100.131c23.247,0,42.091,18.846,42.091,42.091V382.276z"/>
<path style="fill:#02B2B2;" d="M256,382.276h142.222v-256h-100.13c-23.247,0-42.093,18.846-42.093,42.091V382.276z"/>
<g>
	<rect x="142.222" y="194.801" style="fill:#FFFFFF;" width="85.333" height="8.62"/>
	<rect x="142.222" y="223.246" style="fill:#FFFFFF;" width="85.333" height="8.62"/>
	<rect x="142.222" y="251.69" style="fill:#FFFFFF;" width="85.333" height="8.62"/>
	<rect x="142.222" y="280.135" style="fill:#FFFFFF;" width="85.333" height="8.62"/>
	<rect x="142.222" y="308.579" style="fill:#FFFFFF;" width="85.333" height="8.62"/>
	<rect x="284.444" y="194.801" style="fill:#FFFFFF;" width="85.333" height="8.62"/>
	<rect x="284.444" y="223.246" style="fill:#FFFFFF;" width="85.333" height="8.62"/>
	<rect x="284.444" y="251.69" style="fill:#FFFFFF;" width="85.333" height="8.62"/>
	<rect x="284.444" y="280.135" style="fill:#FFFFFF;" width="85.333" height="8.62"/>
	<rect x="284.444" y="308.579" style="fill:#FFFFFF;" width="85.333" height="8.62"/>
</g>
<g>
</g>
<g>
</g>
<g>
</g>
<g>
</g>
<g>
</g>
<g>
</g>
<g>
</g>
<g>
</g>
<g>
</g>
<g>
</g>
<g>
</g>
<g>
</g>
<g>
</g>
<g>
</g>
<g>
</g>
</svg>
