<?xml version="1.0" encoding="iso-8859-1"?>
<!-- Generator: Adobe Illustrator 19.0.0, SVG Export Plug-In . SVG Version: 6.00 Build 0)  -->
<svg version="1.1" id="Layer_1" xmlns="http://www.w3.org/2000/svg" xmlns:xlink="http://www.w3.org/1999/xlink" x="0px" y="0px"
	 viewBox="0 0 512 512" style="enable-background:new 0 0 512 512;" xml:space="preserve">
<circle style="fill:#386895;" cx="256" cy="256" r="256"/>
<path style="fill:#273B7A;" d="M512,256c0-7.923-0.379-15.755-1.084-23.493L392.189,113.778L316.48,240.054l12.135,12.135
	L113.778,379.259L246.319,511.8c3.213,0.119,6.437,0.2,9.681,0.2C397.384,512,512,397.384,512,256z"/>
<polygon style="fill:#E09112;" points="199.111,379.259 392.189,379.259 392.189,113.778 248.599,113.778 199.111,163.266 "/>
<polygon style="fill:#FEE187;" points="170.667,379.259 363.744,379.259 363.744,113.778 220.155,113.778 170.667,163.266 "/>
<polygon style="fill:#E09112;" points="142.222,379.259 335.3,379.259 335.3,113.778 191.71,113.778 142.222,163.266 "/>
<polygon style="fill:#FFFFFF;" points="306.855,113.778 113.778,113.778 113.778,379.258 257.367,379.258 306.855,329.771 "/>
<polygon style="fill:#FEE187;" points="306.855,113.778 201.123,113.778 201.123,379.258 257.367,379.258 306.855,329.771 "/>
<polygon style="fill:#FFC61B;" points="257.367,379.258 306.855,329.771 257.367,329.771 "/>
<g>
</g>
<g>
</g>
<g>
</g>
<g>
</g>
<g>
</g>
<g>
</g>
<g>
</g>
<g>
</g>
<g>
</g>
<g>
</g>
<g>
</g>
<g>
</g>
<g>
</g>
<g>
</g>
<g>
</g>
</svg>
