<?xml version="1.0" encoding="iso-8859-1"?>
<!-- Generator: Adobe Illustrator 19.0.0, SVG Export Plug-In . SVG Version: 6.00 Build 0)  -->
<svg version="1.1" id="Layer_1" xmlns="http://www.w3.org/2000/svg" xmlns:xlink="http://www.w3.org/1999/xlink" x="0px" y="0px"
	 viewBox="0 0 512 512" style="enable-background:new 0 0 512 512;" xml:space="preserve">
<circle style="fill:#273B7A;" cx="256" cy="256" r="256"/>
<path style="fill:#121149;" d="M120.891,351.096l159.722,159.722c121.735-11.614,218.591-108.47,230.205-230.205L393.761,163.557
	l-32.377,40.091l-70.06-70.06l-13.159,31.229l69.018,69.018l-22.138,33.402L120.891,351.096z"/>
<path style="fill:#FFC61B;" d="M378.683,156.444h-80.341l-4.482-17.927c-1.355-5.422-6.227-9.225-11.816-9.225h-52.093
	c-5.589,0-10.461,3.803-11.816,9.225l-4.482,17.927h-80.339c-10.79,0-19.537,8.747-19.537,19.537v160.035
	c0,10.79,8.747,19.537,19.537,19.537h245.369c10.79,0,19.537-8.747,19.537-19.537V175.981
	C398.222,165.192,389.475,156.444,378.683,156.444z"/>
<path style="fill:#EAA22F;" d="M378.683,156.444h-80.341l-4.482-17.927c-1.355-5.422-6.227-9.225-11.816-9.225H256v226.263h122.683
	c10.79,0,19.537-8.747,19.537-19.537V175.983C398.222,165.192,389.475,156.444,378.683,156.444z"/>
<rect x="113.778" y="216.781" style="fill:#E09112;" width="284.444" height="85.333"/>
<rect x="256" y="216.781" style="fill:#FF5419;" width="142.222" height="85.333"/>
<circle style="fill:#FFFFFF;" cx="298.667" cy="259.448" r="71.111"/>
<circle style="fill:#386895;" cx="298.667" cy="259.448" r="50.855"/>
<g>
</g>
<g>
</g>
<g>
</g>
<g>
</g>
<g>
</g>
<g>
</g>
<g>
</g>
<g>
</g>
<g>
</g>
<g>
</g>
<g>
</g>
<g>
</g>
<g>
</g>
<g>
</g>
<g>
</g>
</svg>
