<?xml version="1.0" encoding="iso-8859-1"?>
<!-- Generator: Adobe Illustrator 19.0.0, SVG Export Plug-In . SVG Version: 6.00 Build 0)  -->
<svg version="1.1" id="Layer_1" xmlns="http://www.w3.org/2000/svg" xmlns:xlink="http://www.w3.org/1999/xlink" x="0px" y="0px"
	 viewBox="0 0 512 512" style="enable-background:new 0 0 512 512;" xml:space="preserve">
<circle style="fill:#273B7A;" cx="256" cy="256" r="256"/>
<path style="fill:#121149;" d="M512,256L398.222,142.222l-99.987,145.096l-184.458,54.015c0,0,70.072,103.857,132.791,170.475
	c3.132,0.114,6.273,0.191,9.431,0.191C397.384,512,512,397.384,512,256z"/>
<rect x="113.778" y="142.222" style="fill:#71E2EF;" width="284.444" height="199.111"/>
<rect x="256.293" y="142.222" style="fill:#38C6D9;" width="141.929" height="199.111"/>
<rect x="144.998" y="167.202" style="fill:#FFFFFF;" width="222.005" height="149.152"/>
<g>
	<rect x="256.293" y="167.202" style="fill:#D0D1D3;" width="110.709" height="149.152"/>
	<rect x="144.998" y="284.444" style="fill:#D0D1D3;" width="222.005" height="31.913"/>
</g>
<rect x="256.293" y="284.444" style="fill:#A6A8AA;" width="110.709" height="31.913"/>
<polygon style="fill:#FF7F4F;" points="168.176,284.444 225.064,227.556 253.509,256 310.398,199.111 364.511,284.444 "/>
<polygon style="fill:#B54324;" points="310.398,199.111 256.288,253.221 256.288,284.444 364.511,284.444 "/>
<circle style="fill:#FFC61B;" cx="192.215" cy="211.178" r="20.687"/>
<g>
</g>
<g>
</g>
<g>
</g>
<g>
</g>
<g>
</g>
<g>
</g>
<g>
</g>
<g>
</g>
<g>
</g>
<g>
</g>
<g>
</g>
<g>
</g>
<g>
</g>
<g>
</g>
<g>
</g>
</svg>
