<?xml version="1.0" encoding="iso-8859-1"?>
<!-- Generator: Adobe Illustrator 19.0.0, SVG Export Plug-In . SVG Version: 6.00 Build 0)  -->
<svg version="1.1" id="Layer_1" xmlns="http://www.w3.org/2000/svg" xmlns:xlink="http://www.w3.org/1999/xlink" x="0px" y="0px"
	 viewBox="0 0 512.002 512.002" style="enable-background:new 0 0 512.002 512.002;" xml:space="preserve">
<circle style="fill:#FF5419;" cx="256.001" cy="256" r="256"/>
<path style="fill:#C92F00;" d="M512.001,256c0-17.83-1.827-35.233-5.298-52.034L362.597,59.859l-83.897,70.584l13.222,13.222
	L147.348,165.99l157.118,157.118L147.348,423.214l87.952,87.952c6.828,0.546,13.731,0.836,20.701,0.836
	C397.385,512,512.001,397.384,512.001,256z"/>
<path style="fill:#FFFFFF;" d="M355.27,426.667H156.733c-8.013,0-14.51-6.496-14.51-14.51V242.064c0-8.013,6.496-14.51,14.51-14.51
	H355.27c8.013,0,14.51,6.496,14.51,14.51v170.093C369.779,420.171,363.283,426.667,355.27,426.667z"/>
<g>
	<path style="fill:#D0D1D3;" d="M355.268,227.556h-99.843v199.111h99.843c8.013,0,14.51-6.496,14.51-14.51V242.064
		C369.779,234.051,363.283,227.556,355.268,227.556z"/>
	<rect x="142.223" y="256" style="fill:#D0D1D3;" width="227.556" height="28.444"/>
	<rect x="142.223" y="312.889" style="fill:#D0D1D3;" width="227.556" height="28.444"/>
	<rect x="142.223" y="369.778" style="fill:#D0D1D3;" width="227.556" height="28.444"/>
</g>
<g>
	<rect x="255.432" y="256" style="fill:#A6A8AA;" width="114.347" height="28.444"/>
	<rect x="255.432" y="312.889" style="fill:#A6A8AA;" width="114.347" height="28.444"/>
	<rect x="255.432" y="369.778" style="fill:#A6A8AA;" width="114.347" height="28.444"/>
</g>
<path style="fill:#FEE187;" d="M353.114,56.889H158.888c-9.204,0-16.665,7.461-16.665,16.665v80.431
	c0,9.204,7.461,16.665,16.665,16.665h74.357l15.881,29.758c2.934,5.499,10.816,5.499,13.75,0l15.881-29.758h74.357
	c9.204,0,16.665-7.461,16.665-16.665V73.554C369.779,64.35,362.318,56.889,353.114,56.889z"/>
<path style="fill:#FFC61B;" d="M353.114,56.889h-97.687v147.604c2.889,0.209,5.879-1.143,7.449-4.087l15.881-29.756h74.357
	c9.204,0,16.665-7.461,16.665-16.665V73.554C369.779,64.35,362.318,56.889,353.114,56.889z"/>
<g>
	<circle style="fill:#6CAF5F;" cx="345.644" cy="270.222" r="7.758"/>
	<circle style="fill:#6CAF5F;" cx="345.644" cy="326.68" r="7.758"/>
	<circle style="fill:#6CAF5F;" cx="345.644" cy="383.569" r="7.758"/>
</g>
<g>
</g>
<g>
</g>
<g>
</g>
<g>
</g>
<g>
</g>
<g>
</g>
<g>
</g>
<g>
</g>
<g>
</g>
<g>
</g>
<g>
</g>
<g>
</g>
<g>
</g>
<g>
</g>
<g>
</g>
</svg>
