<?xml version="1.0" encoding="iso-8859-1"?>
<!-- Generator: Adobe Illustrator 19.0.0, SVG Export Plug-In . SVG Version: 6.00 Build 0)  -->
<svg version="1.1" id="Layer_1" xmlns="http://www.w3.org/2000/svg" xmlns:xlink="http://www.w3.org/1999/xlink" x="0px" y="0px"
	 viewBox="0 0 512 512" style="enable-background:new 0 0 512 512;" xml:space="preserve">
<circle style="fill:#FFC61B;" cx="256" cy="256" r="256"/>
<path style="fill:#EAA22F;" d="M263.995,511.864c115.66-3.549,212.008-83.804,239.873-191.617L256,72.378l61.368,151.545
	L183.191,431.059L263.995,511.864z"/>
<path style="fill:#273B7A;" d="M204.205,439.622h103.589c16.618,0,30.091-13.472,30.091-30.091V154.264L256,72.378l-81.886,81.886
	v255.267C174.114,426.149,187.587,439.622,204.205,439.622z"/>
<path style="fill:#121149;" d="M256,72.378l-0.574,0.574v366.67h52.369c16.618,0,30.091-13.472,30.091-30.091V154.264L256,72.378z"
	/>
<g>
	<rect x="200.835" y="226.694" style="fill:#FFFFFF;" width="110.33" height="5.172"/>
	<rect x="200.835" y="254.276" style="fill:#FFFFFF;" width="110.33" height="5.172"/>
	<rect x="200.835" y="281.859" style="fill:#FFFFFF;" width="110.33" height="5.172"/>
	<rect x="200.835" y="309.441" style="fill:#FFFFFF;" width="110.33" height="5.172"/>
	<rect x="200.835" y="337.024" style="fill:#FFFFFF;" width="110.33" height="5.172"/>
</g>
<g>
	<rect x="255.431" y="226.694" style="fill:#D0D1D3;" width="55.734" height="5.172"/>
	<rect x="255.431" y="254.276" style="fill:#D0D1D3;" width="55.734" height="5.172"/>
	<rect x="255.431" y="281.859" style="fill:#D0D1D3;" width="55.734" height="5.172"/>
	<rect x="255.431" y="309.441" style="fill:#D0D1D3;" width="55.734" height="5.172"/>
	<rect x="255.431" y="337.024" style="fill:#D0D1D3;" width="55.734" height="5.172"/>
</g>
<g>
</g>
<g>
</g>
<g>
</g>
<g>
</g>
<g>
</g>
<g>
</g>
<g>
</g>
<g>
</g>
<g>
</g>
<g>
</g>
<g>
</g>
<g>
</g>
<g>
</g>
<g>
</g>
<g>
</g>
</svg>
