<?xml version="1.0" encoding="iso-8859-1"?>
<!-- Generator: Adobe Illustrator 19.0.0, SVG Export Plug-In . SVG Version: 6.00 Build 0)  -->
<svg version="1.1" id="Layer_1" xmlns="http://www.w3.org/2000/svg" xmlns:xlink="http://www.w3.org/1999/xlink" x="0px" y="0px"
	 viewBox="0 0 512 512" style="enable-background:new 0 0 512 512;" xml:space="preserve">
<circle style="fill:#273B7A;" cx="256" cy="256" r="256"/>
<path style="fill:#121149;" d="M502.756,324.353L308.364,129.96l-32.539-11.011l-45.396,4.31l-31.318,33.185v87.488l-23.869,176.721
	l91.12,91.12C379.495,507.268,473.733,429.358,502.756,324.353z"/>
<path style="fill:#FFC61B;" d="M199.111,293.926c-5.236,0-9.481-4.246-9.481-9.482V170.667c0-36.597,29.774-66.37,66.37-66.37
	s66.37,29.774,66.37,66.37c0,5.236-4.246,9.481-9.481,9.481s-9.481-4.246-9.481-9.481c0-26.14-21.268-47.407-47.407-47.407
	s-47.407,21.268-47.407,47.407v113.778C208.593,289.68,204.347,293.926,199.111,293.926z"/>
<path style="fill:#EAA22F;" d="M256,104.296c-0.193,0-0.383,0.012-0.574,0.014v18.963c0.191-0.002,0.381-0.014,0.574-0.014
	c26.14,0,47.407,21.268,47.407,47.407c0,5.236,4.246,9.481,9.481,9.481s9.481-4.246,9.481-9.481
	C322.37,134.07,292.597,104.296,256,104.296z"/>
<path style="fill:#FF5419;" d="M323.375,426.667H188.623c-9.918,0-17.956-8.04-17.956-17.958V273.956
	c0-9.918,8.04-17.958,17.956-17.958h134.753c9.918,0,17.958,8.04,17.958,17.958v134.753
	C341.333,418.626,333.293,426.667,323.375,426.667z"/>
<path style="fill:#C92F00;" d="M323.375,256h-67.951v170.667h67.951c9.918,0,17.958-8.04,17.958-17.958V273.956
	C341.333,264.04,333.293,256,323.375,256z"/>
<path style="fill:#273B7A;" d="M275.825,325.053c0-11.695-10.125-21.023-22.087-19.699c-9.164,1.014-16.57,8.533-17.465,17.71
	c-0.796,8.158,3.365,15.405,9.816,19.141v23.6c0,5.475,4.437,9.912,9.912,9.912l0,0c5.475,0,9.912-4.437,9.912-9.912v-23.6
	C271.832,338.773,275.825,332.386,275.825,325.053z"/>
<path style="fill:#121149;" d="M255.426,305.257v70.43c0.191,0.01,0.381,0.029,0.574,0.029c5.475,0,9.912-4.437,9.912-9.912v-23.6
	c5.92-3.429,9.912-9.818,9.912-17.151C275.825,313.913,266.635,304.943,255.426,305.257z"/>
<g>
</g>
<g>
</g>
<g>
</g>
<g>
</g>
<g>
</g>
<g>
</g>
<g>
</g>
<g>
</g>
<g>
</g>
<g>
</g>
<g>
</g>
<g>
</g>
<g>
</g>
<g>
</g>
<g>
</g>
</svg>
