<?xml version="1.0" encoding="iso-8859-1"?>
<!-- Generator: Adobe Illustrator 19.0.0, SVG Export Plug-In . SVG Version: 6.00 Build 0)  -->
<svg version="1.1" id="Layer_1" xmlns="http://www.w3.org/2000/svg" xmlns:xlink="http://www.w3.org/1999/xlink" x="0px" y="0px"
	 viewBox="0 0 512 512" style="enable-background:new 0 0 512 512;" xml:space="preserve">
<circle style="fill:#FFEDB5;" cx="256" cy="256" r="256"/>
<path style="fill:#FEE187;" d="M507.361,304.661l-93.624-93.624l-1.991,4.318l-96.64-96.64l-65.998,38.419l-28.282-28.282
	l-46.864,38.079v66.641h123.395l55.851,55.851L97.983,355.399l156.581,156.581c0.479,0.002,0.955,0.017,1.434,0.017
	C380.744,512,484.63,422.771,507.361,304.661z"/>
<g>
	<circle style="fill:#386895;" cx="273.084" cy="144.963" r="49.557"/>
	<circle style="fill:#386895;" cx="173.959" cy="144.963" r="49.557"/>
	<polygon style="fill:#386895;" points="413.737,343.188 347.662,310.15 347.662,244.074 413.737,211.037 	"/>
</g>
<polygon style="fill:#273B7A;" points="347.662,274.101 347.662,310.151 413.737,343.188 413.737,274.101 "/>
<path style="fill:#38C6D9;" d="M337.21,359.707H109.827c-10.195,0-18.46-8.264-18.46-18.46V212.978
	c0-10.195,8.264-18.461,18.46-18.461H337.21c10.195,0,18.46,8.264,18.46,18.461v128.269
	C355.671,351.442,347.405,359.707,337.21,359.707z"/>
<path style="fill:#02B2B2;" d="M91.367,274.101v67.146c0,10.195,8.264,18.46,18.46,18.46H337.21c10.195,0,18.46-8.264,18.46-18.46
	v-67.146H91.367z"/>
<g>
</g>
<g>
</g>
<g>
</g>
<g>
</g>
<g>
</g>
<g>
</g>
<g>
</g>
<g>
</g>
<g>
</g>
<g>
</g>
<g>
</g>
<g>
</g>
<g>
</g>
<g>
</g>
<g>
</g>
</svg>
