<?xml version="1.0" encoding="iso-8859-1"?>
<!-- Generator: Adobe Illustrator 19.0.0, SVG Export Plug-In . SVG Version: 6.00 Build 0)  -->
<svg version="1.1" id="Layer_1" xmlns="http://www.w3.org/2000/svg" xmlns:xlink="http://www.w3.org/1999/xlink" x="0px" y="0px"
	 viewBox="0 0 512 512" style="enable-background:new 0 0 512 512;" xml:space="preserve">
<circle style="fill:#FFC91B;" cx="256" cy="256" r="256"/>
<path style="fill:#EAA22F;" d="M512,256c0-20.106-2.324-39.669-6.708-58.439l-59.663-59.663l-173.366-4.698l-0.078-0.078
	l-0.057,0.081L66.37,137.899l76.366,76.366l-49.245,26.603l39.824,39.824l-66.944,2.096l58.544,58.546l-31.423,44.425
	l123.245,123.245c12.8,1.97,25.91,2.996,39.262,2.996C397.384,512,512,397.384,512,256z"/>
<rect x="93.487" y="292.237" style="fill:#273B7A;" width="93.539" height="93.539"/>
<rect x="324.973" y="292.237" style="fill:#121149;" width="93.539" height="93.539"/>
<rect x="210.403" y="292.237" style="fill:#386895;" width="93.539" height="93.539"/>
<rect x="66.37" y="274.584" style="fill:#273B7A;" width="379.259" height="8.209"/>
<rect x="93.487" y="147.342" style="fill:#386895;" width="93.539" height="93.539"/>
<g>
	<rect x="324.973" y="147.342" style="fill:#273B7A;" width="93.539" height="93.539"/>
	<rect x="210.403" y="147.342" style="fill:#273B7A;" width="93.539" height="93.539"/>
	<rect x="66.37" y="129.689" style="fill:#273B7A;" width="379.259" height="8.209"/>
	<rect x="255.431" y="292.237" style="fill:#273B7A;" width="48.511" height="93.522"/>
</g>
<g>
	<rect x="255.431" y="274.584" style="fill:#121149;" width="190.199" height="8.209"/>
	<rect x="255.431" y="147.342" style="fill:#121149;" width="48.511" height="93.539"/>
	<rect x="255.431" y="129.689" style="fill:#121149;" width="190.199" height="8.209"/>
</g>
<g>
</g>
<g>
</g>
<g>
</g>
<g>
</g>
<g>
</g>
<g>
</g>
<g>
</g>
<g>
</g>
<g>
</g>
<g>
</g>
<g>
</g>
<g>
</g>
<g>
</g>
<g>
</g>
<g>
</g>
</svg>
