<?xml version="1.0" encoding="iso-8859-1"?>
<!-- Generator: Adobe Illustrator 19.0.0, SVG Export Plug-In . SVG Version: 6.00 Build 0)  -->
<svg version="1.1" id="Layer_1" xmlns="http://www.w3.org/2000/svg" xmlns:xlink="http://www.w3.org/1999/xlink" x="0px" y="0px"
	 viewBox="0 0 512 512" style="enable-background:new 0 0 512 512;" xml:space="preserve">
<circle style="fill:#FFC61B;" cx="256" cy="256" r="256"/>
<path style="fill:#EAA22F;" d="M264.609,511.84c134.622-4.451,242.919-112.826,247.241-247.48L308.746,61.256l-41.9,147.551
	l28.991,28.991l-93.932,211.339L264.609,511.84z"/>
<path style="fill:#A30F44;" d="M213.619,455.111h84.759c8.013,0,14.51-6.496,14.51-14.51V71.399c0-8.013-6.496-14.51-14.51-14.51
	H213.62c-8.013,0-14.51,6.496-14.51,14.51v369.204C199.111,448.615,205.607,455.111,213.619,455.111z"/>
<path style="fill:#870A3D;" d="M298.379,56.889H256v398.222h42.379c8.013,0,14.51-6.496,14.51-14.51V71.399
	C312.889,63.385,306.393,56.889,298.379,56.889z"/>
<circle style="fill:#FF314F;" cx="256" cy="256" r="113.778"/>
<path style="fill:#A30F44;" d="M369.778,256c0-62.838-50.94-113.778-113.778-113.778v227.556
	C318.838,369.778,369.778,318.838,369.778,256z"/>
<circle style="fill:#FFEDB5;" cx="256" cy="256" r="85.333"/>
<path style="fill:#FEE187;" d="M341.333,256c0-47.128-38.205-85.333-85.333-85.333v170.667
	C303.128,341.333,341.333,303.128,341.333,256z"/>
<path style="fill:#FF314F;" d="M284.444,259.448H256c-1.903,0-3.448-1.545-3.448-3.448v-56.889c0-1.903,1.545-3.448,3.448-3.448
	s3.448,1.545,3.448,3.448v53.441h24.997c1.903,0,3.448,1.545,3.448,3.448S286.348,259.448,284.444,259.448z"/>
<g>
</g>
<g>
</g>
<g>
</g>
<g>
</g>
<g>
</g>
<g>
</g>
<g>
</g>
<g>
</g>
<g>
</g>
<g>
</g>
<g>
</g>
<g>
</g>
<g>
</g>
<g>
</g>
<g>
</g>
</svg>
