<?xml version='1.0' encoding='iso-8859-1'?>
<svg version="1.1" xmlns="http://www.w3.org/2000/svg" viewBox="0 0 44 44" xmlns:xlink="http://www.w3.org/1999/xlink" enable-background="new 0 0 44 44">
  <g>
    <circle cx="22" cy="15" r="2"/>
    <path d="m22,0c-12.2,0-22,9.8-22,22s9.8,22 22,22 22-9.8 22-22-9.8-22-22-22zm10.8,29.6c-2.1,2.5-4.9,4.2-8.1,4.9l-2.5,.5c-0.1,0-0.1,0-0.2,0s-0.1,0-0.2,0l-2.5-.5c-3.2-0.6-6.1-2.3-8.1-4.9-0.3-0.4-0.3-1.1 0.1-1.4l1.6-1.3c0.4-0.3 1.1-0.3 1.4,0.1 1.3,1.6 3.1,2.7 5,3.3 0.3,0.1 0.5-0.1 0.6-0.3v-0.1-3.4c0-0.3-0.2-0.5-0.5-0.5h-0.4c-0.6,0-1-0.4-1-1v-2c0-0.6 0.4-1 1-1h0.5c0.3,0 0.5-0.2 0.5-0.5v-0.5c0-0.2-0.1-0.4-0.3-0.5-2.2-0.9-3.7-3-3.7-5.5 0-3.3 2.7-6 6-6s6,2.7 6,6c0,2.5-1.5,4.6-3.7,5.5-0.2,0.1-0.3,0.3-0.3,0.5v0.5c0,0.3 0.2,0.5 0.5,0.5h0.5c0.6,0 1,0.4 1,1v2c0,0.6-0.4,1-1,1h-0.5c-0.3,0-0.5,0.2-0.5,0.5v3.4 0.1c0.1,0.3 0.3,0.4 0.6,0.3 2-0.5 3.7-1.7 5-3.3 0.3-0.4 1-0.5 1.4-0.1l1.6,1.3c0.5,0.4 0.5,1 0.2,1.4z"/>
  </g>
</svg>
