<?xml version='1.0' encoding='iso-8859-1'?>
<svg version="1.1" xmlns="http://www.w3.org/2000/svg" viewBox="0 0 44 44" xmlns:xlink="http://www.w3.org/1999/xlink" enable-background="new 0 0 44 44">
  <g>
    <path d="m23.3,24.4c-0.1-0.2-0.2-0.4-0.5-0.4h-1.6c-0.2,0-0.4,0.2-0.5,0.4-0.4,1.9-1.4,3.6-2.7,4.9-0.2,0.3-0.2,0.7 0.1,0.8 1.2,0.6 2.5,0.9 3.8,0.9 1.4,0 2.7-0.3 3.8-0.9 0.3-0.2 0.4-0.6 0.1-0.8-1.1-1.3-2.1-3.1-2.5-4.9z"/>
    <path d="m15,17.3c-0.2-0.2-0.6-0.2-0.8,0.1-0.4,0.6-0.6,1.2-0.8,1.9-0.1,0.3 0.2,0.6 0.5,0.6h2c0.4,0 0.6-0.4 0.5-0.7-0.4-0.6-0.8-1.3-1.4-1.9z"/>
    <path d="m20.7,19.6c0.1,0.2 0.2,0.4 0.5,0.4h1.6c0.2,0 0.4-0.2 0.5-0.4 0.4-1.9 1.4-3.6 2.7-4.9 0.2-0.3 0.2-0.7-0.1-0.8-1.2-0.6-2.5-0.9-3.8-0.9-1.4,0-2.7,0.3-3.8,0.9-0.3,0.2-0.4,0.6-0.1,0.8 1.1,1.4 2.1,3.1 2.5,4.9z"/>
    <path d="m15.9,24h-2.7c0.2,0.9 0.5,1.8 1,2.6 0.2,0.3 0.5,0.3 0.8,0.1 0.6-0.6 1-1.2 1.4-1.9 0.1-0.4-0.1-0.8-0.5-0.8z"/>
    <path d="m29.8,17.4c-0.2-0.3-0.5-0.3-0.8-0.1-0.6,0.6-1,1.2-1.4,1.9-0.2,0.3 0.1,0.7 0.5,0.7h2c0.3,0 0.6-0.3 0.5-0.6-0.2-0.6-0.5-1.3-0.8-1.9z"/>
    <path d="m30.1,24h-2c-0.4,0-0.6,0.4-0.5,0.7 0.3,0.7 0.8,1.4 1.4,1.9 0.2,0.2 0.6,0.2 0.8-0.1 0.4-0.6 0.6-1.2 0.8-1.9 0.1-0.3-0.2-0.6-0.5-0.6z"/>
    <path d="m22,0c-12.2,0-22,9.8-22,22s9.8,22 22,22 22-9.8 22-22-9.8-22-22-22zm0,35c-7.2,0-13-5.8-13-13s5.8-13 13-13 13,5.8 13,13-5.8,13-13,13z"/>
  </g>
</svg>
