<?xml version='1.0' encoding='iso-8859-1'?>
<svg version="1.1" xmlns="http://www.w3.org/2000/svg" viewBox="0 0 44 44" xmlns:xlink="http://www.w3.org/1999/xlink" enable-background="new 0 0 44 44">
  <g>
    <path d="M27.5,13H22h-5.5c-0.3,0-0.5,0.2-0.5,0.5v14.8c0,0.4,0.4,0.6,0.7,0.4l5.1-2.5c0.1,0,0.1-0.1,0.2-0.1s0.2,0,0.2,0.1l5.1,2.5   c0.3,0.2,0.7-0.1,0.7-0.4V13.5C28,13.2,27.8,13,27.5,13z"/>
    <path d="m22,0c-12.2,0-22,9.8-22,22s9.8,22 22,22 22-9.8 22-22-9.8-22-22-22zm10,34c0,0.6-0.4,1-1,1-0.2,0-0.3,0-0.4-0.1l-8.3-4.2c-0.1,0-0.1-0.1-0.2-0.1s-0.2,0-0.2,0.1l-8.3,4.2c-0.1,0.1-0.3,0.1-0.4,0.1-0.6,0-1-0.4-1-1v-24c0-0.6 0.4-1 1-1h9 9c0.6,0 1,0.4 1,1v24h-0.2z"/>
  </g>
</svg>
