<?xml version='1.0' encoding='iso-8859-1'?>
<svg version="1.1" xmlns="http://www.w3.org/2000/svg" viewBox="0 0 44 44" xmlns:xlink="http://www.w3.org/1999/xlink" enable-background="new 0 0 44 44">
  <g>
    <path d="m30.5,25h-17c-0.3,0-0.5,0.2-0.5,0.5v5c0,0.3 0.2,0.5 0.5,0.5h17c0.3,0 0.5-0.2 0.5-0.5v-5c0-0.3-0.2-0.5-0.5-0.5z"/>
    <path d="M22,0C9.8,0,0,9.8,0,22s9.8,22,22,22s22-9.8,22-22S34.2,0,22,0z M35,34c0,0.6-0.4,1-1,1H10c-0.6,0-1-0.4-1-1V16   c0-0.6,0.4-1,1-1h4.5c0.3,0,0.5-0.2,0.5-0.5V13c0-2.2,1.8-4,4-4h6c2.2,0,4,1.8,4,4v1.5c0,0.3,0.2,0.5,0.5,0.5H34c0.6,0,1,0.4,1,1   V34z"/>
    <path d="m30.5,19h-17c-0.3,0-0.5,0.2-0.5,0.5v1c0,0.3 0.2,0.5 0.5,0.5h17c0.3,0 0.5-0.2 0.5-0.5v-1c0-0.3-0.2-0.5-0.5-0.5z"/>
    <path d="m19.5,15h5c0.3,0 0.5-0.2 0.5-0.5v-1c0-0.3-0.2-0.5-0.5-0.5h-5c-0.3,0-0.5,0.2-0.5,0.5v1c0,0.3 0.2,0.5 0.5,0.5z"/>
  </g>
</svg>
