<?xml version='1.0' encoding='iso-8859-1'?>
<svg version="1.1" xmlns="http://www.w3.org/2000/svg" viewBox="0 0 44 44" xmlns:xlink="http://www.w3.org/1999/xlink" enable-background="new 0 0 44 44">
  <g>
    <path d="m20.6,23.4l-5.7-5.7c-0.2-0.2-0.5-0.2-0.7,0l-.1,.1c-0.7,1.3-1.1,2.7-1.1,4.2 0,2.5 1,4.7 2.6,6.4 1.6,1.6 3.9,2.6 6.4,2.6 1.5,0 2.9-0.4 4.2-1.1l.1-.1c0.2-0.2 0.2-0.5 0-0.7l-5.7-5.7z"/>
    <path d="m22,13c-1.5,0-2.9,0.4-4.2,1.1l-.1,.1c-0.2,0.2-0.2,0.5 0,0.7l5.7,5.7 5.7,5.7c0.2,0.2 0.5,0.2 0.7,0l.1-.1c0.7-1.3 1.1-2.7 1.1-4.2 0-2.5-1-4.7-2.6-6.4-1.7-1.6-3.9-2.6-6.4-2.6z"/>
    <path d="m22,0c-12.2,0-22,9.8-22,22s9.8,22 22,22 22-9.8 22-22-9.8-22-22-22zm9.2,31.2c-2.4,2.4-5.6,3.8-9.2,3.8s-6.8-1.5-9.2-3.8c-2.4-2.4-3.8-5.6-3.8-9.2 0-3.6 1.5-6.8 3.8-9.2 2.4-2.4 5.6-3.8 9.2-3.8s6.8,1.5 9.2,3.8c2.4,2.4 3.8,5.6 3.8,9.2 0,3.6-1.5,6.8-3.8,9.2z"/>
  </g>
</svg>
