<?xml version='1.0' encoding='iso-8859-1'?>
<svg version="1.1" xmlns="http://www.w3.org/2000/svg" viewBox="0 0 44 44" xmlns:xlink="http://www.w3.org/1999/xlink" enable-background="new 0 0 44 44">
  <g>
    <path d="m22,13c-5,0-9,4-9,9s4,9 9,9 9-4 9-9-4-9-9-9zm3.2,9.4l1.5,1.5c0.2,0.2 0.3,0.5 0.3,0.7s-0.1,0.5-0.3,0.7l-1.4,1.4c-0.2,0.2-0.5,0.3-0.7,0.3-0.3,0-0.5-0.1-0.7-0.3l-1.5-1.5c-0.2-0.2-0.5-0.2-0.7,0l-1.5,1.5c-0.2,0.2-0.5,0.3-0.7,0.3-0.3,0-0.5-0.1-0.7-0.3l-1.4-1.4c-0.2-0.2-0.3-0.5-0.3-0.7s0.1-0.5 0.3-0.7l1.5-1.5c0.2-0.2 0.2-0.5 0-0.7l-1.5-1.5c-0.2-0.2-0.3-0.5-0.3-0.7s0.1-0.5 0.3-0.7l1.4-1.4c0.2-0.2 0.5-0.3 0.7-0.3s0.5,0.1 0.7,0.3l1.5,1.5c0.2,0.2 0.5,0.2 0.7,0l1.5-1.5c0.2-0.2 0.5-0.3 0.7-0.3s0.5,0.1 0.7,0.3l1.4,1.4c0.2,0.2 0.3,0.5 0.3,0.7s-0.1,0.5-0.3,0.7l-1.5,1.5c-0.2,0.1-0.2,0.5 3.55271e-15,0.7z"/>
    <path d="m22,0c-12.2,0-22,9.8-22,22s9.8,22 22,22 22-9.8 22-22-9.8-22-22-22zm0,35c-7.2,0-13-5.8-13-13s5.8-13 13-13 13,5.8 13,13-5.8,13-13,13z"/>
  </g>
</svg>
