<?xml version='1.0' encoding='iso-8859-1'?>
<svg version="1.1" xmlns="http://www.w3.org/2000/svg" viewBox="0 0 44 44" xmlns:xlink="http://www.w3.org/1999/xlink" enable-background="new 0 0 44 44">
  <g>
    <path d="m30.5,19h-9c-0.3,0-0.5,0.2-0.5,0.5v7c0,0.3 0.2,0.5 0.5,0.5h5.5 0.8c0.2,0 0.4,0 0.5,0.1l.7,.4 1.2,.7c0.3,0.2 0.8,0 0.8-0.4v-8.3c0-0.3-0.2-0.5-0.5-0.5z"/>
    <path d="m23,14.5v-1c0-0.3-0.2-0.5-0.5-0.5h-9c-0.3,0-0.5,0.2-0.5,0.5v8.3c0,0.4 0.4,0.6 0.8,0.4l1.2-.7 .7-.4c0.2-0.1 0.3-0.1 0.5-0.1h0.3c0.3,0 0.5-0.2 0.5-0.5v-4.5c0-0.6 0.4-1 1-1h4.5c0.3,0 0.5-0.2 0.5-0.5z"/>
    <path d="m22,0c-12.2,0-22,9.8-22,22s9.8,22 22,22 22-9.8 22-22-9.8-22-22-22zm13,31v3c0,0.6-0.4,1-1,1-0.2,0-0.4-0.1-0.5-0.1l-6.4-3.8c-0.1,0-0.2-0.1-0.3-0.1h-8.8c-0.6,0-1-0.4-1-1v-5h-0.1l-6.4,3.8c-0.1,0.1-0.3,0.1-0.5,0.1-0.6,0-1-0.4-1-1v-3-15c0-0.6 0.4-1 1-1h16c0.6,0 1,0.4 1,1v5h7c0.6,0 1,0.4 1,1v15.1z"/>
  </g>
</svg>
