<?xml version='1.0' encoding='iso-8859-1'?>
<svg version="1.1" xmlns="http://www.w3.org/2000/svg" viewBox="0 0 44 44" xmlns:xlink="http://www.w3.org/1999/xlink" enable-background="new 0 0 44 44">
  <g>
    <path d="m22,15c-4.4,0-8,3.6-8,8s3.6,8 8,8 8-3.6 8-8-3.6-8-8-8zm2,9c0,0.6-0.4,1-1,1h-2c-0.6,0-1-0.4-1-1v-6c0-0.6 0.4-1 1-1h2c0.6,0 1,0.4 1,1v6z"/>
    <path d="m22,0c-12.2,0-22,9.8-22,22s9.8,22 22,22 22-9.8 22-22-9.8-22-22-22zm0,35c-6.6,0-12-5.4-12-12 0-5.5 3.7-10.1 8.7-11.5 0.2-0.1 0.4-0.3 0.4-0.5v-1c0-0.6 0.4-1 1-1h4c0.6,0 1,0.4 1,1v1c0,0.2 0.1,0.4 0.4,0.5 1.2,0.3 2.3,0.9 3.3,1.5 0.2,0.1 0.5,0.1 0.6-0.1l.5-.5c0.4-0.4 1-0.4 1.4,0l1.4,1.4c0.4,0.4 0.4,1 0,1.4l-.5,.5c-0.2,0.2-0.2,0.4-0.1,0.6 1.3,1.9 2,4.2 2,6.6-0.1,6.7-5.5,12.1-12.1,12.1z"/>
  </g>
</svg>
