<?xml version='1.0' encoding='iso-8859-1'?>
<svg version="1.1" xmlns="http://www.w3.org/2000/svg" viewBox="0 0 44 44" xmlns:xlink="http://www.w3.org/1999/xlink" enable-background="new 0 0 44 44">
  <g>
    <path d="m22,19.5c0.5,0.3 0.9,0.6 1.3,1 0.6,0.5 1.2,1 2,1.3 0.3,0.1 0.5,0 0.7-0.3 0-0.1 0-0.2 0-0.2-0.1-1.6-1.4-2.9-3-2.9-0.3,0-0.6,0.1-0.9,0.1-0.3,0.1-0.4,0.4-0.3,0.6 0,0.3 0.1,0.4 0.2,0.4z"/>
    <path d="m29,26.5c-4.7,0-6.7-1.7-8.2-2.9-1-0.8-1.4-1.1-2.3-1.1-1.3,0-2.4,1-2.5,2.3-0.1,0.9-0.7,1.6-1.5,1.8-0.9,0.2-1.5,1.3-1.5,2.2 0,1.1 0.9,2.3 2,2.3h14c1.1,0 2-1.1 2-2.3s-0.9-2.3-2-2.3z"/>
    <path d="m22,0c-12.2,0-22,9.8-22,22s9.8,22 22,22 22-9.8 22-22-9.8-22-22-22zm6,10.5c1.1,0 2,0.9 2,2s-0.9,2-2,2-2-0.9-2-2 0.9-2 2-2zm-9.4-.4c0.8-0.8 2-0.8 2.8,0s0.8,2 0,2.8-2,0.8-2.8,0c-0.8-0.8-0.8-2 0-2.8zm-4.6,4.4c1.1,0 2,0.9 2,2s-0.9,2-2,2-2-0.9-2-2 0.9-2 2-2zm15,20.5h-14c-3.3,0-6-2.9-6-6.3 0-2.2 1.2-4.3 3.1-5.4 0.1-0.1 0.2-0.2 0.2-0.3 0.6-1.9 2.1-3.5 4-4.1 0.1,0 0.2-0.2 0.3-0.3 1.1-2.5 3.6-4.1 6.4-4.1 3.9,0 7,3.1 7,7 0,0.2 0,0.4 0,0.6s0.1,0.5 0.4,0.5c2.7,0.6 4.6,3.2 4.6,6.1 0,3.4-2.7,6.3-6,6.3zm4-14.5c-1.1,0-2-0.9-2-2s0.9-2 2-2 2,0.9 2,2-0.9,2-2,2z"/>
  </g>
</svg>
