<?xml version='1.0' encoding='iso-8859-1'?>
<svg version="1.1" xmlns="http://www.w3.org/2000/svg" viewBox="0 0 44 44" xmlns:xlink="http://www.w3.org/1999/xlink" enable-background="new 0 0 44 44">
  <path d="M22,0C9.8,0,0,9.8,0,22s9.8,22,22,22s22-9.8,22-22S34.2,0,22,0z M34.7,30.7C32.8,32.6,30.6,35,28,35c-2.9,0-7.8-3.8-11-7  l-1-1c-3.2-3.2-7-8.1-7-11c0-2.7,2.4-4.8,4.3-6.7C13.5,9.1,13.8,9,14,9s0.5,0.1,0.7,0.3l4,4c0.4,0.4,0.4,1,0,1.4l-3.9,3.9  c-0.2,0.2-0.2,0.4-0.1,0.6l0,0c1,1.4,2.4,3.2,4.1,4.9l1,1c1.7,1.7,3.5,3.1,4.9,4.1c0.2,0.1,0.5,0.1,0.6-0.1l3.9-3.9  c0.4-0.4,1-0.4,1.4,0l4,4c0.2,0.2,0.3,0.5,0.3,0.7C35,30.3,34.9,30.5,34.7,30.7z"/>
</svg>
