<?xml version='1.0' encoding='iso-8859-1'?>
<svg version="1.1" xmlns="http://www.w3.org/2000/svg" viewBox="0 0 44 44" xmlns:xlink="http://www.w3.org/1999/xlink" enable-background="new 0 0 44 44">
  <g>
    <path d="m27.3,16l-6.3,2.6c-0.4,0.2-0.4,0.8 0.1,0.9l2.1,.5c0.4,0.1 0.6,0.4 0.7,0.7l.5,2.1c0.1,0.5 0.8,0.5 0.9,0.1l2.6-6.3c0.2-0.3-0.2-0.7-0.6-0.6z"/>
    <path d="m22,0c-12.2,0-22,9.8-22,22s9.8,22 22,22 22-9.8 22-22-9.8-22-22-22zm12.9,10.4l-10,24c-0.2,0.4-0.5,0.6-0.9,0.6-0.5,0-0.9-0.3-1-0.8l-2.5-10.4c0-0.2-0.2-0.3-0.4-0.4l-10.4-2.5c-0.4-0.1-0.8-0.5-0.8-1 0-0.4 0.3-0.8 0.6-0.9l24-10c0.1,0 0.2-0.1 0.4-0.1 0.6,0 1,0.4 1,1 0.1,0.2 0.1,0.4 0,0.5z"/>
  </g>
</svg>
