<?xml version='1.0' encoding='iso-8859-1'?>
<svg version="1.1" xmlns="http://www.w3.org/2000/svg" viewBox="0 0 44 44" xmlns:xlink="http://www.w3.org/1999/xlink" enable-background="new 0 0 44 44">
  <g>
    <path d="m22,0c-12.2,0-22,9.8-22,22s9.8,22 22,22 22-9.8 22-22-9.8-22-22-22zm6,33c0,0.6-0.4,1-1,1h-16c-0.6,0-1-0.4-1-1v-16c0-0.6 0.4-1 1-1h16c0.6,0 1,0.4 1,1v16zm6-6c0,0.6-0.4,1-1,1h-2c-0.6,0-1-0.4-1-1v-12.5c0-0.3-0.2-0.5-0.5-0.5h-12.5c-0.6,0-1-0.4-1-1v-2c0-0.6 0.4-1 1-1h16c0.6,0 1,0.4 1,1v16z"/>
    <path d="m23.5,20h-9c-0.3,0-0.5,0.2-0.5,0.5v9c0,0.3 0.2,0.5 0.5,0.5h9c0.3,0 0.5-0.2 0.5-0.5v-9c0-0.3-0.2-0.5-0.5-0.5z"/>
  </g>
</svg>
