<?xml version='1.0' encoding='iso-8859-1'?>
<svg version="1.1" xmlns="http://www.w3.org/2000/svg" viewBox="0 0 44 44" xmlns:xlink="http://www.w3.org/1999/xlink" enable-background="new 0 0 44 44">
  <g>
    <path d="m19.5,16h-2.4c-1,0-1.9,0.7-2.1,1.7-0.2,1.3 0.8,2.3 2,2.3h2.5c0.3,0 0.5-0.2 0.5-0.5v-3c0-0.3-0.2-0.5-0.5-0.5z"/>
    <path d="m27,24h-2.5c-0.3,0-0.5,0.2-0.5,0.5v3c0,0.3 0.2,0.5 0.5,0.5h2.4c1,0 1.9-0.7 2.1-1.7 0.2-1.2-0.8-2.3-2-2.3z"/>
    <path d="m22,0c-12.2,0-22,9.8-22,22s9.8,22 22,22 22-9.8 22-22-9.8-22-22-22zm5,32h-2.5c-0.3,0-0.5,0.2-0.5,0.5v1.5c0,0.6-0.4,1-1,1h-2c-0.6,0-1-0.4-1-1v-1.5c0-0.3-0.2-0.5-0.5-0.5h-6.5c-0.6,0-1-0.4-1-1v-2c0-0.6 0.4-1 1-1h6.5c0.3,0 0.5-0.2 0.5-0.5v-3c0-0.3-0.2-0.5-0.5-0.5h-2.5c-3.6,0-6.4-3.1-5.9-6.8 0.4-3 3.1-5.2 6.2-5.2h2.3c0.3,0 0.5-0.2 0.5-0.5v-1.5c0-0.6 0.4-1 1-1h2c0.6,0 1,0.4 1,1v1.5c0,0.3 0.2,0.5 0.5,0.5h6.5c0.6,0 1,0.4 1,1v2c0,0.6-0.4,1-1,1h-6.5c-0.3,0-0.5,0.2-0.5,0.5v3c0,0.3 0.2,0.5 0.5,0.5h2.3c3,0 5.8,2.2 6.2,5.2 0.3,3.7-2.5,6.8-6.1,6.8z"/>
  </g>
</svg>
