<?xml version='1.0' encoding='iso-8859-1'?>
<svg version="1.1" xmlns="http://www.w3.org/2000/svg" viewBox="0 0 44 44" xmlns:xlink="http://www.w3.org/1999/xlink" enable-background="new 0 0 44 44">
  <path d="M22,0C9.8,0,0,9.8,0,22s9.8,22,22,22s22-9.8,22-22S34.2,0,22,0z M15.3,18.3l1.4-1.4c0.2-0.2,0.4-0.3,0.7-0.3  c0.3,0,0.5,0.1,0.7,0.3l1,1c0.3,0.3,0.9,0.1,0.9-0.4V11c0-0.6,0.4-1,1-1h2c0.6,0,1,0.4,1,1v6.6c0,0.4,0.5,0.7,0.9,0.4l1-1  c0.2-0.2,0.4-0.3,0.7-0.3c0.3,0,0.5,0.1,0.7,0.3l1.4,1.4c0.2,0.2,0.3,0.4,0.3,0.7s-0.1,0.5-0.3,0.7l-6,6c-0.2,0.2-0.5,0.3-0.7,0.3  s-0.5-0.1-0.7-0.3l-6-6c-0.2-0.2-0.3-0.4-0.3-0.7C15,18.7,15.1,18.5,15.3,18.3z M35,33c0,0.6-0.4,1-1,1H10c-0.6,0-1-0.4-1-1v-6  c0-0.6,0.4-1,1-1h2c0.6,0,1,0.4,1,1v2.5c0,0.3,0.2,0.5,0.5,0.5h17c0.3,0,0.5-0.2,0.5-0.5V27c0-0.6,0.4-1,1-1h2c0.6,0,1,0.4,1,1V33z"/>
</svg>
