<?xml version='1.0' encoding='iso-8859-1'?>
<svg version="1.1" xmlns="http://www.w3.org/2000/svg" viewBox="0 0 44 44" xmlns:xlink="http://www.w3.org/1999/xlink" enable-background="new 0 0 44 44">
  <g>
    <path d="m22,14.1c-3.4,2.9-7,6.4-7,9.7 0,3.9 3.1,7 7,7 3.9,0 7-3.1 7-7 0-3.3-3.6-6.8-7-9.7z"/>
    <path d="m22,0c-12.2,0-22,9.8-22,22s9.8,22 22,22 22-9.8 22-22-9.8-22-22-22zm0,34.8c-6.1,0-11-4.9-11-11 0-5.9 5.9-10.6 10.3-14.5 0.2-0.2 0.4-0.2 0.7-0.2s0.5,0.1 0.7,0.2c4.5,3.9 10.3,8.5 10.3,14.5 0,6.1-4.9,11-11,11z"/>
  </g>
</svg>
