<?xml version='1.0' encoding='iso-8859-1'?>
<svg version="1.1" xmlns="http://www.w3.org/2000/svg" viewBox="0 0 44 44" xmlns:xlink="http://www.w3.org/1999/xlink" enable-background="new 0 0 44 44">
  <g>
    <circle cx="24" cy="20" r="7"/>
    <path d="m22,0c-12.2,0-22,9.8-22,22s9.8,22 22,22 22-9.8 22-22-9.8-22-22-22zm12.9,21.8c-0.7,4.6-4.4,8.2-8.9,9-2.9,0.5-5.6-0.1-7.8-1.5-0.2-0.1-0.5-0.1-0.6,0.1l-.6,.6c-0.2,0.2-0.2,0.5 0,0.7l1.2,1.2c0.4,0.4 0.4,1 0,1.4l-1.4,1.4c-0.4,0.4-1,0.4-1.4,0l-1.2-1.2c-0.2-0.2-0.5-0.2-0.7,0l-1.2,1.2c-0.4,0.4-1,0.4-1.4,0l-1.4-1.4c-0.4-0.4-0.4-1 0-1.4l1.2-1.2c0.2-0.2 0.2-0.5 0-0.7l-1.2-1.2c-0.4-0.4-0.4-1 0-1.4l1.4-1.4c0.4-0.4 1-0.4 1.4,0l1.2,1.2c0.2,0.2 0.5,0.2 0.7,0l.6-.6c0.2-0.2 0.2-0.4 0.1-0.6-1.4-2.2-2-4.9-1.6-7.8 0.8-4.5 4.4-8.2 8.9-9 7.4-1.3 13.9,5.1 12.7,12.6z"/>
  </g>
</svg>
