<?xml version='1.0' encoding='iso-8859-1'?>
<svg version="1.1" xmlns="http://www.w3.org/2000/svg" viewBox="0 0 44 44" xmlns:xlink="http://www.w3.org/1999/xlink" enable-background="new 0 0 44 44">
  <g>
    <path d="m26,21.4l-2.4-.3c-0.2,0-0.3-0.1-0.4-0.3l-.7-1.6c-0.1-0.2-0.3-0.3-0.5-0.3s-0.4,0.1-0.5,0.3l-.7,1.6c-0.1,0.2-0.2,0.3-0.4,0.3l-2.4,.3c-0.3,0-0.4,0.3-0.4,0.5 0,0.1 0.1,0.3 0.2,0.4l1.9,1.7c0.1,0.1 0.2,0.3 0.2,0.5l-.3,1.5c-0.1,0.3 0.2,0.6 0.5,0.6 0.1,0 0.2,0 0.2-0.1l1.6-.9c0.1,0 0.2-0.1 0.2-0.1s0.2,0 0.2,0.1l1.6,.9c0.1,0 0.2,0.1 0.2,0.1 0.3,0 0.6-0.3 0.5-0.6l-.3-1.5c0-0.2 0-0.4 0.2-0.5l1.9-1.7c0.1-0.1 0.2-0.2 0.2-0.4-0.2-0.2-0.4-0.4-0.6-0.5z"/>
    <path d="m22,0c-12.2,0-22,9.8-22,22s9.8,22 22,22 22-9.8 22-22-9.8-22-22-22zm12.7,20l-5.9,5.4c-0.1,0.1-0.2,0.3-0.2,0.5l1.4,6.9c0.1,0.7-0.4,1.2-1,1.2-0.2,0-0.3,0-0.5-0.1l-6.3-3.6c-0.2-0.1-0.3-0.1-0.5,0l-6.3,3.6c-0.2,0.1-0.3,0.1-0.5,0.1-0.6,0-1.1-0.5-1-1.2l1.4-6.9c0-0.2 0-0.4-0.2-0.5l-5.9-5.4c-0.2-0.2-0.3-0.5-0.3-0.7 0-0.5 0.3-0.9 0.9-1l7.8-.9c0.2,0 0.3-0.1 0.4-0.3l3-6.6c0.2-0.4 0.5-0.6 0.9-0.6s0.7,0.2 0.9,0.6l3,6.6c0.1,0.2 0.2,0.3 0.4,0.3l7.8,.9c0.6,0.1 0.9,0.5 0.9,1 0.1,0.3 7.10543e-15,0.5-0.2,0.7z"/>
  </g>
</svg>
