<?xml version='1.0' encoding='iso-8859-1'?>
<svg version="1.1" xmlns="http://www.w3.org/2000/svg" viewBox="0 0 44 44" xmlns:xlink="http://www.w3.org/1999/xlink" enable-background="new 0 0 44 44">
  <g>
    <path d="M30.5,18.5h-9.4c-0.4,0-0.7-0.2-0.9-0.6l-1.6-3.2c-0.1-0.2-0.3-0.3-0.4-0.3h-4.7c-0.3,0-0.5,0.2-0.5,0.5v14   c0,0.3,0.2,0.5,0.5,0.5h17c0.3,0,0.5-0.2,0.5-0.5v-10C31,18.7,30.8,18.5,30.5,18.5z"/>
    <path d="M22,0C9.8,0,0,9.8,0,22s9.8,22,22,22s22-9.8,22-22S34.2,0,22,0z M35,32.5c0,0.6-0.4,1-1,1H10c-0.6,0-1-0.4-1-1v-15v-2v-4   c0-0.6,0.4-1,1-1h10.4c0.4,0,0.7,0.2,0.9,0.6l1.6,3.2c0.1,0.2,0.3,0.3,0.4,0.3H34c0.6,0,1,0.4,1,1V32.5z"/>
  </g>
</svg>
