<?xml version='1.0' encoding='iso-8859-1'?>
<svg version="1.1" xmlns="http://www.w3.org/2000/svg" viewBox="0 0 44 44" xmlns:xlink="http://www.w3.org/1999/xlink" enable-background="new 0 0 44 44">
  <path d="m22,0c-12.2,0-22,9.8-22,22s9.8,22 22,22 22-9.8 22-22-9.8-22-22-22zm11,34c0,0.6-0.4,1-1,1h-20c-0.6,0-1-0.4-1-1v-16c0-0.6 0.4-1 1-1h2c0.6,0 1,0.4 1,1v12.5c0,0.3 0.2,0.5 0.5,0.5h13c0.3,0 0.5-0.2 0.5-0.5v-12.5c0-0.6 0.4-1 1-1h2c0.6,0 1,0.4 1,1v16zm-16-6v-10c0-0.6 0.4-1 1-1h2c0.6,0 1,0.4 1,1v10c0,0.6-0.4,1-1,1h-2c-0.6,0-1-0.4-1-1zm6,0v-10c0-0.6 0.4-1 1-1h2c0.6,0 1,0.4 1,1v10c0,0.6-0.4,1-1,1h-2c-0.6,0-1-0.4-1-1zm12-14c0,0.6-0.4,1-1,1h-24c-0.6,0-1-0.4-1-1v-2c0-0.6 0.4-1 1-1h9.5c0.3,0 0.5-0.2 0.5-0.5v-0.5c0-0.6 0.4-1 1-1h2c0.6,0 1,0.4 1,1v0.5c0,0.3 0.2,0.5 0.5,0.5h9.5c0.6,0 1,0.4 1,1v2z"/>
</svg>
