<?xml version='1.0' encoding='iso-8859-1'?>
<svg version="1.1" xmlns="http://www.w3.org/2000/svg" viewBox="0 0 44 44" xmlns:xlink="http://www.w3.org/1999/xlink" enable-background="new 0 0 44 44">
  <g>
    <path d="m22,0c-12.2,0-22,9.8-22,22s9.8,22 22,22 22-9.8 22-22-9.8-22-22-22zm12,16c0,1.3-0.6,2.5-1.7,3.3l-8.1,5.7c-0.1,0.1-0.2,0.2-0.2,0.4v4.2c0,0.3 0.2,0.5 0.5,0.5h4.5c0.6,0 1,0.4 1,1v2c0,0.6-0.4,1-1,1h-14c-0.6,0-1-0.4-1-1v-2c0-0.6 0.4-1 1-1h4.5c0.3,0 0.5-0.2 0.5-0.5v-4.2c0-0.2-0.1-0.3-0.2-0.4l-8.1-5.7c-1.1-0.7-1.7-2-1.7-3.3v-5c0-0.6 0.4-1 1-1h22c0.6,0 1,0.4 1,1v5z"/>
    <path d="m29.5,14h-15c-0.3,0-0.5,0.2-0.5,0.5v1.2c0,0.2 0.1,0.3 0.2,0.4l7.5,5.3c0.2,0.1 0.4,0.1 0.6,0l7.5-5.3c0.1-0.1 0.2-0.2 0.2-0.4v-1.2c0-0.3-0.2-0.5-0.5-0.5z"/>
  </g>
</svg>
