<?xml version='1.0' encoding='iso-8859-1'?>
<svg version="1.1" xmlns="http://www.w3.org/2000/svg" viewBox="0 0 44 44" xmlns:xlink="http://www.w3.org/1999/xlink" enable-background="new 0 0 44 44">
  <g>
    <path d="m30,27c-0.6,0-1,0.4-1,1v2c0,0.6 0.4,1 1,1s1-0.4 1-1v-2c0-0.6-0.4-1-1-1z"/>
    <path d="m22,0c-12.2,0-22,9.8-22,22s9.8,22 22,22 22-9.8 22-22-9.8-22-22-22zm13,30c0,2.8-2.2,5-5,5s-5-2.2-5-5v-2c0-2.3 1.5-4.2 3.6-4.8 0.2-0.1 0.4-0.3 0.4-0.5v-2.7c0-3.9-3.1-7-7-7s-7,3.1-7,7v2.7c0,0.2 0.1,0.4 0.4,0.5 2.1,0.6 3.6,2.5 3.6,4.8v2c0,2.8-2.2,5-5,5s-5-2.2-5-5v-2c0-1.5 0.7-2.9 1.8-3.8 0.1-0.1 0.2-0.2 0.2-0.4v-3.8c0-6.1 4.9-11 11-11s11,4.9 11,11v3.8c0,0.1 0.1,0.3 0.2,0.4 1.1,0.9 1.8,2.3 1.8,3.8v2z"/>
    <path d="m14,27c-0.6,0-1,0.4-1,1v2c0,0.6 0.4,1 1,1s1-0.4 1-1v-2c0-0.6-0.4-1-1-1z"/>
  </g>
</svg>
