<?xml version='1.0' encoding='iso-8859-1'?>
<svg version="1.1" xmlns="http://www.w3.org/2000/svg" viewBox="0 0 44 44" xmlns:xlink="http://www.w3.org/1999/xlink" enable-background="new 0 0 44 44">
  <g>
    <path d="m22,0c-12.2,0-22,9.8-22,22s9.8,22 22,22 22-9.8 22-22-9.8-22-22-22zm0,34c-4.4,0-13-7-13-16 0-4.4 3.6-8 8-8 1.8,0 3.4,0.6 4.7,1.5 0.2,0.1 0.4,0.1 0.6,0 1.3-1 2.9-1.5 4.7-1.5 4.4,0 8,3.6 8,8 0,9-8.6,16-13,16z"/>
    <path d="m27,14c-1.2,0-2,0.5-2.5,0.9l-1.9,1.5c-0.4,0.3-0.9,0.3-1.3,0l-1.9-1.5c-0.5-0.4-1.3-0.9-2.5-0.9-2.2,0-4,1.8-4,4 0,6.9 6.9,12 9,12s9-5.1 9-12c0.1-2.2-1.7-4-3.9-4z"/>
  </g>
</svg>
