<?xml version='1.0' encoding='iso-8859-1'?>
<svg version="1.1" xmlns="http://www.w3.org/2000/svg" viewBox="0 0 44 44" xmlns:xlink="http://www.w3.org/1999/xlink" enable-background="new 0 0 44 44">
  <g>
    <path d="m22,13c-2.4,0-4.7,0.9-6.4,2.6-1.7,1.7-2.6,4-2.6,6.4s0.9,4.7 2.6,6.4c1.7,1.7 4,2.6 6.4,2.6s4.7-0.9 6.4-2.6c1.7-1.7 2.6-4 2.6-6.4s-0.9-4.7-2.6-6.4c-1.7-1.7-4-2.6-6.4-2.6zm2,15c0,0.6-0.4,1-1,1h-2c-0.6,0-1-0.4-1-1v-6c0-0.6 0.4-1 1-1h2c0.6,0 1,0.4 1,1v6zm0-10c0,0.6-0.4,1-1,1h-2c-0.6,0-1-0.4-1-1v-2c0-0.6 0.4-1 1-1h2c0.6,0 1,0.4 1,1v2z"/>
    <path d="M22,0C9.8,0,0,9.8,0,22s9.8,22,22,22s22-9.8,22-22S34.2,0,22,0z M31.2,31.2C28.8,33.6,25.6,35,22,35s-6.8-1.5-9.2-3.8   C10.4,28.8,9,25.6,9,22s1.5-6.8,3.8-9.2C15.2,10.4,18.4,9,22,9s6.8,1.5,9.2,3.8c2.4,2.4,3.8,5.6,3.8,9.2S33.5,28.8,31.2,31.2z"/>
  </g>
</svg>
