<?xml version='1.0' encoding='iso-8859-1'?>
<svg version="1.1" xmlns="http://www.w3.org/2000/svg" viewBox="0 0 44 44" xmlns:xlink="http://www.w3.org/1999/xlink" enable-background="new 0 0 44 44">
  <g>
    <polygon points="17.8,15 22,16.8 26.2,15 22,13.2  "/>
    <path d="m22,0c-12.2,0-22,9.8-22,22s9.8,22 22,22 22-9.8 22-22-9.8-22-22-22zm12.4,29.9l-12,5c-0.1,0-0.2,0.1-0.4,0.1s-0.3,0-0.4-0.1l-12-5c-0.4-0.2-0.6-0.5-0.6-0.9v-2.2c0-0.7 0.7-1.2 1.4-0.9l11.6,4.8 11.6-4.8c0.7-0.3 1.4,0.2 1.4,0.9v2.2c0,0.4-0.3,0.8-0.6,0.9zm0-7l-12,5c-0.1,0-0.2,0.1-0.4,0.1s-0.3,0-0.4-0.1l-12-5c-0.4-0.2-0.6-0.5-0.6-0.9v-2.2c0-0.7 0.7-1.2 1.4-0.9l11.6,4.8 11.6-4.8c0.7-0.3 1.4,0.2 1.4,0.9v2.2c0,0.4-0.3,0.8-0.6,0.9zm0-7l-12,5c-0.1,0-0.2,0.1-0.4,0.1s-0.3,0-0.4-0.1l-12-5c-0.4-0.2-0.6-0.5-0.6-0.9s0.3-0.8 0.6-0.9l12-5c0.1,0 0.2-0.1 0.4-0.1s0.3,0 0.4,0.1l12,5c0.4,0.2 0.6,0.5 0.6,0.9s-0.3,0.8-0.6,0.9z"/>
  </g>
</svg>
