<?xml version='1.0' encoding='iso-8859-1'?>
<svg version="1.1" xmlns="http://www.w3.org/2000/svg" viewBox="0 0 44 44" xmlns:xlink="http://www.w3.org/1999/xlink" enable-background="new 0 0 44 44">
  <path d="M22,0C9.8,0,0,9.8,0,22s9.8,22,22,22s22-9.8,22-22S34.2,0,22,0z M34,26c0,0.6-0.4,1-1,1H18.4c-0.4,0-0.7,0.5-0.4,0.9l1,1  c0.2,0.2,0.3,0.4,0.3,0.7s-0.1,0.5-0.3,0.7l-1.4,1.4c-0.2,0.2-0.4,0.3-0.7,0.3c-0.3,0-0.5-0.1-0.7-0.3l-6-6C10,25.5,9.9,25.2,9.9,25  s0.1-0.5,0.3-0.7l6-6c0.2-0.2,0.4-0.3,0.7-0.3c0.3,0,0.5,0.1,0.7,0.3l1.4,1.4c0.2,0.2,0.3,0.4,0.3,0.7s-0.1,0.5-0.3,0.7l-1,1  c-0.3,0.3-0.1,0.9,0.4,0.9h11.1c0.3,0,0.5-0.2,0.5-0.5V13c0-0.6,0.4-1,1-1h2c0.6,0,1,0.4,1,1V26z"/>
</svg>
