<?xml version='1.0' encoding='iso-8859-1'?>
<svg version="1.1" xmlns="http://www.w3.org/2000/svg" viewBox="0 0 44 44" xmlns:xlink="http://www.w3.org/1999/xlink" enable-background="new 0 0 44 44">
  <g>
    <circle cx="20" cy="24" r="7"/>
    <path d="m22,0c-12.2,0-22,9.8-22,22s9.8,22 22,22 22-9.8 22-22-9.8-22-22-22zm13,17c0,0.6-0.4,1-1,1h-2c-0.5,0-1-0.4-1-1 0-0.3-0.2-0.5-0.5-0.5-0.1,0-0.3,0.1-0.3,0.1l-.8,.8c-0.2,0.2-0.2,0.4-0.1,0.6 1.1,1.7 1.7,3.7 1.7,5.9 0,6.1-4.9,11-11,11s-11-4.9-11-11 4.9-11 11-11c2.2,0 4.2,0.6 5.9,1.7 0.2,0.1 0.5,0.1 0.6-0.1l.8-.8c0.2-0.2 0.2-0.5 0-0.7-0.1-0.1-0.2-0.1-0.4-0.1-0.5,0-1-0.5-1-1v-2c0-0.6 0.4-1 1-1h7c0.6,0 1,0.4 1,1v7.1h0.1z"/>
  </g>
</svg>
