<?xml version='1.0' encoding='iso-8859-1'?>
<svg version="1.1" xmlns="http://www.w3.org/2000/svg" viewBox="0 0 44 44" xmlns:xlink="http://www.w3.org/1999/xlink" enable-background="new 0 0 44 44">
  <g>
    <path d="m29.7,19h-0.7c-0.2,0-0.4,0.2-0.5,0.4l-1.2,6c-0.1,0.3 0.2,0.6 0.5,0.6h0.7c0.2,0 0.4-0.2 0.5-0.4l1.2-6c0.1-0.3-0.2-0.6-0.5-0.6z"/>
    <path d="m24.5,14h-11c-0.3,0-0.5,0.2-0.5,0.5v2.3 0.1l2.5,12.7c0,0.2 0.3,0.4 0.5,0.4h5.9c0.2,0 0.4-0.2 0.5-0.4l2.5-12.7v-0.1-2.3c0.1-0.3-0.1-0.5-0.4-0.5z"/>
    <path d="M22,0C9.8,0,0,9.8,0,22s9.8,22,22,22s22-9.8,22-22S34.2,0,22,0z M35,16.2l-2.6,13c-0.1,0.5-0.5,0.8-1,0.8h-4.6   c-0.2,0-0.4,0.2-0.5,0.4l-0.6,2.8c-0.1,0.5-0.5,0.8-1,0.8H13.1c-0.5,0-0.9-0.3-1-0.8L8.9,17.1c0-0.1,0-0.1,0-0.2V11   c0-0.6,0.4-1,1-1h18c0.6,0,1,0.4,1,1v3.5c0,0.3,0.2,0.5,0.5,0.5h4.5c0.6,0,1,0.4,1,1C35,16.1,35,16.1,35,16.2z"/>
  </g>
</svg>
