<?xml version='1.0' encoding='iso-8859-1'?>
<svg version="1.1" xmlns="http://www.w3.org/2000/svg" viewBox="0 0 44 44" xmlns:xlink="http://www.w3.org/1999/xlink" enable-background="new 0 0 44 44">
  <g>
    <path d="m18.3,17.7c-0.3,0.1-0.7,0.2-1,0.2l-3.9,.5c-0.3,0-0.4,0.2-0.4,0.5v6.1c0,0.3 0.2,0.5 0.4,0.5l3.9,.5c0.3,0 0.7,0.1 1,0.2s0.7-0.1 0.7-0.5v-7.6c0-0.2-0.4-0.5-0.7-0.4z"/>
    <path d="m22,0c-12.2,0-22,9.8-22,22s9.8,22 22,22 22-9.8 22-22-9.8-22-22-22zm1,34c0,0.6-0.4,1-1,1-0.3,0-0.6-0.1-0.7-0.3l-4.1-4.5c-0.1-0.1-0.2-0.1-0.3-0.2l-7-.9c-0.5-0.1-0.9-0.5-0.9-1v-12.3c0-0.5 0.4-0.9 0.9-1l7-.9c0.1,0 0.2-0.1 0.3-0.2l4.1-4.5c0.2-0.2 0.4-0.3 0.7-0.3 0.6,0 1,0.4 1,1v24.1zm11.7-8.7l-1.4,1.4c-0.4,0.4-1,0.4-1.4,0l-1.5-1.5c-0.2-0.2-0.5-0.2-0.7,0l-1.5,1.5c-0.4,0.4-1,0.4-1.4,0l-1.4-1.4c-0.4-0.4-0.4-1 0-1.4l1.5-1.5c0.2-0.2 0.2-0.5 0-0.7l-1.5-1.5c-0.4-0.4-0.4-1 0-1.4l1.4-1.4c0.4-0.4 1-0.4 1.4,0l1.5,1.5c0.2,0.2 0.5,0.2 0.7,0l1.5-1.5c0.4-0.4 1-0.4 1.4,0l1.4,1.4c0.4,0.4 0.4,1 0,1.4l-1.5,1.5c-0.2,0.2-0.2,0.5 0,0.7l1.5,1.5c0.4,0.4 0.4,1 0,1.4z"/>
  </g>
</svg>
