<?xml version='1.0' encoding='iso-8859-1'?>
<svg version="1.1" xmlns="http://www.w3.org/2000/svg" viewBox="0 0 44 44" xmlns:xlink="http://www.w3.org/1999/xlink" enable-background="new 0 0 44 44">
  <g>
    <path d="m22,0c-12.2,0-22,9.8-22,22s9.8,22 22,22 22-9.8 22-22-9.8-22-22-22zm0,35c-7.2,0-13-5.8-13-13s5.8-13 13-13 13,5.8 13,13-5.8,13-13,13z"/>
    <path d="m22,13c-5,0-9,4-9,9s4,9 9,9 9-4 9-9-4-9-9-9zm1.6,9.8l2.1,1.8c0.2,0.2 0.3,0.4 0.3,0.7 0,0.2 0,0.4-0.1,0.5l-1,1.7c-0.2,0.3-0.5,0.5-0.9,0.5-0.2,0-0.3,0-0.5-0.1l-.1-.1-6-5c-0.2-0.2-0.4-0.5-0.4-0.8s0.1-0.6 0.4-0.8l6-5 .1-.1c0.2-0.1 0.3-0.1 0.5-0.1 0.3,0 0.7,0.2 0.9,0.5l1,1.7c0.1,0.1 0.1,0.3 0.1,0.5 0,0.3-0.1,0.5-0.3,0.7l-2.1,1.8c-0.5,0.4-0.5,1.2 3.55271e-15,1.6z"/>
  </g>
</svg>
