<?xml version='1.0' encoding='iso-8859-1'?>
<svg version="1.1" xmlns="http://www.w3.org/2000/svg" viewBox="0 0 44 44" xmlns:xlink="http://www.w3.org/1999/xlink" enable-background="new 0 0 44 44">
  <g>
    <path d="m28.5,15h-1c-0.3,0-0.5,0.2-0.5,0.5v0.5c0,0.6-0.4,1-1,1h-2c-0.6,0-1-0.4-1-1v-0.5c0-0.3-0.2-0.5-0.5-0.5h-1c-0.3,0-0.5,0.2-0.5,0.5v0.5c0,0.6-0.4,1-1,1h-2c-0.6,0-1-0.4-1-1v-0.5c0-0.3-0.2-0.5-0.5-0.5h-1c-0.3,0-0.5,0.2-0.5,0.5v15c0,0.3 0.2,0.5 0.5,0.5h13c0.3,0 0.5-0.2 0.5-0.5v-15c0-0.3-0.2-0.5-0.5-0.5z"/>
    <path d="M22,0C9.8,0,0,9.8,0,22s9.8,22,22,22s22-9.8,22-22S34.2,0,22,0z M33,34c0,0.6-0.4,1-1,1H12c-0.6,0-1-0.4-1-1V12   c0-0.6,0.4-1,1-1h4.5c0.3,0,0.5-0.2,0.5-0.5V10c0-0.6,0.4-1,1-1h2c0.6,0,1,0.4,1,1v0.5c0,0.3,0.2,0.5,0.5,0.5h1   c0.3,0,0.5-0.2,0.5-0.5V10c0-0.6,0.4-1,1-1h2c0.6,0,1,0.4,1,1v0.5c0,0.3,0.2,0.5,0.5,0.5H32c0.6,0,1,0.4,1,1V34z"/>
  </g>
</svg>
