<?xml version='1.0' encoding='iso-8859-1'?>
<svg version="1.1" xmlns="http://www.w3.org/2000/svg" viewBox="0 0 44 44" xmlns:xlink="http://www.w3.org/1999/xlink" enable-background="new 0 0 44 44">
  <g>
    <path d="M22,0C9.8,0,0,9.8,0,22s9.8,22,22,22s22-9.8,22-22S34.2,0,22,0z M29.3,22.3l4.5,5.5c0.1,0.2,0.2,0.4,0.2,0.7   c0,0.2,0,0.5-0.2,0.7c-0.6,0.9-1.3,1.7-2.1,2.5c-2.3,2.1-5.4,3.4-8.7,3.4c-7.2,0-13-5.8-13-13s5.8-13,13-13c3.4,0,6.4,1.3,8.7,3.4   c0.8,0.7,1.5,1.6,2.1,2.5c0.1,0.2,0.2,0.4,0.2,0.7c0,0.2-0.1,0.5-0.2,0.7l-4.5,5.5c-0.1,0.1-0.1,0.2-0.1,0.3   C29.2,22.1,29.2,22.2,29.3,22.3z"/>
    <path d="m24.3,22.8c-0.3-0.4-0.3-0.9 0-1.3l4.6-5.6c0.2-0.2 0.2-0.5-0.1-0.7-1.6-1.3-3.6-2.1-5.8-2.1-5,0-9,4-9,9s4,9 9,9c2.3,0 4.4-0.9 6-2.3 0.2-0.2 0.2-0.5 0-0.7l-4.7-5.3zm-4.3-1.8c-1.1,0-2-0.9-2-2s0.9-2 2-2 2,0.9 2,2-0.9,2-2,2z"/>
  </g>
</svg>
