<?xml version='1.0' encoding='iso-8859-1'?>
<svg version="1.1" xmlns="http://www.w3.org/2000/svg" viewBox="0 0 44 44" xmlns:xlink="http://www.w3.org/1999/xlink" enable-background="new 0 0 44 44">
  <path d="m22,0c-12.2,0-22,9.8-22,22s9.8,22 22,22 22-9.8 22-22-9.8-22-22-22zm11.5,21.8l-10.9,10.9c-1.5,1.5-3.5,2.3-5.7,2.3s-4.1-0.8-5.7-2.3c-1.5-1.5-2.3-3.5-2.3-5.7s0.8-4.1 2.3-5.7l12.1-12.1c0.2-0.2 0.4-0.3 0.7-0.3s0.5,0.1 0.7,0.3l1.4,1.4c0.4,0.4 0.4,1 0,1.4l-12.1,12.1c-0.8,0.8-1.2,1.8-1.2,2.8s0.4,2.1 1.2,2.8c1.5,1.5 4.1,1.5 5.7,0l10.9-10.9c0.2-0.2 0.3-0.4 0.3-0.7 0-0.6-0.4-1-1-1-0.4,0-0.6,0.2-0.7,0.3l-9.2,9.2c-0.2,0.2-0.5,0.3-0.7,0.3s-0.5-0.1-0.7-0.3l-1.4-1.4c-0.4-0.4-0.4-1 0-1.4l9.2-9.2c0.9-0.9 2.2-1.5 3.5-1.5 2.8,0 5,2.2 5,5 0.1,1.5-0.4,2.7-1.4,3.7z"/>
</svg>
