<?xml version='1.0' encoding='iso-8859-1'?>
<svg version="1.1" xmlns="http://www.w3.org/2000/svg" viewBox="0 0 44 44" xmlns:xlink="http://www.w3.org/1999/xlink" enable-background="new 0 0 44 44">
  <g>
    <path d="m22,0c-12.2,0-22,9.8-22,22s9.8,22 22,22 22-9.8 22-22-9.8-22-22-22zm0,35c-7.2,0-13-5.8-13-13s5.8-13 13-13 13,5.8 13,13-5.8,13-13,13z"/>
    <path d="m22,13c-5,0-9,4-9,9s4,9 9,9 9-4 9-9-4-9-9-9zm-1,13c0,0.6-0.4,1-1,1h-2c-0.6,0-1-0.4-1-1v-8c0-0.6 0.4-1 1-1h2c0.6,0 1,0.4 1,1v8zm6,0c0,0.6-0.4,1-1,1h-2c-0.6,0-1-0.4-1-1v-8c0-0.6 0.4-1 1-1h2c0.6,0 1,0.4 1,1v8z"/>
  </g>
</svg>
