<?xml version='1.0' encoding='iso-8859-1'?>
<svg version="1.1" xmlns="http://www.w3.org/2000/svg" viewBox="0 0 44 44" xmlns:xlink="http://www.w3.org/1999/xlink" enable-background="new 0 0 44 44">
  <g>
    <path d="m26.2,28.1c-0.7-0.3-1.4-0.7-2.1-1-1.9-1-4-2-5.1-2-1.9,0-4.2,1.1-5.8,2-0.2,0.1-0.2,0.3-0.2,0.4v1.1c0,0.3 0.2,0.5 0.5,0.5h12.5c0.5-0.1 0.7-0.8 0.2-1z"/>
    <path d="m30.5,15h-17c-0.3,0-0.5,0.2-0.5,0.5v6.3c0,0.4 0.4,0.6 0.7,0.5 1.6-0.7 3.5-1.3 5.3-1.3 2.1,0 4.5,1.2 7,2.5 1.5,0.8 3,1.5 4.4,2 0.3,0.1 0.7-0.1 0.7-0.5v-9.5c-0.1-0.3-0.3-0.5-0.6-0.5zm-3.5,6c-1.1,0-2-0.9-2-2s0.9-2 2-2 2,0.9 2,2-0.9,2-2,2z"/>
    <path d="M22,0C9.8,0,0,9.8,0,22s9.8,22,22,22s22-9.8,22-22S34.2,0,22,0z M35,32c0,0.6-0.4,1-1,1H10c-0.6,0-1-0.4-1-1V12   c0-0.6,0.4-1,1-1h24c0.6,0,1,0.4,1,1V32z"/>
  </g>
</svg>
