<?xml version='1.0' encoding='iso-8859-1'?>
<svg version="1.1" xmlns="http://www.w3.org/2000/svg" viewBox="0 0 44 44" xmlns:xlink="http://www.w3.org/1999/xlink" enable-background="new 0 0 44 44">
  <g>
    <path d="m30.5,19h-4.2c-0.2,0-0.4-0.2-0.5-0.4l-.8-3.2c-0.1-0.2-0.3-0.4-0.5-0.4h-5c-0.2,0-0.4,0.2-0.5,0.4l-.8,3.2c-0.1,0.2-0.3,0.4-0.5,0.4h-4.2c-0.3,0-0.5,0.2-0.5,0.5v9c0,0.3 0.2,0.5 0.5,0.5h17c0.3,0 0.5-0.2 0.5-0.5v-9c0-0.3-0.2-0.5-0.5-0.5zm-8.5,8c-2.2,0-4-1.8-4-4s1.8-4 4-4 4,1.8 4,4-1.8,4-4,4z"/>
    <path d="m22,0c-12.2,0-22,9.8-22,22s9.8,22 22,22 22-9.8 22-22-9.8-22-22-22zm13,32c0,0.6-0.4,1-1,1h-24c-0.6,0-1-0.4-1-1v-16c0-0.6 0.4-1 1-1h4.2c0.5,0 0.9-0.3 1-0.8l.6-2.5c0.1-0.4 0.5-0.8 1-0.8h10.4c0.5,0 0.9,0.3 1,0.8l.6,2.5c0.1,0.4 0.5,0.8 1,0.8h4.2c0.6,0 1,0.4 1,1v16z"/>
  </g>
</svg>
