<?xml version='1.0' encoding='iso-8859-1'?>
<svg version="1.1" xmlns="http://www.w3.org/2000/svg" viewBox="0 0 44 44" xmlns:xlink="http://www.w3.org/1999/xlink" enable-background="new 0 0 44 44">
  <g>
    <path d="m22,13c-3.3,0-6,2.7-6,6 0,1.3 0.4,2.6 1.2,3.6l4.4,5.9c0.2,0.2 0.5,0.3 0.7,0.1l.1-.1 4.4-5.9c0.8-1 1.2-2.3 1.2-3.6-3.55271e-15-3.3-2.7-6-6-6zm0,8c-1.1,0-2-0.9-2-2s0.9-2 2-2 2,0.9 2,2-0.9,2-2,2z"/>
    <path d="m22,0c-12.2,0-22,9.8-22,22s9.8,22 22,22 22-9.8 22-22-9.8-22-22-22zm8,25l-7.2,9.6c-0.2,0.2-0.5,0.4-0.8,0.4s-0.6-0.2-0.8-0.4l-7.2-9.6c-1.3-1.7-2-3.7-2-6 0-5.5 4.5-10 10-10s10,4.5 10,10c0,2.2-0.7,4.3-2,6z"/>
  </g>
</svg>
