<?xml version='1.0' encoding='iso-8859-1'?>
<svg version="1.1" xmlns="http://www.w3.org/2000/svg" viewBox="0 0 44 44" xmlns:xlink="http://www.w3.org/1999/xlink" enable-background="new 0 0 44 44">
  <path d="m22,0c-12.2,0-22,9.8-22,22s9.8,22 22,22 22-9.8 22-22-9.8-22-22-22zm8.7,33.9l-.2,.1c-0.7,0.4-1.7,0.9-3.5,0.9-0.9,0-1.7-0.2-2.4-0.4-0.9-0.3-1.9-0.6-3.6-0.6-2.8,0-4.4,0.1-5.6,0.9-0.1,0.1-0.2,0.1-0.3,0.1-0.2,0-0.3-0.1-0.4-0.2l-1.7-2.5c-0.1-0.1-0.1-0.2-0.1-0.3 0-0.2 0.1-0.3 0.2-0.4 2.4-1.6 4.8-3.5 4.8-5.6 0-0.4-0.1-0.9-0.2-1.6 0-0.2-0.3-0.4-0.5-0.4h-3.2c-0.6,0-1-0.4-1-1v-2c0-0.6 0.4-1 1-1h2.1c0.3,0 0.6-0.3 0.5-0.6s-0.2-0.7-0.3-1.1c-0.2-0.7-0.3-1.7-0.3-2.3 0-3.9 3.1-7 7-7 3.5,0 6.3,2.5 6.9,5.8 0,0.1 0,0.1 0,0.2 0,0.6-0.4,1-1,1h-2c-0.4,0-0.9-0.4-1-0.8-0.4-1.3-1.5-2.2-2.9-2.2-1.7,0-3,1.3-3,3 0,0.4 0.1,0.9 0.1,1.1 0.2,0.7 0.5,1.6 0.7,2.5 0.1,0.2 0.3,0.4 0.5,0.4h6.7c0.6,0 1,0.4 1,1v2c0,0.6-0.4,1-1,1h-5.6c-0.3,0-0.5,0.3-0.5,0.6 0.1,0.5 0.1,1 0.1,1.4 0,1.2-0.3,2.3-0.8,3.3-0.2,0.4 0,0.7 0.4,0.7 1.9,0.1 3.2,0.4 4.1,0.7 0.6,0.2 1,0.3 1.3,0.3 0.8,0 1.1-0.2 1.6-0.4l.3-.2c0.2-0.1 0.5,0 0.7,0.2l1.4,2.7c0,0.1 0.1,0.2 0.1,0.2-0.1,0.3-0.2,0.5-0.4,0.5z"/>
</svg>
