<?xml version='1.0' encoding='iso-8859-1'?>
<svg version="1.1" xmlns="http://www.w3.org/2000/svg" viewBox="0 0 44 44" xmlns:xlink="http://www.w3.org/1999/xlink" enable-background="new 0 0 44 44">
  <g>
    <path d="m18.6,16.2c0.4,0.1 0.8-0.2 0.6-0.6-0.4-1.2-1-2.2-1.4-2.6-0.7,0.1-1.7,1.1-1.8,1.8 0.4,0.5 1.4,1 2.6,1.4z"/>
    <path d="m25.4,16.2c1.2-0.4 2.2-1 2.6-1.4-0.1-0.7-1.1-1.7-1.8-1.8-0.4,0.3-1,1.4-1.4,2.6-0.2,0.4 0.2,0.8 0.6,0.6z"/>
    <path d="m19.5,22h-4c-0.3,0-0.5,0.2-0.5,0.5v8c0,0.3 0.2,0.5 0.5,0.5h4c0.3,0 0.5-0.2 0.5-0.5v-8c0-0.3-0.2-0.5-0.5-0.5z"/>
    <path d="m22,0c-12.2,0-22,9.8-22,22s9.8,22 22,22 22-9.8 22-22-9.8-22-22-22zm13,21c0,0.6-0.4,1-1,1h-0.5c-0.3,0-0.5,0.2-0.5,0.5v11.5c0,0.6-0.4,1-1,1h-20c-0.6,0-1-0.4-1-1v-11.5c0-0.3-0.2-0.5-0.5-0.5h-0.5c-0.6,0-1-0.4-1-1v-2c0-0.6 0.4-1 1-1h2.4c0.4,0 0.6-0.5 0.4-0.8-0.5-0.6-0.8-1.4-0.8-2.2 0-3 3-6 6-6 1.5,0 2.7,1 3.6,2.4 0.2,0.3 0.6,0.3 0.8,0 0.9-1.4 2.1-2.4 3.6-2.4 3,0 6,3 6,6 0,0.8-0.3,1.6-0.8,2.2-0.3,0.3 0,0.8 0.4,0.8h2.4c0.6,0 1,0.4 1,1v2z"/>
    <path d="m28.5,22h-4c-0.3,0-0.5,0.2-0.5,0.5v8c0,0.3 0.2,0.5 0.5,0.5h4c0.3,0 0.5-0.2 0.5-0.5v-8c0-0.3-0.2-0.5-0.5-0.5z"/>
  </g>
</svg>
