<?xml version='1.0' encoding='iso-8859-1'?>
<svg version="1.1" xmlns="http://www.w3.org/2000/svg" viewBox="0 0 44 44" xmlns:xlink="http://www.w3.org/1999/xlink" enable-background="new 0 0 44 44">
  <g>
    <path d="m29.5,18h-0.2c-2.1,0-3.9-1.4-4.4-3.5-0.2-0.9-1-1.5-1.9-1.5-0.8,0-1.5,0.5-1.8,1.2-0.7,1.7-2.3,2.8-4.2,2.8-0.5,0-0.9,0.4-1,0.8-0.2,0.9-0.7,1.8-1.4,2.4-0.2,0.2-0.2,0.5-0.1,0.7 0.1,0.1 0.2,0.2 0.4,0.2h2.6 9 3c0.8,0 1.5-0.7 1.5-1.5 0-0.9-0.7-1.6-1.5-1.6z"/>
    <path d="m22,0c-12.2,0-22,9.8-22,22s9.8,22 22,22 22-9.8 22-22-9.8-22-22-22zm-4,31c0,1.1-0.9,2-2,2s-2-0.9-2-2v-2c0-1.1 0.9-2 2-2s2,0.9 2,2v2zm6,2c0,1.1-0.9,2-2,2s-2-0.9-2-2v-2c0-1.1 0.9-2 2-2s2,0.9 2,2v2zm6-2c0,1.1-0.9,2-2,2s-2-0.9-2-2v-2c0-1.1 0.9-2 2-2s2,0.9 2,2v2zm-.5-6h-3-9-4.5c-2.2,0-4-1.8-4-4 0-1.8 1.2-3.3 2.8-3.8 0.2-0.1 0.3-0.2 0.3-0.4 0.5-2.2 2.5-3.8 4.9-3.8 0.2,0 0.4-0.1 0.5-0.3 0.9-2.2 3-3.7 5.5-3.7 2.8,0 5.2,2 5.8,4.6 0.1,0.2 0.3,0.4 0.5,0.4 0.1,0 0.1,0 0.2,0 3,0 5.5,2.5 5.5,5.5 0,3-2.5,5.5-5.5,5.5z"/>
  </g>
</svg>
