<?xml version='1.0' encoding='iso-8859-1'?>
<svg version="1.1" xmlns="http://www.w3.org/2000/svg" viewBox="0 0 44 44" xmlns:xlink="http://www.w3.org/1999/xlink" enable-background="new 0 0 44 44">
  <g>
    <path d="m15,19c-1.1,0-2,0.9-2,2s0.9,2 2,2c0.6,0 1.2-0.3 1.6-0.8 0.2-0.2 0.4-0.6 0.4-1.2 0-0.3-0.1-0.5-0.2-0.8-0.3-0.7-1-1.2-1.8-1.2z"/>
    <path d="m26,31c1.1,0 2-0.9 2-2s-0.9-2-2-2c-0.6,0-1.2,0.3-1.6,0.8-0.2,0.2-0.4,0.6-0.4,1.2 0,1.1 0.9,2 2,2z"/>
    <path d="m22,0c-12.2,0-22,9.8-22,22s9.8,22 22,22 22-9.8 22-22-9.8-22-22-22zm7,21c-1.6,0-3.1-0.7-4.2-1.7-0.1-0.1-0.4-0.2-0.5-0.1l-3,1.3c-0.2,0.1-0.3,0.3-0.3,0.5 0,0.5-0.1,1-0.2,1.4 0,0.2 0,0.4 0.2,0.5l1.3,.9c0.2,0.1 0.4,0.1 0.6,0 0.9-0.5 2-0.9 3.1-0.9 3.3,0 6,2.7 6,6s-2.7,6-6,6-6-2.7-6-6c0-0.5 0.1-0.9 0.2-1.4 0-0.2 0-0.4-0.2-0.5l-1.3-1c-0.2-0.1-0.4-0.1-0.6,0-0.9,0.6-2,0.9-3.1,0.9-3.3,0-6-2.7-6-6s2.7-6 6-6c1.6,0 3.1,0.7 4.2,1.7 0.1,0.1 0.4,0.2 0.5,0.1l3-1.3c0.2-0.1 0.3-0.3 0.3-0.5 0,0 0,0 0-0.1 0-3.3 2.7-6 6-6s6,2.7 6,6-2.7,6.2-6,6.2z"/>
    <path d="m29,13c-1.1,0-2,0.9-2,2 0,0.3 0.1,0.5 0.2,0.8 0.3,0.7 1,1.2 1.8,1.2 1.1,0 2-0.9 2-2s-0.9-2-2-2z"/>
  </g>
</svg>
