<?xml version='1.0' encoding='iso-8859-1'?>
<svg version="1.1" xmlns="http://www.w3.org/2000/svg" viewBox="0 0 44 44" xmlns:xlink="http://www.w3.org/1999/xlink" enable-background="new 0 0 44 44">
  <g>
    <path d="m29.7,19h-1.2c-0.3,0-0.5,0.2-0.5,0.5v2.5c0,0.6-0.4,1-1,1h-2c-0.6,0-1-0.4-1-1v-2.5c0-0.3-0.2-0.5-0.5-0.5h-3c-0.3,0-0.5,0.2-0.5,0.5v2.5c0,0.6-0.4,1-1,1h-2c-0.6,0-1-0.4-1-1v-2.5c0-0.3-0.2-0.5-0.5-0.5h-1.2c-0.3,0-0.5,0.2-0.5,0.5l-.7,11c0,0.3 0.2,0.5 0.5,0.5h16.7c0.3,0 0.5-0.2 0.5-0.5l-.7-11c0-0.3-0.2-0.5-0.4-0.5z"/>
    <path d="m20.6,15h2.8c0.3,0 0.6-0.3 0.5-0.6-0.3-0.8-1-1.4-1.9-1.4s-1.6,0.6-1.9,1.4c-0.1,0.3 0.2,0.6 0.5,0.6z"/>
    <path d="m22,0c-12.2,0-22,9.8-22,22s9.8,22 22,22 22-9.8 22-22-9.8-22-22-22zm12.1,35h-24.1c-0.6,0-1-0.5-1-1.1l1.1-18c0-0.5 0.5-0.9 1-0.9h4.5c0.3,0 0.5-0.2 0.5-0.5 0.2-3.1 2.8-5.5 6-5.5s5.7,2.4 6,5.5c0,0.3 0.2,0.5 0.5,0.5h4.5c0.5,0 1,0.4 1,0.9l1.1,18c-0.1,0.6-0.6,1.1-1.1,1.1z"/>
  </g>
</svg>
