<?xml version='1.0' encoding='iso-8859-1'?>
<svg version="1.1" xmlns="http://www.w3.org/2000/svg" viewBox="0 0 44 44" xmlns:xlink="http://www.w3.org/1999/xlink" enable-background="new 0 0 44 44">
  <g>
    <path d="m29.8,19h-13.9c-0.3,0-0.5,0.3-0.5,0.6l1.1,6c0,0.2 0.3,0.4 0.5,0.4h11.6c0.2,0 0.4-0.2 0.5-0.4l1.1-6c0.2-0.3-0.1-0.6-0.4-0.6z"/>
    <path d="m22,0c-12.2,0-22,9.8-22,22s9.8,22 22,22 22-9.8 22-22-9.8-22-22-22zm13,16.2l-2.4,13c-0.1,0.5-0.5,0.8-1,0.8h-4.6c1.1,0 2,0.9 2,2s-0.9,2-2,2-2-0.9-2-2 0.9-2 2-2h-9c1.1,0 2,0.9 2,2s-0.9,2-2,2-2-0.9-2-2 0.9-2 2-2h-3.8c-0.5,0-0.9-0.3-1-0.8l-2.8-14.8c0-0.2-0.2-0.4-0.4-0.4-0.6,0-1-0.4-1-1v-2c0-0.6 0.4-1 1-1h2.8c0.5,0 0.9,0.3 1,0.8l.7,3.8c0,0.2 0.3,0.4 0.5,0.4h19c0.6,0 1,0.5 1,1 0,0.1 0,0.1 0,0.2z"/>
  </g>
</svg>
