<?xml version='1.0' encoding='iso-8859-1'?>
<svg version="1.1" xmlns="http://www.w3.org/2000/svg" viewBox="0 0 44 44" xmlns:xlink="http://www.w3.org/1999/xlink" enable-background="new 0 0 44 44">
  <g>
    <path d="M22,0C9.8,0,0,9.8,0,22s9.8,22,22,22s22-9.8,22-22S34.2,0,22,0z M32,32c0,1.7-1.3,3-3,3H15c-1.7,0-3-1.3-3-3V12   c0-1.7,1.3-3,3-3h14c1.7,0,3,1.3,3,3V32z"/>
    <path d="m27.5,13h-11c-0.3,0-0.5,0.2-0.5,0.5v17c0,0.3 0.2,0.5 0.5,0.5h11c0.3,0 0.5-0.2 0.5-0.5v-17c0-0.3-0.2-0.5-0.5-0.5zm-5.5,16c-1.1,0-2-0.9-2-2s0.9-2 2-2 2,0.9 2,2-0.9,2-2,2z"/>
  </g>
</svg>
