<?xml version='1.0' encoding='iso-8859-1'?>
<svg version="1.1" xmlns="http://www.w3.org/2000/svg" viewBox="0 0 44 44" xmlns:xlink="http://www.w3.org/1999/xlink" enable-background="new 0 0 44 44">
  <g>
    <path d="m29.5,18h-0.2c-2.1,0-3.9-1.4-4.4-3.5-0.2-0.9-1-1.5-1.9-1.5-0.8,0-1.5,0.5-1.8,1.2-0.7,1.7-2.3,2.8-4.2,2.8-0.5,0-0.9,0.4-1,0.8-0.2,0.9-0.7,1.8-1.4,2.4-0.2,0.2-0.2,0.5-0.1,0.7 0.1,0.1 0.2,0.2 0.4,0.2h2.6 9 3c0.8,0 1.5-0.7 1.5-1.5 0-0.9-0.7-1.6-1.5-1.6z"/>
    <path d="m22,0c-12.2,0-22,9.8-22,22s9.8,22 22,22 22-9.8 22-22-9.8-22-22-22zm7.5,25h-3-3.4c-0.2,0-0.4,0.1-0.5,0.3l-.4,1c-0.1,0.3 0.1,0.7 0.5,0.7h3.8c0.7,0 1.2,0.7 0.9,1.4l-2.2,6c-0.2,0.4-0.5,0.6-0.9,0.6-0.1,0-0.2,0-0.4-0.1l-1.9-.7c-0.5-0.2-0.8-0.8-0.6-1.3l.3-1.2c0.1-0.3-0.1-0.7-0.5-0.7h-3.8c-0.7,0-1.2-0.7-0.9-1.4l1.6-3.9c0.1-0.3-0.1-0.7-0.5-0.7h-4.5c-2,0-3.9-1.4-4.1-3.4-0.3-2 1-3.8 2.8-4.4 0.2-0.1 0.3-0.2 0.3-0.4 0.5-2.2 2.5-3.8 4.9-3.8 0.2,0 0.4-0.1 0.5-0.3 0.9-2.2 3-3.7 5.5-3.7 2.8,0 5.2,2 5.8,4.6 0.1,0.2 0.3,0.4 0.5,0.4 0.1,0 0.1,0 0.2,0 2.4,0 4.6,1.5 5.2,3.8 1.2,3.8-1.6,7.2-5.2,7.2z"/>
  </g>
</svg>
