<?xml version='1.0' encoding='iso-8859-1'?>
<svg version="1.1" xmlns="http://www.w3.org/2000/svg" viewBox="0 0 44 44" xmlns:xlink="http://www.w3.org/1999/xlink" enable-background="new 0 0 44 44">
  <path d="m22,0c-12.2,0-22,9.8-22,22s9.8,22 22,22 22-9.8 22-22-9.8-22-22-22zm5.7,25.7l-1.4,1.4c-0.4,0.4-1,0.4-1.4,0-0.2-0.2-0.5-0.2-0.7,0-0.1,0.1-0.1,0.2-0.1,0.4v6.6c0,0.6-0.4,1-1,1h-2c-0.6,0-1-0.4-1-1v-6.6c0-0.1-0.1-0.3-0.1-0.4-0.2-0.2-0.5-0.2-0.7,0-0.4,0.4-1,0.4-1.4,0l-1.4-1.4c-0.2-0.2-0.3-0.4-0.3-0.7s0.1-0.5 0.3-0.7l.1-.1 4.9-4.9c0.2-0.2 0.5-0.3 0.7-0.3s0.5,0.1 0.7,0.3l4.9,4.9 .1,.1c0.2,0.2 0.3,0.4 0.3,0.7-0.2,0.3-0.3,0.5-0.5,0.7zm3.1-.1l0,0 0,0c-0.1,0.1-0.2,0.1-0.3,0.1-0.3,0-0.5-0.3-0.5-0.5l0,0c0-0.1 0-0.1 0-0.2 0-0.8-0.3-1.6-0.9-2.1l-.2-.2 0,0c0,0 0,0 0-0.1-0.2-0.2-0.1-0.5 0.1-0.7 1.2-0.9 2-2.3 2-4 0-2.8-2.2-5-5-5-2,0-3.8,1.2-4.6,3-0.7,1.5-2.1,2.4-3.7,2.4-0.5,0-0.9-0.1-1.4-0.2-0.3-0.1-0.6-0.2-0.9-0.2-1.4,0-2.5,1.1-2.5,2.5 0,0.9 0.5,1.8 1.3,2.2l0,0c0.2,0.1 0.3,0.5 0.1,0.7-0.3,0.5-0.5,1-0.5,1.6 0,0.4 0.1,0.7 0.2,1.1 0,0.1 0,0.2 0,0.3-0.1,0.2-0.3,0.4-0.5,0.4h-0.1l0,0c-2.6-0.8-4.6-3.3-4.6-6.2 0-3.6 2.9-6.5 6.5-6.5 0.8,0 1.5,0.1 2.3,0.4 1.4-3.2 4.6-5.4 8.3-5.4 5,0 9,4 9,9 0.1,3.2-1.6,6-4.1,7.6z"/>
</svg>
