<?xml version='1.0' encoding='iso-8859-1'?>
<svg version="1.1" xmlns="http://www.w3.org/2000/svg" viewBox="0 0 44 44" xmlns:xlink="http://www.w3.org/1999/xlink" enable-background="new 0 0 44 44">
  <path d="m22,0c-12.2,0-22,9.8-22,22s9.8,22 22,22 22-9.8 22-22-9.8-22-22-22zm-5.9,30.2l-1.3,1.5c-0.2,0.2-0.5,0.3-0.7,0.3s-0.5-0.1-0.7-0.2c-0.2-0.2-0.4-0.4-0.6-0.6-2.5-2.5-3.8-5.7-3.8-9.2s1.4-6.7 3.8-9.2c0.2-0.2 0.4-0.4 0.6-0.6s0.4-0.2 0.7-0.2c0.3,0 0.6,0.1 0.7,0.3l1.3,1.5c0.4,0.4 0.3,1-0.1,1.4-0.1,0.1-0.3,0.3-0.4,0.4-1.7,1.7-2.6,4-2.6,6.4s0.9,4.7 2.6,6.4c0.1,0.1 0.3,0.3 0.4,0.4 0.5,0.3 0.5,1 0.1,1.4zm4.5-6.8c0,0 0,0.1 0,0 0.5,0.5 0.5,1.1 0.2,1.5l-1.3,1.5c-0.4,0.4-1,0.4-1.4,0.1-0.1-0.1-0.2-0.2-0.3-0.3-1.1-1.1-1.8-2.6-1.8-4.2s0.6-3.1 1.8-4.2c0.1-0.1 0.2-0.2 0.3-0.3 0.4-0.4 1-0.3 1.4,0.1l1.3,1.5c0.4,0.4 0.3,1-0.1,1.4l-.1,.1c-0.4,0.4-0.6,0.9-0.6,1.4s0.2,1 0.6,1.4zm5.4,3.1c-0.4,0.4-1,0.3-1.4-0.1h-0.1l-1.4-1.5c0-0.4-0.2-1 0.2-1.4 0,0 0.1-0.1 0.2-0.1 0.4-0.4 0.6-0.9 0.6-1.4s-0.2-1-0.6-1.4l-.1-.1c-0.4-0.4-0.5-1-0.1-1.4l1.3-1.5c0.4-0.4 1-0.4 1.4-0.1 0.1,0.1 0.2,0.2 0.3,0.3 1.1,1.1 1.8,2.6 1.8,4.2s-0.6,3.1-1.8,4.2c-0.1,0.1-0.2,0.2-0.3,0.3zm5.2,4.7c-0.2,0.2-0.4,0.4-0.6,0.6-0.2,0.2-0.4,0.2-0.7,0.2s-0.6-0.1-0.7-0.3l-1.3-1.5c-0.4-0.4-0.3-1 0.1-1.4 0.1-0.1 0.3-0.3 0.4-0.4 1.7-1.7 2.6-4 2.6-6.4s-0.9-4.7-2.6-6.4c-0.1-0.1-0.3-0.3-0.4-0.4-0.4-0.4-0.5-1-0.1-1.4l1.3-1.5c0.2-0.2 0.5-0.3 0.7-0.3s0.5,0.1 0.7,0.2c0.2,0.2 0.4,0.4 0.6,0.6 2.5,2.5 3.8,5.7 3.8,9.2s-1.4,6.7-3.8,9.2z"/>
</svg>
