<?xml version='1.0' encoding='iso-8859-1'?>
<svg version="1.1" xmlns="http://www.w3.org/2000/svg" viewBox="0 0 44 44" xmlns:xlink="http://www.w3.org/1999/xlink" enable-background="new 0 0 44 44">
  <path d="m22,0c-12.2,0-22,9.8-22,22s9.8,22 22,22 22-9.8 22-22-9.8-22-22-22zm0,32c-1.1,0-2-0.9-2-2s0.9-2 2-2 2,0.9 2,2-0.9,2-2,2zm7-7.6l-1.4,1.4c-0.4,0.4-1,0.4-1.4,0-1.1-1.1-2.6-1.7-4.2-1.7-1.6,0-3.1,0.7-4.2,1.7-0.4,0.4-1,0.4-1.4,0l-1.4-1.4c-0.4-0.4-0.4-1 0-1.4 1.8-1.8 4.3-2.9 7-2.9s5.2,1.1 7,2.9c0.4,0.3 0.4,1 0,1.4zm5.7-5.7l-1.4,1.4c-0.4,0.4-1,0.4-1.4,0-2.5-2.5-6-4.1-9.9-4.1s-7.4,1.6-9.9,4.1c-0.4,0.4-1,0.4-1.4,0l-1.4-1.4c-0.2-0.2-0.3-0.4-0.3-0.7 0-0.3 0.1-0.5 0.3-0.7 3.3-3.3 7.7-5.3 12.7-5.3s9.5,2 12.7,5.3c0.2,0.2 0.3,0.4 0.3,0.7 0,0.2-0.1,0.5-0.3,0.7z"/>
</svg>
