<?xml version='1.0' encoding='iso-8859-1'?>
<svg version="1.1" xmlns="http://www.w3.org/2000/svg" viewBox="0 0 44 44" xmlns:xlink="http://www.w3.org/1999/xlink" enable-background="new 0 0 44 44">
  <path d="M22,0C9.8,0,0,9.8,0,22s9.8,22,22,22s22-9.8,22-22S34.2,0,22,0z M32.9,12l-1,1l-5.2,5.2c-0.3,0.3-0.1,0.9,0.4,0.9h3  c0.6,0,1,0.4,1,1v2c0,0.6-0.4,1-1,1h-5.5c-0.3,0-0.5,0.2-0.5,0.5v3c0,0.3,0.2,0.5,0.5,0.5h5.5c0.6,0,1,0.4,1,1v2c0,0.6-0.4,1-1,1  h-5.5c-0.3,0-0.5,0.2-0.5,0.5v2.5c0,0.6-0.4,1-1,1h-2c-0.6,0-1-0.4-1-1v-2.5c0-0.3-0.2-0.5-0.5-0.5H14c-0.6,0-1-0.4-1-1v-2  c0-0.6,0.4-1,1-1h5.5c0.3,0,0.5-0.2,0.5-0.5v-3c0-0.3-0.2-0.5-0.5-0.5H14c-0.6,0-1-0.4-1-1v-2c0-0.6,0.4-1,1-1h3  c0.4,0,0.7-0.5,0.4-0.9L12.2,13l-1-1c-0.1-0.1-0.1-0.2-0.1-0.4s0-0.3,0.1-0.4l2.1-2.1C13.4,9,13.5,9,13.7,9s0.3,0,0.4,0.1l1,1  l6.7,6.7c0.2,0.2,0.5,0.2,0.7,0l6.7-6.7l1-1C30.3,9,30.4,9,30.6,9s0.3,0,0.4,0.1l2.1,2.1c0.1,0.1,0.1,0.2,0.1,0.4S33,11.9,32.9,12z"/>
</svg>
